<svg width="16" height="16" viewBox="0 0 16 16" fill="none" xmlns="http://www.w3.org/2000/svg">
<path d="M9.48816 2.06181C9.29629 1.96556 9.05629 1.98181 8.88003 2.10993L4.12819 5.50177H0.591872C0.271872 5.50177 0 5.77365 0 6.09365V10.8936C0 11.2136 0.271872 11.4855 0.591872 11.4855H4.12819L8.88003 14.8774C8.97628 14.9574 9.10378 14.9892 9.21629 14.9892C9.31254 14.9892 9.40816 14.973 9.48816 14.9255C9.68003 14.8292 9.80816 14.6217 9.80816 14.3974V2.58983C9.80816 2.36547 9.69629 2.15744 9.48816 2.06181Z" fill="#6ABCAA"/>
<path d="M11.2481 6.33371C10.9762 6.52558 10.9281 6.89371 11.1044 7.14997C11.3925 7.54997 11.5362 8.01371 11.5362 8.49371C11.5362 8.97371 11.3925 9.43746 11.1044 9.83746C10.9125 10.1093 10.9762 10.4775 11.2481 10.6537C11.36 10.7337 11.4718 10.7656 11.5844 10.7656C11.7762 10.7656 11.9525 10.6856 12.0644 10.5256C12.4962 9.93371 12.72 9.22995 12.72 8.49375C12.72 7.75754 12.4962 7.05375 12.0637 6.46191C11.8881 6.20565 11.52 6.14191 11.2481 6.33378V6.33371Z" fill="#6ABCAA"/>
<path d="M13.808 4.67028C13.5999 4.41402 13.2318 4.38215 12.9762 4.59028C12.7199 4.79841 12.688 5.16654 12.8962 5.42215C13.6162 6.2859 14.0162 7.37399 14.0162 8.49399C14.0162 9.61399 13.6162 10.7022 12.8962 11.5658C12.688 11.8221 12.7199 12.1896 12.9762 12.3977C13.088 12.494 13.2162 12.5415 13.3599 12.5415C13.5362 12.5415 13.6962 12.4615 13.808 12.3333C14.7043 11.2615 15.1999 9.90149 15.1999 8.50965C15.1999 7.11777 14.7036 5.74213 13.808 4.67029V4.67028Z" fill="#6ABCAA"/>
</svg>
