<svg width="16" height="18" viewBox="0 0 16 18" fill="none" xmlns="http://www.w3.org/2000/svg">
<path d="M9.48816 3.06181C9.29629 2.96556 9.05629 2.98181 8.88003 3.10993L4.12819 6.50177H0.591872C0.271872 6.50177 0 6.77365 0 7.09365V11.8936C0 12.2136 0.271872 12.4855 0.591872 12.4855H4.12819L8.88003 15.8774C8.97628 15.9574 9.10378 15.9892 9.21629 15.9892C9.31254 15.9892 9.40816 15.973 9.48816 15.9255C9.68003 15.8292 9.80816 15.6217 9.80816 15.3974V3.58983C9.80816 3.36547 9.69629 3.15744 9.48816 3.06181Z" fill="#6ABCAA"/>
<path d="M11.2481 7.33371C10.9762 7.52558 10.9281 7.89371 11.1044 8.14997C11.3925 8.54997 11.5362 9.01371 11.5362 9.49371C11.5362 9.97371 11.3925 10.4375 11.1044 10.8375C10.9125 11.1093 10.9762 11.4775 11.2481 11.6537C11.36 11.7337 11.4718 11.7656 11.5844 11.7656C11.7762 11.7656 11.9525 11.6856 12.0644 11.5256C12.4962 10.9337 12.72 10.23 12.72 9.49375C12.72 8.75754 12.4962 8.05375 12.0637 7.46191C11.8881 7.20565 11.52 7.14191 11.2481 7.33378V7.33371Z" fill="#6ABCAA"/>
<path d="M13.808 5.67028C13.5999 5.41402 13.2318 5.38215 12.9762 5.59028C12.7199 5.79841 12.688 6.16654 12.8962 6.42215C13.6162 7.2859 14.0162 8.37399 14.0162 9.49399C14.0162 10.614 13.6162 11.7022 12.8962 12.5658C12.688 12.8221 12.7199 13.1896 12.9762 13.3977C13.088 13.494 13.2162 13.5415 13.3599 13.5415C13.5362 13.5415 13.6962 13.4615 13.808 13.3333C14.7043 12.2615 15.1999 10.9015 15.1999 9.50965C15.1999 8.11777 14.7036 6.74213 13.808 5.67029V5.67028Z" fill="#6ABCAA"/>
<path d="M4.128 18H2L8.552 0H10.68L4.128 18Z" fill="#6ABCAA"/>
<path d="M5.128 18H3L9.552 0H11.68L5.128 18Z" fill="white"/>
</svg>
