<svg width="22" height="17" viewBox="0 0 22 17" fill="none" xmlns="http://www.w3.org/2000/svg">
<path fill-rule="evenodd" clip-rule="evenodd" d="M7.34544 4.33297C7.33182 4.48048 7.36134 4.6349 7.434 4.78932C7.59975 5.13964 7.9903 5.49919 8.59655 5.81033C9.20281 6.12378 9.93622 6.34273 10.6787 6.46028C11.0011 6.51098 11.3281 6.54325 11.6483 6.55477L7.34544 4.33297ZM12.1092 6.79216L8.24461 8.35941C8.15832 8.31562 8.07204 8.27183 7.98576 8.22573C7.52028 7.98604 6.71648 7.96529 6.19197 8.17964C6.09433 8.21882 5.99443 8.258 5.89679 8.29948C4.88864 7.78091 3.88048 7.26003 2.87006 6.74146C2.9677 6.70228 3.0676 6.66079 3.16524 6.62161C3.69202 6.40727 3.74425 6.04081 3.27877 5.80111C3.19249 5.75732 3.1062 5.71123 3.01992 5.66743L6.89359 4.09789L6.06482 3.6692C4.03943 4.48739 2.01858 5.30789 0 6.12608V7.23929L6.88678 10.708L13.4988 8.02522V7.50895L12.1092 6.79216ZM22 3.54704V4.57497L16.6663 6.73915V6.133L15.3653 5.47153L16.6799 4.93913C17.4451 4.62798 18.2126 4.31684 18.9778 4.008C18.8915 3.96421 18.8052 3.92042 18.719 3.87432C18.2535 3.63463 18.3034 3.26817 18.8325 3.05382C18.9301 3.01464 19.03 2.97316 19.1277 2.93397C18.1195 2.4154 17.1091 1.89452 16.1009 1.37595C16.0033 1.41513 15.9034 1.45662 15.8058 1.4958C15.279 1.71014 14.4752 1.6894 14.012 1.4497C13.9257 1.40591 13.8394 1.36212 13.7531 1.31602C12.9879 1.62717 12.2205 1.93831 11.4553 2.24715L10.1088 2.79338L9.2732 2.367C11.2191 1.57877 13.165 0.788232 15.1132 0C17.4088 1.18235 19.7044 2.3647 22 3.54704ZM14.6364 5.10046C14.6205 5.02901 14.5955 4.95756 14.5637 4.88842C14.398 4.53579 14.0074 4.17855 13.3989 3.8651C12.7927 3.55165 12.0592 3.3327 11.3168 3.21516C11.1487 3.1875 10.9784 3.16676 10.8104 3.15062L14.6364 5.10046ZM6.88678 12.3029L0 8.83419V7.76247L6.88678 11.2312L13.4988 8.5484V9.62012L6.88678 12.3029ZM16.6663 7.26234L22 5.09816V6.16988L16.6663 8.33636V7.26234ZM6.88678 13.9001L0 10.4314V9.35968L6.88678 12.8284L13.4988 10.1456V11.2173L6.88678 13.9001ZM16.6663 8.85954L22 6.69536V7.76708L16.6663 9.93126V8.85954ZM6.88678 15.495L0 12.0286V10.9569L6.88678 14.4256L13.4988 11.7428V12.8145L6.88678 15.495ZM16.6663 10.4544L22 8.29027V9.36198L16.6663 11.5285V10.4544ZM6.88678 17L0 13.453V12.5518L6.88678 16.0205L13.4988 13.3377V14.3195L6.88678 17ZM16.6663 12.0517L22 9.88747V10.8716L16.6663 13.0335V12.0517ZM15.7603 13.2271V6.68845L8.46032 2.95472L7.40675 3.3811L14.398 7.0042V13.7964L15.7603 13.2271ZM16.2349 13.5475L13.928 14.5085V7.29691L6.2669 3.32579C7.00712 3.02617 7.74507 2.72885 8.48529 2.42923L16.2349 6.39344V13.5475Z" fill="white"/>
</svg>
