<svg width="32" height="32" viewBox="0 0 32 32" fill="none" xmlns="http://www.w3.org/2000/svg">
<path d="M21.2768 9.48149H10.9741V9.15023C10.9741 7.31021 11.9562 5.60977 13.5504 4.68988C15.1446 3.76988 17.1074 3.76988 18.7018 4.68988C20.2946 5.60987 21.2767 7.31017 21.2767 9.15023L21.2768 9.48149ZM11.6509 8.81898H20.5948C20.3942 6.4976 18.452 4.71571 16.1228 4.71571C13.7924 4.71571 11.8503 6.4975 11.6509 8.81898Z" fill="#314546"/>
<path d="M26.3425 11.181V11.1409V11.1422C26.3386 11.1111 26.3308 11.0814 26.3192 11.0529L24.3717 6.21986C24.2967 6.03095 24.1142 5.90802 23.9111 5.90802H20.1222C19.1453 4.70334 17.6779 4.0033 16.1266 4.0033C14.5764 4.0033 13.1078 4.70334 12.132 5.90802H8.4249C8.22303 5.90802 8.04057 6.03094 7.96425 6.21986L6.02329 11.0489C6.01294 11.0774 6.00518 11.1084 6 11.1382V11.1783V11.221V26.0215C6 26.2958 6.22256 26.5184 6.49688 26.5184H25.8495C26.1238 26.5184 26.3464 26.2958 26.3464 26.0215V11.225C26.3464 11.225 26.3425 11.1978 26.3425 11.181L26.3425 11.181ZM16.1265 4.66585C18.4764 4.66714 20.4276 6.47742 20.6051 8.81946H11.6612C11.8398 6.48255 13.7833 4.67479 16.1265 4.66585ZM8.76006 6.90182H11.5033C11.3053 7.30556 11.1617 7.73255 11.0749 8.17378H9.87285C9.49631 8.17378 9.19093 8.47916 9.19093 8.8557C9.19093 9.23353 9.49631 9.53892 9.87285 9.53892H22.3946C22.7712 9.53892 23.0766 9.23354 23.0766 8.8557C23.0766 8.47916 22.7712 8.17378 22.3946 8.17378H21.1822C21.0968 7.73255 20.9519 7.30553 20.7552 6.90182H23.5747L25.1106 10.7179H7.22284L8.76006 6.90182ZM25.3527 25.5247H6.98089V11.7117H25.3527V25.5247Z" fill="#314546"/>
<path d="M12.776 7.04729C12.5534 7.37725 12.38 7.73954 12.2623 8.11999C12.2597 8.13811 12.2597 8.15493 12.2623 8.17304H12.5935C12.7009 7.83791 12.8549 7.52087 13.0503 7.22844C13.0956 7.15468 13.0749 7.05763 13.0037 7.00975C12.9312 6.96058 12.8342 6.9774 12.7824 7.04728L12.776 7.04729Z" fill="#314546"/>
<path d="M18.2364 5.84828C17.9918 5.70335 17.7343 5.58172 17.4678 5.48337C17.0408 5.33844 16.5931 5.26339 16.1428 5.2621C15.5113 5.25692 14.8876 5.40185 14.3247 5.68521C14.282 5.70203 14.2471 5.73567 14.2316 5.77838C14.2147 5.82108 14.2173 5.86895 14.238 5.91036C14.2587 5.95177 14.295 5.98153 14.3403 5.99318C14.3842 6.00612 14.4308 5.99835 14.4696 5.97377C14.9834 5.71627 15.5514 5.58298 16.1259 5.58686C16.5452 5.58557 16.9618 5.65414 17.3591 5.78872C17.6062 5.87671 17.8456 5.98799 18.0747 6.11998C18.1109 6.14844 18.1588 6.1588 18.2041 6.14974C18.2494 6.14068 18.2895 6.11221 18.3128 6.0721C18.336 6.03199 18.3412 5.98411 18.327 5.94011C18.3115 5.89482 18.2791 5.85988 18.2364 5.84177L18.2364 5.84828Z" fill="#314546"/>
<path d="M19.235 6.70596C19.1081 6.55197 18.9684 6.40834 18.817 6.27893C18.7847 6.24917 18.7407 6.23364 18.6967 6.23753C18.654 6.24011 18.6126 6.26082 18.5841 6.29446C18.5556 6.32811 18.5427 6.3721 18.5466 6.4161C18.5517 6.46009 18.5737 6.50021 18.6087 6.52738C18.7458 6.64513 18.8714 6.77453 18.9865 6.91429C19.0111 6.95311 19.0512 6.98028 19.0978 6.98675C19.1431 6.99451 19.1897 6.98157 19.2259 6.95181C19.2621 6.92205 19.2828 6.87805 19.2841 6.83277C19.2867 6.78618 19.2686 6.7409 19.235 6.70855V6.70596Z" fill="#314546"/>
</svg>
