<svg width="76" height="25" viewBox="0 0 76 25" fill="none" xmlns="http://www.w3.org/2000/svg">
<path d="M6.25295 6.67861H14.3853L14.4291 0H6.25295H0.0246887V6.67861V24.5873L3.06484 24.1577L6.25295 23.6087V15.1547H14.3853V9.52603H6.25295V6.70327V6.67861Z" fill="#314546"/>
<path d="M21.4418 0H15.2122V22.0669L21.4418 20.9949V0Z" fill="#314546"/>
<path d="M28.6747 0H22.4452V20.821L28.6747 19.749V8.90697L37.8981 18.1618L43.3815 17.2182V0H36.7634V9.00171L28.6825 0" fill="#314546"/>
<path d="M75.9997 23.6905L61.5927 9.07439L61.5773 15.1547H65.7844L71.3488 20.7392H61.576V24.7443H55.3477V0H60.7114L75.9804 16.2462L75.9997 23.6905Z" fill="#EF5E33"/>
<path d="M0.0248785 24.9871C-0.0290696 24.9924 0.020931 24.9964 0.0248785 25.0003V24.9871Z" fill="#EF5E33"/>
<path d="M44.7275 5.94923H48.2771V16.6381L48.1704 16.6563L0.108124 24.7742C9.88602 24.4614 51.774 24.7846 54.378 24.7313V0H44.7288V5.94923H44.7275Z" fill="#EF5E33"/>
</svg>
