<svg width="39" height="32" viewBox="0 0 39 32" fill="none" xmlns="http://www.w3.org/2000/svg">
<path d="M37.539 7.16455H3.83214H2.37115V8.62485V22.915V24.3753H3.83214H37.539H39V22.915V8.62485V7.16455H37.539ZM37.539 22.915H3.83214V8.62485H37.539V22.915V22.915Z" fill="#6ABCAA"/>
<path d="M19.3294 15.6658L19.2768 15.8759L19.3294 15.6658Z" fill="#6ABCAA"/>
<path d="M19.7986 17.7519C19.4333 16.761 19.2246 15.8744 19.2246 15.8744C19.1725 15.8222 19.1203 15.6658 19.0681 15.5615C18.9116 15.5093 18.1811 15.4572 18.442 16.2395C18.8072 17.1783 19.7986 17.7519 19.7986 17.7519Z" fill="#6ABCAA"/>
<path d="M18.9116 14.3619C18.9116 14.3619 18.9116 15.092 19.0681 15.5614C19.1203 15.6657 19.1725 15.8222 19.2246 15.8743L19.2768 15.6657L19.7464 13.9968C19.4334 14.1533 19.1203 14.2576 18.9116 14.3619Z" fill="#6ABCAA"/>
<path d="M25.6946 15.0396C25.6424 15.1439 25.6424 15.2482 25.6424 15.3525C25.5902 15.6132 25.4337 15.7697 25.4337 15.7697C25.4337 15.7697 25.2771 16.6042 25.0684 17.4386C25.4858 17.3865 25.9555 16.1348 26.2164 15.5089C26.4251 14.8309 25.6946 15.0396 25.6946 15.0396Z" fill="#6ABCAA"/>
<path d="M25.225 13.4229C25.0685 13.3708 24.9641 13.3186 24.8076 13.3186L25.4859 15.822C25.4859 15.822 25.6424 15.6655 25.6946 15.4048C25.6946 15.3005 25.6946 15.1961 25.6946 15.0918C25.6946 14.0488 25.225 13.4229 25.225 13.4229Z" fill="#6ABCAA"/>
<path d="M25.3815 13.2144L23.3466 9.9287C23.1901 9.66793 22.9292 9.45931 22.6683 9.40716C22.2509 9.30285 21.5726 9.25069 20.7377 9.61577C20.4247 9.77223 20.2159 9.98086 20.1116 10.2938L18.755 14.2053C18.7028 14.3096 18.8072 14.4139 18.9637 14.3618C19.1724 14.2575 19.4855 14.1532 19.8507 13.9967C21.103 13.5273 23.0857 12.9015 24.8076 13.3187C24.9641 13.3708 25.0685 13.3708 25.225 13.423C25.3294 13.423 25.4337 13.3187 25.3815 13.2144Z" fill="#6ABCAA"/>
<path d="M24.5993 19.2122C24.547 19.3167 24.4947 19.369 24.4424 19.4735C24.4947 19.4212 24.547 19.3167 24.547 19.2644C24.5993 19.2644 24.5993 19.2122 24.5993 19.2122Z" fill="#6ABCAA"/>
<path d="M24.2858 19.6824C24.3382 19.63 24.3907 19.5776 24.4431 19.5251C24.3907 19.5776 24.3382 19.63 24.2858 19.6824Z" fill="#6ABCAA"/>
<path d="M22.1988 21.4027C23.3467 21.0376 24.2337 19.7859 24.2337 19.7859C23.8685 20.2031 23.3467 20.4639 23.0858 20.516C22.6684 20.6204 21.8857 20.516 20.8943 19.6816C20.79 19.5773 20.6856 19.473 20.5813 19.3687V20.4117V20.6203C20.5813 20.6203 21.0509 21.7677 22.1988 21.4027Z" fill="#6ABCAA"/>
<path d="M24.2893 19.6814C24.2337 19.7369 24.2337 19.7369 24.2337 19.7369C24.2337 19.7369 24.2893 19.7369 24.2893 19.6814Z" fill="#6ABCAA"/>
<path d="M24.4424 19.5284L24.4981 19.4729C24.4424 19.4729 24.4424 19.5284 24.4424 19.5284Z" fill="#6ABCAA"/>
<path d="M24.5993 19.2644V19.2122C24.547 19.3167 24.4947 19.369 24.4424 19.4735C24.547 19.369 24.547 19.3167 24.5993 19.2644Z" fill="#6ABCAA"/>
<path d="M25.3816 15.4571L24.8077 13.3188C23.0858 12.9016 21.0508 13.5275 19.7986 13.9968L19.329 15.6657L19.2768 15.8744C19.2768 15.8744 19.4855 16.8131 19.8508 17.7519C20.0595 18.3256 20.3204 18.9514 20.6334 19.3165C20.7378 19.4208 20.8421 19.5773 20.9465 19.6294C21.9379 20.4639 22.7205 20.5682 23.138 20.4639C23.3989 20.4117 23.8685 20.151 24.2859 19.7337L24.3381 19.6816C24.3902 19.6294 24.4424 19.5773 24.4946 19.5251L24.5468 19.473C24.5989 19.3687 24.6511 19.3165 24.7033 19.2122C24.8077 19.0036 24.912 18.6385 24.912 18.6385C25.0164 18.2734 25.0686 17.8562 25.1729 17.439C25.3816 16.5524 25.5381 15.7701 25.5381 15.7701L25.3816 15.4571Z" fill="#6ABCAA"/>
<path d="M29.921 22.0807C29.2949 21.507 25.5902 19.7859 25.5902 19.7859C24.7554 21.6634 23.0335 22.3936 21.9378 22.3936C20.8421 22.3936 20.3203 21.507 20.3203 21.507V20.9854L15.5199 22.863H30.4949C30.4428 22.9151 30.4949 22.6543 29.921 22.0807Z" fill="#6ABCAA"/>
<path d="M24.8076 18.6387C24.8076 18.6908 24.7555 18.743 24.7555 18.7951C24.7033 18.9516 24.6511 19.1081 24.5989 19.2124V19.2645C24.5467 19.3167 24.5467 19.3688 24.4946 19.4731C24.4424 19.5774 24.338 19.6817 24.2337 19.786C24.2337 19.786 23.3988 21.0377 22.1987 21.4028C21.0508 21.7679 20.6334 20.6205 20.6334 20.6205V20.4119L20.3203 20.5162V20.9856V21.5071C20.3203 21.5071 20.7899 22.3416 21.9379 22.3937C23.0336 22.3937 24.7555 21.6636 25.5903 19.786L24.8076 18.6387Z" fill="#6ABCAA"/>
<path d="M24.4951 19.4729C24.4951 19.5252 24.4429 19.5252 24.4429 19.5252C24.3906 19.5774 24.3383 19.6297 24.286 19.682L24.2337 19.7342C24.3383 19.682 24.3906 19.5774 24.4951 19.4729Z" fill="#6ABCAA"/>
<path d="M24.5989 19.2123C24.651 19.0559 24.7032 18.9516 24.7554 18.7951C24.7554 18.743 24.7554 18.6908 24.8076 18.6387C24.8076 18.6387 24.7032 19.0037 24.5989 19.2123Z" fill="#6ABCAA"/>
<path d="M33.0517 11.9105C31.8516 11.5975 31.5385 12.1191 31.5385 12.1191V15.2483C31.5385 15.2483 31.8516 14.7268 33.0517 15.0397C34.2518 15.3526 34.9823 15.5612 35.5562 14.9354V11.8062C34.9823 12.432 34.1996 12.2234 33.0517 11.9105ZM33.9909 13.0057L34.0952 12.7971L34.1996 13.0057L34.4605 13.0578L34.304 13.2143L34.3561 13.4751L34.1474 13.3708L33.9387 13.4751L33.9909 13.2143L33.8344 13.0578L33.9909 13.0057ZM33.5213 14.8311C32.843 14.8311 32.3212 14.3095 32.3212 13.6315C32.3212 12.9535 32.843 12.432 33.5213 12.432H33.5735C33.0517 12.4842 32.5821 12.9014 32.5821 13.4751C32.5821 14.0488 33.0517 14.5181 33.6256 14.5181C34.1996 14.5181 34.617 14.1009 34.6692 13.5272V13.5794C34.7214 14.2574 34.1474 14.8311 33.5213 14.8311Z" fill="#6ABCAA"/>
<path d="M28.4599 18.4819C28.3556 18.6905 28.2512 18.8992 27.9903 19.0556C27.7816 19.2121 27.5729 19.3164 27.3642 19.4207V20.0465C27.7294 19.9422 28.0425 19.7336 28.3034 19.525V22.1848H29.0339V18.4819H28.4599Z" fill="#6ABCAA"/>
<path d="M31.3818 18.8993C31.1731 18.6385 30.9122 18.5342 30.547 18.5342C30.1818 18.5342 29.9209 18.6385 29.7122 18.8993C29.4513 19.2122 29.3469 19.7337 29.3469 20.4117C29.3469 21.1419 29.4513 21.6113 29.66 21.872C29.8687 22.1328 30.1818 22.2893 30.547 22.2893C30.9122 22.2893 31.1731 22.185 31.3818 21.9242C31.6427 21.6113 31.7471 21.0897 31.7471 20.4117C31.7471 19.6816 31.6427 19.2122 31.3818 18.8993ZM30.0774 20.4117C30.0774 19.9945 30.0774 19.6816 30.1296 19.473C30.1818 19.3165 30.2339 19.2122 30.2861 19.16C30.3383 19.1079 30.4426 19.0557 30.4948 19.0557C30.5992 19.0557 30.6514 19.1079 30.7035 19.16C30.7557 19.2122 30.8079 19.3165 30.8601 19.473C30.9122 19.6294 30.9122 19.9423 30.9122 20.3596C30.9122 20.7768 30.9122 21.0897 30.8601 21.2984C30.8079 21.4548 30.7557 21.5591 30.7035 21.6113C30.6514 21.6634 30.547 21.7156 30.4948 21.7156C30.3905 21.7156 30.3383 21.6634 30.2861 21.6113C30.2339 21.5591 30.1818 21.4548 30.1296 21.2984C30.0774 21.1419 30.0774 20.829 30.0774 20.4117Z" fill="#6ABCAA"/>
<path d="M33.9908 18.8993C33.7821 18.6385 33.5212 18.5342 33.156 18.5342C32.7907 18.5342 32.5298 18.6385 32.3211 18.8993C32.0602 19.2122 31.9559 19.7337 31.9559 20.4117C31.9559 21.1419 32.0602 21.6113 32.2689 21.872C32.4777 22.1328 32.7907 22.2893 33.156 22.2893C33.5212 22.2893 33.7821 22.185 33.9908 21.9242C34.2517 21.6113 34.3561 21.0897 34.3561 20.4117C34.3561 19.6816 34.2517 19.2122 33.9908 18.8993ZM32.6864 20.4117C32.6864 19.9945 32.6864 19.6816 32.7385 19.473C32.7907 19.3165 32.8429 19.2122 32.8951 19.16C32.9472 19.1079 33.0516 19.0557 33.1038 19.0557C33.2081 19.0557 33.2603 19.1079 33.3125 19.16C33.3647 19.2122 33.4169 19.3165 33.469 19.473C33.5212 19.6294 33.5212 19.9423 33.5212 20.3596C33.5212 20.7768 33.5212 21.0897 33.469 21.2984C33.4169 21.4548 33.3647 21.5591 33.3125 21.6113C33.2603 21.6634 33.156 21.7156 33.1038 21.7156C32.9994 21.7156 32.9472 21.6634 32.8951 21.6113C32.8429 21.5591 32.7907 21.4548 32.7385 21.2984C32.7385 21.1419 32.6864 20.829 32.6864 20.4117Z" fill="#6ABCAA"/>
<path d="M36.6518 18.8993C36.4431 18.6385 36.1822 18.5342 35.817 18.5342C35.4518 18.5342 35.1909 18.6385 34.9822 18.8993C34.7213 19.2122 34.6169 19.7337 34.6169 20.4117C34.6169 21.1419 34.7213 21.6113 34.93 21.872C35.1387 22.1328 35.4518 22.2893 35.817 22.2893C36.1822 22.2893 36.4431 22.185 36.6518 21.9242C36.9127 21.6113 37.0171 21.0897 37.0171 20.4117C37.0171 19.6816 36.8605 19.2122 36.6518 18.8993ZM35.3474 20.4117C35.3474 19.9945 35.3474 19.6816 35.3996 19.473C35.4518 19.3165 35.5039 19.2122 35.5561 19.16C35.6083 19.1079 35.7127 19.0557 35.7648 19.0557C35.8692 19.0557 35.9214 19.1079 35.9735 19.16C36.0257 19.2122 36.0779 19.3165 36.1301 19.473C36.1822 19.6294 36.1823 19.9423 36.1823 20.3596C36.1823 20.7768 36.1822 21.0897 36.1301 21.2984C36.0779 21.4548 36.0257 21.5591 35.9735 21.6113C35.9214 21.6634 35.817 21.7156 35.7648 21.7156C35.6605 21.7156 35.6083 21.6634 35.5561 21.6113C35.5039 21.5591 35.4518 21.4548 35.3996 21.2984C35.3474 21.1419 35.3474 20.829 35.3474 20.4117Z" fill="#6ABCAA"/>
<path d="M8.28068 11.1971L7.32141 10.2383L6.36214 11.1971L7.32141 12.156L8.28068 11.1971Z" fill="#6ABCAA"/>
<path d="M10.5306 11.1817L9.57135 10.2229L8.61209 11.1817L9.57135 12.1406L10.5306 11.1817Z" fill="#6ABCAA"/>
<path d="M12.7807 11.1663L11.8215 10.2075L10.8622 11.1663L11.8215 12.1252L12.7807 11.1663Z" fill="#6ABCAA"/>
<path d="M5.50181 9.51147L4.71918 10.033L5.50181 13.3187C5.50181 13.3187 6.07574 11.8584 5.50181 9.51147Z" fill="#6ABCAA"/>
<path d="M1.84941 24.8967V10.6066V9.14624H0.910217V25.8355H37.0172V24.8967H35.5563H1.84941Z" fill="#6ABCAA"/>
</svg>
