<svg width="32" height="32" viewBox="0 0 32 32" fill="none" xmlns="http://www.w3.org/2000/svg">
<path d="M29.2706 15.6488L16.7438 3.19165C16.6159 3.06388 16.4242 3 16.2325 3C16.0407 3 15.849 3.06388 15.7212 3.19165L11.8225 7.1524V6.64134C11.8225 6.44969 11.7586 6.25804 11.6308 6.13027C11.5029 6.0025 11.3112 5.87474 11.1195 5.87474H7.34863C6.96516 5.87474 6.6456 6.19415 6.6456 6.57745V12.263L3.19433 15.7127C3.00259 15.9044 2.93868 16.2238 3.0665 16.4793C3.19433 16.7349 3.38606 16.9265 3.70563 16.9265H6.6456V27.595C6.6456 27.9783 6.96516 28.2977 7.34863 28.2977H25.5637C25.7554 28.2977 25.9471 28.2338 26.075 28.106C26.2028 27.9783 26.2667 27.7866 26.2667 27.595V18.3319C26.2667 17.9486 25.9472 17.6292 25.5637 17.6292C25.1802 17.6292 24.8606 17.9486 24.8606 18.3319V26.8923H8.05167V16.1599C8.05167 15.7766 7.73211 15.4572 7.34863 15.4572H5.36735L7.85993 12.9658C7.98776 12.838 8.05167 12.6463 8.05167 12.4547V7.1524H10.4803V8.62171C10.4803 8.87724 10.6721 9.13278 10.9277 9.26054C11.1834 9.38831 11.5029 9.32442 11.6947 9.13278L16.2964 4.53319L27.1615 15.3933L10.2247 15.5211C9.84122 15.5211 9.52166 15.8405 9.52166 16.2238C9.52166 16.6071 9.84122 16.9265 10.2247 16.9265L28.7593 16.7987C29.0149 16.7987 29.2706 16.6071 29.3984 16.3516C29.4623 16.1599 29.4623 15.9044 29.2706 15.6488Z" fill="white"/>
</svg>
