<svg width="32" height="32" viewBox="0 0 32 32" fill="none" xmlns="http://www.w3.org/2000/svg">
<path d="M5.28984 10.0627L4.00375 24.7175C3.93944 25.7459 4.7111 26.5815 5.67567 26.5815H22.5235L24.0025 10.0627H5.28984ZM20.9802 24.9103H6.12579C5.86857 24.9103 5.67567 24.7175 5.67567 24.4604L6.76884 11.8625H22.0734L20.9802 24.9103Z" fill="white"/>
<path d="M18.8582 2.47832C20.3372 3.0568 21.3661 4.47086 21.3661 6.14201V10.0628H22.5236V6.14201C22.5236 3.31391 20.2086 1 17.3792 1C17.2506 1 17.122 1 16.9934 1C17.765 1.38565 18.3438 1.89984 18.8582 2.47832Z" fill="white"/>
<path d="M13.4566 2.99262C12.7492 3.89248 12.3634 4.98518 12.3634 6.14213V10.0629H13.5209V6.14213C13.5209 4.79235 14.2282 3.57111 15.2571 2.86408C14.9999 2.79981 14.7427 2.7998 14.5498 2.7998C14.1639 2.7998 13.7781 2.86407 13.4566 2.99262Z" fill="white"/>
<path d="M10.563 6.14201C10.563 3.95666 12.2992 2.22122 14.4855 2.22122C16.6719 2.22122 18.4081 3.95666 18.4081 6.14201V10.0628H19.5656V6.14201C19.5656 3.31391 17.2507 1 14.4213 1C11.5919 1 9.27689 3.31391 9.27689 6.14201V10.0628H10.4344V6.14201H10.563Z" fill="white"/>
<path d="M26.9606 10.0627H24.9028L24.7742 11.7982H25.8674L27.0249 24.846C27.0249 25.0389 26.9606 25.1031 26.8963 25.1674C26.832 25.2317 26.7677 25.296 26.5748 25.296H23.5525L23.4239 26.5815H26.5748C27.6036 26.5815 28.3753 25.7459 28.2467 24.7175L26.9606 10.0627Z" fill="white"/>
</svg>
