<svg width="32" height="32" viewBox="0 0 32 32" fill="none" xmlns="http://www.w3.org/2000/svg">
<path d="M30.2755 15.5933H20.435C19.952 15.5933 19.5898 15.9553 19.5898 16.4381V20.2397C19.5898 20.7225 19.952 21.0845 20.435 21.0845H30.2755C30.6377 21.0845 30.9999 20.7828 30.9999 20.3604V16.257C30.9396 15.895 30.6377 15.5933 30.2755 15.5933ZM23.5139 18.6708C23.3931 19.0932 23.0309 19.4553 22.6083 19.5759C22.4876 19.5759 22.4272 19.6363 22.3065 19.6363C21.9442 19.6363 21.582 19.4553 21.3405 19.1535C21.099 18.8518 21.0387 18.4898 21.099 18.0674C21.2198 17.6449 21.582 17.2829 22.0046 17.1622C22.1253 17.1622 22.1857 17.1019 22.3065 17.1019C22.6687 17.1019 23.0309 17.2829 23.2724 17.5846C23.5139 17.8863 23.5743 18.3087 23.5139 18.6708Z" fill="white"/>
<path d="M18.4428 21.0244V15.7141C18.4428 15.0504 18.9861 14.5073 19.6502 14.5073H29.7926V11.0073C29.7926 9.80047 28.8266 8.83497 27.6796 8.83497H24.8421H4.13476C3.59142 8.83497 3.16882 8.41256 3.16882 7.86947C3.16882 7.32638 3.59142 6.90397 4.13476 6.90397H24.8421C25.3855 6.90397 25.8081 7.32638 25.8081 7.86947H26.774C26.774 6.84363 25.9288 5.93848 24.8421 5.93848H4.13476C3.10845 5.93848 2.20288 6.78329 2.20288 7.86947V25.6105C2.20288 26.8174 3.16882 27.7829 4.37624 27.7829H27.6796C28.887 27.7829 29.853 26.8174 29.853 25.6105V22.1106H19.6502C18.9861 22.1709 18.4428 21.6882 18.4428 21.0244ZM28.8266 25.6708C28.8266 26.3346 28.2833 26.8777 27.6192 26.8777H4.31588C3.65179 26.8777 3.10845 26.3346 3.10845 25.6708V9.61944C3.41031 9.80047 3.71216 9.86081 4.07439 9.86081H24.7818H27.6192C28.2833 9.86081 28.8266 10.4039 28.8266 11.0677V13.6021H19.6502C18.4428 13.6021 17.4768 14.5676 17.4768 15.7745V21.0847C17.4768 22.2916 18.4428 23.2571 19.6502 23.2571H28.8266V25.6708Z" fill="white"/>
</svg>
