<svg width="25" height="18" viewBox="0 0 25 18" fill="none" xmlns="http://www.w3.org/2000/svg">
<path fill-rule="evenodd" clip-rule="evenodd" d="M1.83312 0H22.8349C23.6632 0 24.334 0.672216 24.334 1.50054C24.334 2.32885 23.6632 2.99967 22.8349 2.99967H1.83312C1.0048 2.99967 0.333984 2.32885 0.333984 1.50054C0.333984 0.672216 1.0048 0 1.83312 0V0ZM1.83312 7.4998H22.8349C23.6632 7.4998 24.334 8.17201 24.334 9.00033C24.334 9.82865 23.6632 10.5009 22.8349 10.5009H1.83312C1.0048 10.5009 0.333984 9.82865 0.333984 9.00033C0.333984 8.17201 1.0048 7.4998 1.83312 7.4998V7.4998ZM1.83312 15.001H22.8349C23.6632 15.001 24.334 15.6718 24.334 16.5002C24.334 17.3285 23.6632 18.0007 22.8349 18.0007H1.83312C1.0048 18.0007 0.333984 17.3285 0.333984 16.5002C0.333984 15.6718 1.0048 15.001 1.83312 15.001V15.001Z" fill="#314546"/>
</svg>
