<svg width="16" height="16" viewBox="0 0 16 16" fill="none" xmlns="http://www.w3.org/2000/svg">
<path d="M16 7.99893C16 3.58274 12.4187 0 7.99929 0C3.58116 0 0 3.58274 0 7.99893C0 12.4185 3.58133 16 7.99929 16C12.4187 16 16 12.4185 16 7.99893V7.99893ZM1.3952 8.88856H4.44444C4.93541 8.88856 5.33333 8.49062 5.33333 7.99893C5.33333 7.50864 4.93541 7.1107 4.44444 7.1107H1.39449C1.79033 4.13972 4.14027 1.78886 7.11111 1.39382V4.4432C7.11111 4.93558 7.50903 5.33352 8 5.33352C8.49097 5.33352 8.88889 4.93558 8.88889 4.4432V1.39311C11.8597 1.78897 14.2105 4.13972 14.6062 7.10999H11.5556C11.0653 7.10999 10.6667 7.50792 10.6667 7.99822C10.6667 8.48991 11.0653 8.88784 11.5556 8.88784H14.6062C14.2097 11.8581 11.8597 14.2097 8.88889 14.6054V11.5546C8.88889 11.0664 8.49097 10.6671 8 10.6671C7.50903 10.6671 7.11111 11.0664 7.11111 11.5546V14.6061C4.14098 14.2096 1.79093 11.8588 1.3952 8.88856Z" fill="#6ABCAA"/>
</svg>
