<svg width="32" height="32" viewBox="0 0 32 32" fill="none" xmlns="http://www.w3.org/2000/svg">
<path d="M29.5896 11.8874V11.7998L27.1556 5.31134C27.073 5.09235 26.8478 4.96846 26.6263 5.00725C26.6038 5.0035 6.0899 5.01101 6.04089 5.02727C5.79561 4.94093 5.52531 5.06607 5.43272 5.31134L3.00001 11.7998V11.8874C3.00001 13.1576 3.64697 14.2801 4.62806 14.9421C4.61179 14.9896 4.60178 15.0384 4.60178 15.091V27.4247H3.48053C3.21524 27.4247 3 27.6399 3 27.9052C3 28.1705 3.21524 28.3857 3.48053 28.3857H29.109C29.3743 28.3857 29.5895 28.1705 29.5895 27.9052C29.5895 27.6399 29.3743 27.4247 29.109 27.4247H27.9877V15.091C27.9877 15.0384 27.9777 14.9896 27.9627 14.9421C28.9425 14.2801 29.5895 13.1576 29.5895 11.8874H29.5896ZM28.6273 11.9713C28.5822 13.4341 27.3796 14.6104 25.9055 14.6104C24.4038 14.6104 23.1825 13.3891 23.1825 11.8874C23.1825 11.8774 23.18 11.8674 23.1787 11.8574C23.1775 11.8474 23.18 11.8374 23.1775 11.8286L22.4454 5.96098H26.3736L28.6273 11.9713ZM11.1128 5.96075H15.8143V11.8873C15.8143 13.389 14.593 14.6103 13.0913 14.6103C11.5971 14.6103 10.3808 13.4003 10.3695 11.9086L11.1128 5.96075ZM16.7754 5.96075H21.4769L22.2202 11.9085C22.209 13.4001 20.9926 14.6102 19.4985 14.6102C17.9968 14.6102 16.7755 13.3889 16.7755 11.8872L16.7754 5.96075ZM3.96245 11.9713L6.21622 5.96075H10.1444L9.41109 11.8271C9.40984 11.8371 9.41109 11.8471 9.40984 11.8571C9.40984 11.8671 9.40734 11.8772 9.40734 11.8872C9.40734 13.3888 8.18598 14.6102 6.68432 14.6102C5.21017 14.6102 4.00759 13.4339 3.96254 11.971L3.96245 11.9713ZM20.7798 27.4246V17.1732H25.425V27.4246H20.7798ZM27.0268 27.4246H26.3861V17.013C26.3861 16.5713 26.0269 16.2121 25.5852 16.2121H20.6197C20.1779 16.2121 19.8188 16.5713 19.8188 17.013V27.4246H5.56295V15.3949C5.9171 15.5088 6.2925 15.5713 6.68419 15.5713C8.05698 15.5713 9.25328 14.8155 9.88775 13.6993C10.5222 14.8155 11.7185 15.5713 13.0913 15.5713C14.4641 15.5713 15.6604 14.8155 16.2949 13.6993C16.9293 14.8155 18.1256 15.5713 19.4984 15.5713C20.8712 15.5713 22.0675 14.8155 22.702 13.6993C23.3364 14.8155 24.5327 15.5713 25.9055 15.5713C26.2972 15.5713 26.6726 15.5088 27.0268 15.3949V27.4246Z" fill="#314546"/>
<path d="M17.5761 17.0132H7.80528C7.36354 17.0132 7.00439 17.3723 7.00439 17.8141V24.3814C7.00439 24.8231 7.36354 25.1822 7.80528 25.1822H17.5761C18.0179 25.1822 18.377 24.8231 18.377 24.3814V17.8141C18.377 17.3723 18.0179 17.0132 17.5761 17.0132ZM17.4159 24.2212H7.96546V17.9742H17.4159V24.2212Z" fill="#314546"/>
<path d="M22.7029 21.8185H21.902C21.6367 21.8185 21.4215 22.0337 21.4215 22.299C21.4215 22.5643 21.6367 22.7795 21.902 22.7795H22.7029C22.9682 22.7795 23.1835 22.5643 23.1835 22.299C23.1835 22.0337 22.9682 21.8185 22.7029 21.8185Z" fill="#314546"/>
<path d="M16.0694 20.1227C16.132 20.1852 16.2133 20.2165 16.2959 20.2165C16.3785 20.2165 16.4598 20.1852 16.5224 20.1227C16.6475 19.9975 16.6475 19.7948 16.5224 19.6696L15.7215 18.8688C15.5964 18.7436 15.3936 18.7436 15.2685 18.8688C15.1433 18.9939 15.1433 19.1966 15.2685 19.3218L16.0694 20.1227Z" fill="#314546"/>
<path d="M16.0691 21.7244C16.1317 21.787 16.213 21.8183 16.2956 21.8183C16.3782 21.8183 16.4595 21.787 16.5221 21.7244C16.6473 21.5993 16.6473 21.3966 16.5221 21.2714L14.1194 18.8688C13.9943 18.7436 13.7916 18.7436 13.6664 18.8688C13.5413 18.9939 13.5413 19.1966 13.6664 19.3218L16.0691 21.7244Z" fill="#314546"/>
</svg>
