<svg width="32" height="32" viewBox="0 0 32 32" fill="none" xmlns="http://www.w3.org/2000/svg">
<path d="M28.0231 3.00016H18.3647C17.6373 3.00016 17.0477 3.58973 17.0477 4.31717V11.9342L12.5143 13.1936C11.5687 13.458 10.8052 14.1567 10.4595 15.0755L8.62498 19.9669C8.44698 20.4402 8.11259 20.8373 7.67529 21.0925L3.87149 23.3119C3.33233 23.6277 3.00103 24.2039 3 24.8285V28.0233C3 28.7507 3.58957 29.3403 4.31701 29.3403H10.9956C11.3125 29.3424 11.6191 29.2282 11.8568 29.0193C13.3384 27.7053 16.8182 25.9551 18.2443 25.2637C18.803 24.9931 19.2979 24.6062 19.695 24.1278L20.4739 23.1945H28.023C28.7505 23.1945 29.34 22.605 29.34 21.8775V4.31701C29.34 3.58957 28.7505 3 28.023 3L28.0231 3.00016ZM11.2744 28.3618C11.1973 28.4287 11.0985 28.4637 10.9956 28.4627H4.31704C4.07421 28.4627 3.87768 28.2662 3.87768 28.0233V24.8285C3.87871 24.5168 4.04437 24.2297 4.31393 24.0723L6.97271 22.5217L12.1399 27.6868C11.8394 27.8967 11.5513 28.122 11.2745 28.3617L11.2744 28.3618ZM19.0211 23.5661C18.7042 23.9478 18.3081 24.2575 17.8605 24.4736C16.1525 25.2874 14.4908 26.1939 12.8817 27.189L7.75665 22.0619L8.11883 21.8509C8.72897 21.4939 9.19817 20.9373 9.44717 20.2757L11.2817 15.3832C11.5297 14.7278 12.074 14.2288 12.7489 14.0395L17.0477 12.8449V18.6882L16.313 19.358C16.1967 19.464 16.1463 19.6235 16.1803 19.7768C16.2132 19.9301 16.3264 20.0536 16.4756 20.1009C16.6258 20.1482 16.7894 20.1122 16.9046 20.0073L21.4412 15.869C22.4208 15.0911 23.8108 15.1055 24.7727 15.9039C24.9775 16.0747 25.0094 16.3772 24.8437 16.5861L19.0211 23.5661ZM25.3356 15.2278C25.1124 15.0447 24.8675 14.8893 24.6072 14.7658C25.3058 14.1763 25.5661 13.2163 25.2616 12.3551C24.957 11.4939 24.1503 10.9115 23.2377 10.893C22.324 10.8735 21.4947 11.4229 21.1541 12.2707C20.8146 13.1186 21.0358 14.0888 21.7098 14.7062C21.4083 14.8327 21.1264 15.0004 20.8712 15.2042L19.6818 16.2866V7.34645C20.544 7.16948 21.2169 6.49553 21.3939 5.63434H24.9941C25.171 6.49553 25.845 7.16947 26.7062 7.34645V18.8487C25.845 19.0257 25.171 19.6986 24.9941 20.5608H22.6718L25.5208 17.1448C25.991 16.5614 25.9077 15.7105 25.3356 15.2279L25.3356 15.2278ZM23.1945 14.414C22.467 14.414 21.8775 13.8244 21.8775 13.0969C21.8775 12.3695 22.467 11.7799 23.1945 11.7799C23.9219 11.7799 24.5115 12.3695 24.5115 13.0969C24.5115 13.8244 23.9219 14.414 23.1945 14.414ZM28.4625 21.8777C28.4625 22.1195 28.266 22.3161 28.0232 22.3161H21.2066L21.9392 21.4384H25.3892C25.632 21.4384 25.8286 21.2419 25.8286 20.999C25.8286 20.2716 26.4181 19.682 27.1456 19.682C27.3874 19.682 27.5839 19.4855 27.5839 19.2437V6.95125C27.5839 6.70842 27.3874 6.51189 27.1456 6.51189C26.4181 6.51189 25.8286 5.92232 25.8286 5.19488C25.8286 4.95308 25.632 4.75655 25.3892 4.75655H20.9988C20.757 4.75655 20.5605 4.95307 20.5605 5.19488C20.5605 5.92232 19.9709 6.51189 19.2435 6.51189C19.0006 6.51189 18.8041 6.70841 18.8041 6.95125V17.087L17.9265 17.8875V4.31699C17.9265 4.07416 18.123 3.87763 18.3648 3.87763H28.0232C28.266 3.87763 28.4626 4.07415 28.4626 4.31699L28.4625 21.8777Z" fill="#314546"/>
<path d="M23.1941 6.95142C22.4666 6.95142 21.8771 7.54099 21.8771 8.26843C21.8771 8.99587 22.4666 9.58544 23.1941 9.58544C23.9215 9.58544 24.5111 8.99587 24.5111 8.26843C24.5111 7.54099 23.9215 6.95142 23.1941 6.95142ZM23.1941 8.70778C22.9513 8.70778 22.7547 8.51126 22.7547 8.26843C22.7547 8.02559 22.9513 7.82907 23.1941 7.82907C23.4359 7.82907 23.6324 8.02559 23.6324 8.26843C23.6324 8.51126 23.4359 8.70778 23.1941 8.70778Z" fill="#314546"/>
</svg>
