<svg width="32" height="32" viewBox="0 0 32 32" fill="none" xmlns="http://www.w3.org/2000/svg">
<path d="M13.5675 20.7968L15.5233 21.5857L12.6976 23.9197L13.5675 20.7968ZM26.684 10.059L22.4959 20.8541C22.1955 21.4423 22.0242 21.9535 21.8347 22.1472C21.7394 22.2476 21.6622 22.2954 21.4679 22.3292C21.2761 22.3596 20.9479 22.3479 20.4677 22.2277L14.3807 19.7676L26.684 10.059ZM24.2588 8.53015L8.97309 17.5769L3.64743 15.3327C3.45801 15.2242 3.36027 15.1133 3.32527 15.0375C3.28787 14.9581 3.28546 14.9114 3.32166 14.8181C3.39525 14.6313 3.76687 14.2474 4.65248 14.0186C4.65731 14.0186 4.66093 14.0175 4.66696 14.0175L23.8136 8.65382L24.2588 8.53015ZM28.6989 6H28.6724C28.5939 6.00584 28.5167 6.02217 28.4455 6.05368L23.4491 7.45296L4.31451 12.811C4.3133 12.811 4.3133 12.8121 4.31089 12.8121L4.30003 12.8133C3.17794 13.1062 2.39247 13.6314 2.10049 14.3806C1.95449 14.7587 1.96777 15.1894 2.1391 15.5547C2.31163 15.92 2.61931 16.2117 3.0054 16.4253C3.02712 16.4381 3.04884 16.4475 3.07176 16.4568L8.49626 18.7442L9.7402 22.4482C9.84397 22.7866 10.2168 22.978 10.5667 22.8695C10.9142 22.7587 11.1012 22.3957 10.9769 22.0619L9.80053 18.5563L26.0577 8.93646L12.7191 19.4585C12.7155 19.462 12.7131 19.4632 12.7107 19.4667C12.5623 19.5776 12.4718 19.7468 12.4633 19.9277L10.8924 25.5552C10.7271 26.1504 11.4595 26.5927 11.9445 26.1935L11.9626 26.1795C11.9662 26.176 11.9698 26.1725 11.9735 26.169L16.8636 22.1289L20.0308 23.4079C20.0574 23.4196 20.0839 23.4289 20.1117 23.4359C20.721 23.5935 21.2289 23.639 21.6826 23.5655C22.1362 23.4919 22.5236 23.2749 22.7854 23.003C23.3102 22.4615 23.4453 21.8313 23.6734 21.3913C23.683 21.3703 23.6915 21.3516 23.6987 21.3294L29.2838 6.93393V6.93043C29.3719 6.77521 29.3864 6.59082 29.3249 6.42394C29.3031 6.36558 29.273 6.3084 29.2332 6.25822C29.2259 6.24888 29.2187 6.24071 29.2114 6.23254C29.2054 6.22437 29.1994 6.21737 29.1921 6.21037C29.1849 6.2022 29.1765 6.19286 29.168 6.18586C29.1608 6.17886 29.1535 6.17186 29.1475 6.16485C29.139 6.15785 29.1294 6.15085 29.1185 6.14385C29.0003 6.04815 28.8519 5.99797 28.6986 6.0003L28.6989 6Z" fill="#314546"/>
</svg>
