<svg width="32" height="32" viewBox="0 0 32 32" fill="none" xmlns="http://www.w3.org/2000/svg">
<path d="M7.70856 3C6.77196 3 6 3.77196 6 4.70856V26.9199C6 27.8565 6.77196 28.6284 7.70856 28.6284H24.2247C25.1613 28.6284 25.9332 27.8565 25.9332 26.9199V4.70856C25.9332 3.77196 25.1613 3 24.2247 3H7.70856ZM7.70856 4.13904H24.2247C24.5506 4.13904 24.7942 4.38376 24.7942 4.70856V26.9199C24.7942 27.2447 24.5506 27.4894 24.2247 27.4894H7.70856C7.38265 27.4894 7.13904 27.2447 7.13904 26.9199V4.70856C7.13904 4.38376 7.38265 4.13904 7.70856 4.13904ZM9.41712 7.55617C9.11901 7.5595 8.85427 7.86875 8.8476 8.12569V9.83425C8.8476 10.1324 9.11901 10.4038 9.41712 10.4038H11.1257C11.4238 10.4038 11.6952 10.1324 11.6952 9.83425V8.12569C11.6952 7.82757 11.4238 7.55617 11.1257 7.55617H9.41712ZM14.2581 8.41045C13.9432 8.41045 13.6885 8.66517 13.6885 8.97997C13.6885 9.29476 13.9433 9.54949 14.2581 9.54949H22.5161C22.8309 9.54949 23.0856 9.29476 23.0856 8.97997C23.0856 8.66517 22.8309 8.41045 22.5161 8.41045H14.2581ZM9.98665 8.69521H10.5562V9.26473H9.98665V8.69521ZM9.41712 12.1123C9.11901 12.1157 8.85427 12.4249 8.8476 12.6819V14.3904C8.8476 14.6885 9.11901 14.9599 9.41712 14.9599H11.1257C11.4238 14.9599 11.6952 14.6885 11.6952 14.3904V12.6819C11.6952 12.3837 11.4238 12.1123 11.1257 12.1123H9.41712ZM14.2581 12.9666C13.9432 12.9666 13.6885 13.2213 13.6885 13.5361C13.6885 13.8509 13.9433 14.1057 14.2581 14.1057H22.5161C22.8309 14.1057 23.0856 13.8509 23.0856 13.5361C23.0856 13.2213 22.8309 12.9666 22.5161 12.9666H14.2581ZM9.98665 13.2514H10.5562V13.8209H9.98665V13.2514ZM9.41712 16.6685C9.11901 16.6718 8.85427 16.9811 8.8476 17.238V18.9466C8.8476 19.2447 9.11901 19.5161 9.41712 19.5161H11.1257C11.4238 19.5161 11.6952 19.2447 11.6952 18.9466V17.238C11.6952 16.9399 11.4238 16.6685 11.1257 16.6685H9.41712ZM14.2581 17.5228C13.9432 17.5228 13.6885 17.7775 13.6885 18.0923C13.6885 18.4071 13.9433 18.6618 14.2581 18.6618H22.5161C22.8309 18.6618 23.0856 18.4071 23.0856 18.0923C23.0856 17.7775 22.8309 17.5228 22.5161 17.5228H14.2581ZM9.98665 17.8075H10.5562V18.3771H9.98665V17.8075ZM9.41712 21.2247C9.11901 21.228 8.85427 21.5372 8.8476 21.7942V23.5027C8.8476 23.8009 9.11901 24.0723 9.41712 24.0723H11.1257C11.4238 24.0723 11.6952 23.8009 11.6952 23.5027V21.7942C11.6952 21.4961 11.4238 21.2247 11.1257 21.2247H9.41712ZM14.2581 22.0789C13.9432 22.0789 13.6885 22.3337 13.6885 22.6485C13.6885 22.9633 13.9433 23.218 14.2581 23.218H22.5161C22.8309 23.218 23.0856 22.9633 23.0856 22.6485C23.0856 22.3337 22.8309 22.0789 22.5161 22.0789H14.2581ZM9.98665 22.3637H10.5562V22.9332H9.98665V22.3637Z" fill="#314546"/>
</svg>
