<svg width="46" height="35" viewBox="0 0 46 35" fill="none" xmlns="http://www.w3.org/2000/svg">
<path d="M3.5 0C1.58698 0 0 1.58697 0 3.5V31.5C0 33.413 1.58698 35 3.5 35H42.5C44.413 35 46 33.413 46 31.5V3.5C46 1.58697 44.413 0 42.5 0H3.5ZM3.5 3H42.5C42.8029 3 43 3.19708 43 3.5V23.375L35.4375 17.3282C34.9427 16.9279 34.1842 16.8946 33.6562 17.25L26.5625 22.125L16.9375 14.3282C16.6305 14.0782 16.2217 13.9573 15.8281 14.0001C15.5817 14.0299 15.3431 14.1221 15.1406 14.2657L3 22.6406V3.5C3 3.19708 3.19708 3 3.5 3ZM26.5 7.00006C24.0325 7.00006 22 9.03255 22 11.5001C22 13.9676 24.0325 16.0001 26.5 16.0001C28.9675 16.0001 31 13.9676 31 11.5001C31 9.03255 28.9675 7.00006 26.5 7.00006ZM26.5 10.0001C27.3462 10.0001 28 10.6539 28 11.5001C28 12.3463 27.3462 13.0001 26.5 13.0001C25.6538 13.0001 25 12.3463 25 11.5001C25 10.6539 25.6538 10.0001 26.5 10.0001ZM15.9375 17.375L25.5625 25.1563C26.0573 25.5565 26.8158 25.5898 27.3438 25.2344L34.4219 20.3594L43 27.2188V31.5C43 31.8029 42.8029 32 42.5 32H3.5C3.19708 32 3 31.8029 3 31.5V26.2969L15.9375 17.375Z" fill="#6ABCAA"/>
</svg>
