<svg width="32" height="32" viewBox="0 0 32 32" fill="none" xmlns="http://www.w3.org/2000/svg">
<path d="M16.4808 17.0887C16.5106 17.1261 16.5305 17.1744 16.5348 17.2242C16.5305 17.1977 16.5305 17.1713 16.5348 17.1448L16.4808 17.0887ZM16.4808 17.0887C16.5106 17.1261 16.5305 17.1744 16.5348 17.2242C16.5305 17.1977 16.5305 17.1713 16.5348 17.1448L16.4808 17.0887ZM16.4297 17.0249L16.451 17.056C16.4595 17.07 16.4695 17.0794 16.4808 17.0887L16.4297 17.0249ZM16.4808 17.0887C16.5106 17.1261 16.5305 17.1744 16.5348 17.2242C16.5305 17.1977 16.5305 17.1713 16.5348 17.1448L16.4808 17.0887ZM16.4482 18.8626L16.5348 18.8143L16.4482 18.8626ZM16.4482 17.0248L16.4695 17.056C16.4766 17.07 16.4865 17.0794 16.4979 17.0887L16.4482 17.0248ZM14.7185 14.9473V15.2307C14.7185 15.1373 14.7398 15.0454 14.7809 14.9628L14.7185 14.9473ZM16.4809 17.0887C16.5106 17.1261 16.5305 17.1744 16.5348 17.2242C16.5305 17.1977 16.5305 17.1713 16.5348 17.1448L16.4809 17.0887Z" fill="#314546"/>
<path d="M17.5947 23.0823H17.6232V22.806C17.6232 22.8981 17.6146 22.9918 17.5947 23.0823Z" fill="#314546"/>
<path d="M26.3431 6.76327C26.3445 6.75081 26.3445 6.73835 26.3431 6.72745C26.1941 5.13266 23.3576 4.26672 20.5311 4.26672C17.7046 4.26672 14.8822 5.1124 14.7191 6.72745C14.7177 6.73835 14.7177 6.75081 14.7191 6.76327C14.7177 6.79442 14.7177 6.82712 14.7191 6.85827V14.9475H14.7815C14.7404 15.03 14.7191 15.1219 14.7191 15.2153V14.9319C13.7627 14.7232 12.7879 14.622 11.8131 14.6329C9.00213 14.6329 6.16416 15.4785 6.00106 17.0936C5.99965 17.1045 5.99965 17.1169 6.00106 17.1294C5.99965 17.1606 5.99965 17.1933 6.00106 17.2244V25.5971C6.00106 27.2993 8.90707 28.1886 11.8131 28.1886C14.5417 28.1886 17.3014 27.3912 17.5996 25.8727C18.5645 26.0923 19.5465 26.1998 20.5312 26.1951C23.3421 26.1951 26.1801 25.3494 26.3432 23.7344C26.3475 23.6908 26.3475 23.6472 26.3432 23.6036V6.85824C26.3446 6.8271 26.3446 6.79439 26.3432 6.76324L26.3431 6.76327ZM11.8131 15.8289C12.9255 15.8133 14.0351 15.969 15.1079 16.2914L15.2852 16.3553H15.3335C15.7379 16.4737 16.111 16.6964 16.4232 17.0047L16.4743 17.0686L16.5367 17.1278L16.5353 17.1293C16.5311 17.1558 16.5311 17.1823 16.5353 17.2088C16.5353 17.3645 16.2118 17.7305 15.3434 18.0575L15.1079 18.1416C14.0352 18.4703 12.927 18.6307 11.8131 18.6198C8.69709 18.6198 7.09083 17.6433 7.09083 17.2243C7.09083 16.8054 8.69709 15.8289 11.8131 15.8289L11.8131 15.8289ZM16.5353 25.597C16.5353 25.9957 14.9291 26.9924 11.8131 26.9924C8.69707 26.9924 7.09082 26.0159 7.09082 25.597V24.4009C7.17028 24.4492 7.25399 24.4959 7.34197 24.541L7.53778 24.636C7.77333 24.7451 8.01738 24.8369 8.26429 24.9117L8.46436 24.9756C8.6999 25.0472 8.95104 25.1064 9.19086 25.1624C9.3512 25.1936 9.51438 25.2263 9.68183 25.2497L9.94007 25.2902H9.93866C10.5601 25.368 11.1873 25.4038 11.8131 25.3976C13.1299 25.4225 14.4424 25.2154 15.6995 24.7871L15.9351 24.6921C16.0883 24.6283 16.2288 24.5613 16.3565 24.4928L16.4473 24.4414L16.5339 24.39L16.5353 25.597ZM16.5353 22.8061C16.5353 22.9618 16.2118 23.3278 15.3434 23.6549C14.2012 24.0411 13.0093 24.2249 11.8131 24.2015C8.69707 24.2015 7.09082 23.225 7.09082 22.8061V21.61C7.17028 21.6583 7.25399 21.705 7.34197 21.7502L7.53778 21.8452C7.77333 21.9542 8.01738 22.0461 8.26429 22.1208L8.46436 22.1847C8.6999 22.2563 8.95104 22.3155 9.19086 22.3716C9.3512 22.4027 9.51438 22.4354 9.68183 22.4588L9.94007 22.4993H9.93866C10.5601 22.5771 11.1873 22.613 11.8131 22.6067C13.0277 22.6223 14.2381 22.4494 15.4087 22.0959C15.508 22.0679 15.6045 22.0352 15.6996 21.9962L15.9351 21.9012C16.0884 21.8374 16.2288 21.7704 16.3566 21.7019L16.4474 21.6505L16.5339 21.5991V22.3171L16.5354 22.3155C16.5297 22.356 16.5297 22.3981 16.5354 22.4386C16.5439 22.4806 16.5566 22.5211 16.5723 22.5585C16.5425 22.6379 16.5311 22.722 16.5354 22.8061L16.5353 22.8061ZM16.5353 20.0152C16.5353 20.1709 16.2118 20.5369 15.3434 20.864L15.1079 20.9481C14.0352 21.2705 12.9255 21.4262 11.8131 21.4107C8.69709 21.4107 7.09084 20.4342 7.09084 20.0152V18.8191C7.1703 18.8674 7.25402 18.9141 7.34199 18.9593L7.53781 19.0543C7.77477 19.1617 8.01741 19.2536 8.26431 19.3299L8.46438 19.3938C8.69992 19.4623 8.95106 19.5246 9.19088 19.5807C9.35122 19.6118 9.5144 19.6445 9.68185 19.6679L9.9401 19.7084H9.93868C10.5602 19.7863 11.1874 19.8221 11.8131 19.8159C13.0278 19.8314 14.2381 19.6586 15.4087 19.305C15.508 19.277 15.6045 19.2443 15.6996 19.2054L15.9352 19.1104C16.0912 19.0465 16.2289 18.9796 16.3566 18.911L16.4474 18.8596L16.534 18.8082V19.5262L16.5354 19.5246C16.5297 19.5651 16.5297 19.6072 16.5354 19.6477C16.5439 19.6897 16.5567 19.7302 16.5723 19.7676C16.5425 19.847 16.5311 19.9311 16.5354 20.0152L16.5353 20.0152ZM25.2533 23.6035C25.2533 24.0022 23.6471 24.9989 20.5311 24.9989C19.5534 25.0083 18.5786 24.893 17.6251 24.6516V23.0895H17.5967C17.6166 22.9961 17.6265 22.9011 17.6251 22.8061V23.0895C18.5814 23.3029 19.5548 23.4088 20.5311 23.4041C22.3473 23.4041 24.1423 23.0568 25.2533 22.3871V23.6035ZM25.2533 20.8126C25.2533 21.2113 23.6471 22.208 20.5311 22.208C19.5534 22.2174 18.5786 22.1021 17.6251 21.8607V20.2986H17.5967C17.6166 20.2052 17.6265 20.1102 17.6251 20.0152V20.2986C18.5814 20.512 19.5548 20.6179 20.5311 20.6132C22.3473 20.6132 24.1423 20.2659 25.2533 19.5962V20.8126ZM25.2533 18.0217C25.2533 18.4204 23.6471 19.4171 20.5311 19.4171C19.5534 19.4265 18.5786 19.3112 17.6251 19.0698V17.5077H17.5967C17.6166 17.4143 17.6265 17.3193 17.6251 17.2243V17.5077C18.5814 17.7242 19.5548 17.8301 20.5311 17.8223C22.3473 17.8223 24.1423 17.475 25.2533 16.8053V18.0217ZM25.2533 15.2308C25.2533 15.6295 23.6471 16.6263 20.5311 16.6263C19.3959 16.6434 18.2636 16.4814 17.171 16.1435C16.778 15.7557 16.314 15.466 15.8088 15.2947C15.8102 15.276 15.8102 15.2573 15.8088 15.2386V14.0425C16.9199 14.6842 18.7148 15.0315 20.5311 15.0315C22.3473 15.0315 24.1423 14.6842 25.2533 14.0145V15.2308ZM25.2533 12.4399C25.2533 12.8386 23.6471 13.8354 20.5311 13.8354C17.4151 13.8354 15.8088 12.8589 15.8088 12.4399V11.2438C16.9199 11.8933 18.7148 12.2406 20.5311 12.2406C22.3473 12.2406 24.1423 11.8933 25.2533 11.2236V12.4399ZM25.2533 9.64905C25.2533 10.0477 23.6471 11.0445 20.5311 11.0445C17.4151 11.0445 15.8088 10.068 15.8088 9.64905V8.45295C16.9199 9.10239 18.7148 9.4497 20.5311 9.4497C22.3473 9.4497 24.1423 9.10239 25.2533 8.4327V9.64905ZM20.5311 8.2536C17.4151 8.2536 15.8088 7.27711 15.8088 6.85816C15.8088 6.43921 17.4151 5.46272 20.5311 5.46272C23.6471 5.46272 25.2533 6.43921 25.2533 6.85816C25.2533 7.27711 23.6471 8.2536 20.5311 8.2536Z" fill="#314546"/>
<path d="M16.534 22.4383C16.5284 22.3979 16.5284 22.3558 16.534 22.3153V22.8059C16.534 22.7202 16.5511 22.6361 16.5851 22.5583C16.5653 22.5209 16.5482 22.4804 16.534 22.4384V22.4383ZM16.534 22.4383C16.5284 22.3979 16.5284 22.3558 16.534 22.3153V22.8059C16.534 22.7202 16.5511 22.6361 16.5851 22.5583C16.5653 22.5209 16.5482 22.4804 16.534 22.4384V22.4383ZM17.5798 20.2891H17.6082L17.6096 20.015C17.6153 20.1069 17.6096 20.1988 17.5954 20.2907L17.5798 20.2891ZM16.534 22.4383C16.5284 22.3979 16.5284 22.3558 16.534 22.3153V22.8059C16.534 22.7202 16.5511 22.6361 16.5851 22.5583C16.5653 22.5209 16.5482 22.4804 16.534 22.4384V22.4383ZM16.4319 24.4318L16.5184 24.3836L16.4319 24.4318ZM16.534 22.4383C16.5284 22.3979 16.5284 22.3558 16.534 22.3153V22.8059C16.534 22.7202 16.5511 22.6361 16.5851 22.5583C16.5653 22.5209 16.5482 22.4804 16.534 22.4384V22.4383Z" fill="#314546"/>
<path d="M16.534 19.6474C16.5284 19.607 16.5284 19.5649 16.534 19.5244V20.015C16.534 19.9294 16.5511 19.8453 16.5851 19.7674C16.5653 19.73 16.5482 19.6895 16.534 19.6475V19.6474ZM16.534 19.6474C16.5284 19.607 16.5284 19.5649 16.534 19.5244V20.015C16.534 19.9294 16.5511 19.8453 16.5851 19.7674C16.5653 19.73 16.5482 19.6895 16.534 19.6475V19.6474ZM17.5798 17.4982H17.6082L17.6096 17.2241C17.6153 17.316 17.6096 17.4079 17.5954 17.4998L17.5798 17.4982ZM16.534 19.6474C16.5284 19.607 16.5284 19.5649 16.534 19.5244V20.015C16.534 19.9294 16.5511 19.8453 16.5851 19.7674C16.5653 19.73 16.5482 19.6895 16.534 19.6475V19.6474ZM16.4319 21.6409L16.5184 21.5927L16.4319 21.6409ZM16.534 19.6474C16.5284 19.607 16.5284 19.5649 16.534 19.5244V20.015C16.534 19.9294 16.5511 19.8453 16.5851 19.7674C16.5653 19.73 16.5482 19.6895 16.534 19.6475V19.6474Z" fill="#314546"/>
<path d="M15.807 15.2946C15.8084 15.2759 15.8084 15.2571 15.807 15.2384C15.8042 15.2571 15.8042 15.2759 15.807 15.2946Z" fill="#314546"/>
<path d="M17.6232 17.2241V17.5082H17.5947C17.6146 17.4145 17.6246 17.3193 17.6232 17.2241Z" fill="#314546"/>
<path d="M14.7811 14.9629C14.7398 15.0456 14.7185 15.1377 14.7185 15.2313V14.9473L14.7811 14.9629Z" fill="#314546"/>
<path d="M17.6232 22.806V23.0901H17.5947C17.6146 22.9964 17.6246 22.9012 17.6232 22.806Z" fill="#314546"/>
<path d="M17.6232 20.015V20.2991H17.5947C17.6146 20.2054 17.6246 20.1102 17.6232 20.015Z" fill="#314546"/>
</svg>
