<?xml version="1.0" standalone="no"?>
<!DOCTYPE svg PUBLIC "-//W3C//DTD SVG 1.1//EN" "http://www.w3.org/Graphics/SVG/1.1/DTD/svg11.dtd" >
<svg>
<metadata>
Created by FontForge 20090622 at Tue Apr 28 11:36:21 2020
 By deploy user
Copyright (c) 1989 Adobe Systems Incorporated. All Rights Reserved.Cochin is a trademark of Linotype AG and/or its subsidiaries.
</metadata>
<defs>
<font id="CochinLT" horiz-adv-x="500" >
  <font-face 
    font-family="Cochin LT"
    font-weight="500"
    font-stretch="normal"
    units-per-em="1000"
    panose-1="2 0 6 3 2 0 0 2 0 3"
    ascent="800"
    descent="-200"
    x-height="372"
    cap-height="654"
    bbox="-167 -250 1019 897"
    underline-thickness="50"
    underline-position="-75"
    unicode-range="U+0020-U+FB02"
  />
<missing-glyph horiz-adv-x="250" 
 />
    <glyph glyph-name=".notdef" horiz-adv-x="250" 
 />
    <glyph glyph-name=".null" horiz-adv-x="0" 
 />
    <glyph glyph-name="nonmarkingreturn" horiz-adv-x="250" 
 />
    <glyph glyph-name="space" unicode=" " horiz-adv-x="250" 
 />
    <glyph glyph-name="space" unicode="&#xa0;" horiz-adv-x="250" 
 />
    <glyph glyph-name="Acircumflex" unicode="&#xc2;" horiz-adv-x="704" 
d="M318 864h69l113 -172h-41l-106 110l-107 -110h-39zM326 573l-98 -254h188zM218 289l-66 -181q-3 -8 -5.5 -14t-2.5 -13q0 -18 10.5 -31t25.5 -21.5t31 -13.5t27 -7v-12q-30 2 -60 3t-61 1q-30 0 -58.5 -1t-60.5 -3v12q31 7 51.5 21.5t34.5 34.5t24 44l21 50l173 425
l5.5 13t2.5 11t-3.5 15t-8.5 18q26 5 45 13l42 17l208 -572q14 -39 39 -61.5t74 -28.5v-12q-40 2 -79 3t-80 1q-27 0 -47 -0.5t-36 -1t-30.5 -1t-31.5 -1.5v12q42 5 70.5 21.5t28.5 44.5q0 8 -3.5 16t-5.5 15l-65 184h-209z" />
    <glyph glyph-name="Adieresis" unicode="&#xc4;" horiz-adv-x="704" 
d="M445 812q23 0 38 -15t15 -38t-15 -38t-38 -15t-38 15t-15 38t15 38t38 15zM260 812q23 0 38 -15t15 -38t-15 -38t-38 -15t-38 15t-15 38t15 38t38 15zM326 573l-98 -254h188zM218 289l-66 -181q-3 -8 -5.5 -14t-2.5 -13q0 -18 10.5 -31t25.5 -21.5t31 -13.5t27 -7v-12
q-30 2 -60 3t-61 1q-30 0 -58.5 -1t-60.5 -3v12q31 7 51.5 21.5t34.5 34.5t24 44l21 50l173 425l5.5 13t2.5 11t-3.5 15t-8.5 18q26 5 45 13l42 17l208 -572q14 -39 39 -61.5t74 -28.5v-12q-40 2 -79 3t-80 1q-27 0 -47 -0.5t-36 -1t-30.5 -1t-31.5 -1.5v12q42 5 70.5 21.5
t28.5 44.5q0 8 -3.5 16t-5.5 15l-65 184h-209z" />
    <glyph glyph-name="Agrave" unicode="&#xc0;" horiz-adv-x="704" 
d="M384 692l-140 96q-12 8 -20.5 20.5t-8.5 23.5q0 32 41 32q14 0 26.5 -11.5t29.5 -30.5l116 -130h-44zM326 573l-98 -254h188zM218 289l-66 -181q-3 -8 -5.5 -14t-2.5 -13q0 -18 10.5 -31t25.5 -21.5t31 -13.5t27 -7v-12q-30 2 -60 3t-61 1q-30 0 -58.5 -1t-60.5 -3v12
q31 7 51.5 21.5t34.5 34.5t24 44l21 50l173 425l5.5 13t2.5 11t-3.5 15t-8.5 18q26 5 45 13l42 17l208 -572q14 -39 39 -61.5t74 -28.5v-12q-40 2 -79 3t-80 1q-27 0 -47 -0.5t-36 -1t-30.5 -1t-31.5 -1.5v12q42 5 70.5 21.5t28.5 44.5q0 8 -3.5 16t-5.5 15l-65 184h-209z
" />
    <glyph glyph-name="Aring" unicode="&#xc5;" horiz-adv-x="704" 
d="M291 795q0 -26 18 -44t44 -18t44 18t18 44t-18 44t-44 18t-44 -18t-18 -44zM326 573l-98 -254h188zM251 795q0 43 29.5 72.5t72.5 29.5t72.5 -29.5t29.5 -72.5t-29.5 -72.5t-72.5 -29.5t-72.5 29.5t-29.5 72.5zM218 289l-66 -181q-3 -8 -5.5 -14t-2.5 -13q0 -18 10.5 -31
t25.5 -21.5t31 -13.5t27 -7v-12q-30 2 -60 3t-61 1q-30 0 -58.5 -1t-60.5 -3v12q31 7 51.5 21.5t34.5 34.5t24 44l21 50l173 425l5.5 13t2.5 11t-3.5 15t-8.5 18q26 5 45 13l42 17l208 -572q14 -39 39 -61.5t74 -28.5v-12q-40 2 -79 3t-80 1q-27 0 -47 -0.5t-36 -1t-30.5 -1
t-31.5 -1.5v12q42 5 70.5 21.5t28.5 44.5q0 8 -3.5 16t-5.5 15l-65 184h-209z" />
    <glyph glyph-name="Atilde" unicode="&#xc3;" horiz-adv-x="704" 
d="M508 830q-5 -21 -12.5 -41t-19 -36t-28.5 -26t-42 -10q-17 0 -34.5 7.5t-34.5 16.5l-32 16.5t-29 7.5q-20 0 -33 -16t-16 -33h-29q4 21 11 41t18.5 35t29 24t41.5 9q16 0 31.5 -7.5l32.5 -16.5q16 -9 32 -16.5t32 -7.5q14 0 23 7t14.5 16t8.5 18t5 12h31zM326 573
l-98 -254h188zM218 289l-66 -181q-3 -8 -5.5 -14t-2.5 -13q0 -18 10.5 -31t25.5 -21.5t31 -13.5t27 -7v-12q-30 2 -60 3t-61 1q-30 0 -58.5 -1t-60.5 -3v12q31 7 51.5 21.5t34.5 34.5t24 44l21 50l173 425l5.5 13t2.5 11t-3.5 15t-8.5 18q26 5 45 13l42 17l208 -572
q14 -39 39 -61.5t74 -28.5v-12q-40 2 -79 3t-80 1q-27 0 -47 -0.5t-36 -1t-30.5 -1t-31.5 -1.5v12q42 5 70.5 21.5t28.5 44.5q0 8 -3.5 16t-5.5 15l-65 184h-209z" />
    <glyph glyph-name="B" unicode="B" horiz-adv-x="685" 
d="M229 366q27 -14 55 -19t57 -5q64 0 106.5 35.5t42.5 102.5q0 34 -14 61t-37 46.5t-53.5 30t-63.5 10.5q-24 0 -47 -2t-46 -10v-250zM229 54q4 -7 18.5 -13.5t34 -11t41.5 -7t42 -2.5q81 0 126.5 42.5t45.5 123.5q0 44 -27 80.5t-62 60.5q-24 -4 -48 -7.5t-49 -3.5
q-31 0 -62 3.5t-60 14.5v-280zM139 492q0 42 -2.5 69.5t-13 44.5t-30.5 25t-56 11v12q31 -2 61 -3t61 -1q40 0 80 4t86 4q42 0 88.5 -9t85.5 -30.5t65 -57.5t26 -90q0 -23 -7.5 -43.5t-21 -38t-31.5 -30.5t-39 -20v-2q69 -22 107.5 -67.5t38.5 -120.5q0 -46 -20 -76.5
t-53 -49t-75 -26t-86 -7.5q-68 0 -135.5 5t-135.5 5q-23 0 -46.5 -1t-46.5 -3v12q35 3 55 11t30 25t12.5 44.5t2.5 69.5v334z" />
    <glyph glyph-name="C" unicode="C" horiz-adv-x="704" 
d="M624 426q-14 45 -35 83t-50.5 66t-68 43.5t-86.5 15.5q-62 0 -105 -24t-70.5 -65t-40 -95t-12.5 -114t16 -114.5t47.5 -95.5t79 -65.5t109.5 -24.5q92 0 160 47t120 128l25 -20q-34 -51 -68 -90t-74 -66t-87 -41t-106 -14q-67 0 -127 25.5t-105 71t-71.5 109t-26.5 139.5
t26.5 139.5t71.5 109t105 71t127 25.5q37 0 69.5 -4.5t61.5 -10t56.5 -10t54.5 -5.5q0 -21 2 -49t4.5 -57.5t5.5 -58t6 -49.5h-14z" />
    <glyph glyph-name="Ccedilla" unicode="&#xc7;" horiz-adv-x="704" 
d="M296 -169q27 -15 61 -15q10 0 20.5 1.5t19.5 6t14.5 12t5.5 19.5q0 20 -10 33t-30 13q-9 0 -19 -1.5t-18 -6.5l-13 6l34 82q-64 3 -121 29.5t-99.5 71.5t-67.5 107t-25 136q0 76 26.5 139.5t71.5 109t105 71t127 25.5q37 0 69.5 -4.5t61.5 -10t56.5 -10t54.5 -5.5
q0 -21 2 -49t4.5 -57.5t5.5 -58t6 -49.5h-14q-14 45 -35 83t-50.5 66t-68 43.5t-86.5 15.5q-62 0 -105 -24t-70.5 -65t-40 -95t-12.5 -114t16 -114.5t47.5 -95.5t79 -65.5t109.5 -24.5q92 0 160 47t120 128l25 -20q-33 -49 -66 -87t-70.5 -65t-81.5 -41.5t-99 -16.5l-19 -48
q8 2 16 3t16 1q32 0 57 -16.5t25 -52.5q0 -26 -11 -42.5t-28 -27t-39 -14.5t-43 -4q-46 0 -88 18z" />
    <glyph glyph-name="D" unicode="D" horiz-adv-x="833" 
d="M228 76q32 -30 73.5 -42t83.5 -12q154 0 224.5 79t70.5 229q0 65 -23.5 121.5t-65 98.5t-99 66t-125.5 24q-36 0 -68.5 -7t-64.5 -21q-4 -52 -5 -104t-1 -105v-327zM39 8q33 3 52.5 10.5t30 18t13.5 23t3 24.5v462q0 22 -2.5 38.5t-12.5 28.5t-30 19t-54 10v12
q26 -2 52 -3t52 -1q35 0 67 2t63 5t61 5t62 2q81 0 152 -25t124.5 -71.5t84.5 -112.5t31 -148q0 -83 -30 -141.5t-80 -96t-114.5 -54.5t-134.5 -17q-53 0 -92 0.5t-68 0.5t-52 0.5t-44 0.5q-34 0 -67 -1t-67 -3v12z" />
    <glyph glyph-name="E" unicode="E" horiz-adv-x="685" 
d="M230 39q17 -4 50 -8.5t61 -4.5q60 0 107.5 10t87 32t74.5 56t71 82l11 -9l-91 -201q-17 2 -35 3t-35 1h-376q-29 0 -58 -1t-58 -3v12q36 3 56 11t30 25t12.5 44.5t2.5 69.5v334q0 42 -2.5 69.5t-12.5 44.5t-31 25t-57 11v12q34 -1 64.5 -1.5l63 -1t69 -1t82.5 -0.5
q70 0 140 1t142 3q-2 -23 -2 -43v-40q0 -22 2 -44.5t4 -49.5l-13 -4q-13 48 -34.5 78.5t-50 47.5t-62.5 23t-72 6q-70 0 -140 -6v-250q20 0 38.5 1t38.5 1q69 0 109.5 27.5t49.5 100.5h12q0 -36 -1 -72t-1 -71q0 -36 1 -72t1 -72h-12q-9 42 -21.5 68.5t-33 40.5t-49 19
t-68.5 5h-64v-309z" />
    <glyph glyph-name="Eacute" unicode="&#xc9;" horiz-adv-x="685" 
d="M412 822q17 19 29.5 30.5t26.5 11.5q41 0 41 -32q0 -11 -8.5 -23.5t-20.5 -20.5l-140 -96h-44zM230 39q17 -4 50 -8.5t61 -4.5q60 0 107.5 10t87 32t74.5 56t71 82l11 -9l-91 -201q-17 2 -35 3t-35 1h-376q-29 0 -58 -1t-58 -3v12q36 3 56 11t30 25t12.5 44.5t2.5 69.5
v334q0 42 -2.5 69.5t-12.5 44.5t-31 25t-57 11v12q34 -1 64.5 -1.5l63 -1t69 -1t82.5 -0.5q70 0 140 1t142 3q-2 -23 -2 -43v-40q0 -22 2 -44.5t4 -49.5l-13 -4q-13 48 -34.5 78.5t-50 47.5t-62.5 23t-72 6q-70 0 -140 -6v-250q20 0 38.5 1t38.5 1q69 0 109.5 27.5
t49.5 100.5h12q0 -36 -1 -72t-1 -71q0 -36 1 -72t1 -72h-12q-9 42 -21.5 68.5t-33 40.5t-49 19t-68.5 5h-64v-309z" />
    <glyph glyph-name="Ecircumflex" unicode="&#xca;" horiz-adv-x="685" 
d="M325 864h69l113 -172h-41l-106 110l-107 -110h-39zM230 39q17 -4 50 -8.5t61 -4.5q60 0 107.5 10t87 32t74.5 56t71 82l11 -9l-91 -201q-17 2 -35 3t-35 1h-376q-29 0 -58 -1t-58 -3v12q36 3 56 11t30 25t12.5 44.5t2.5 69.5v334q0 42 -2.5 69.5t-12.5 44.5t-31 25
t-57 11v12q34 -1 64.5 -1.5l63 -1t69 -1t82.5 -0.5q70 0 140 1t142 3q-2 -23 -2 -43v-40q0 -22 2 -44.5t4 -49.5l-13 -4q-13 48 -34.5 78.5t-50 47.5t-62.5 23t-72 6q-70 0 -140 -6v-250q20 0 38.5 1t38.5 1q69 0 109.5 27.5t49.5 100.5h12q0 -36 -1 -72t-1 -71q0 -36 1 -72
t1 -72h-12q-9 42 -21.5 68.5t-33 40.5t-49 19t-68.5 5h-64v-309z" />
    <glyph glyph-name="Edieresis" unicode="&#xcb;" horiz-adv-x="685" 
d="M267 812q23 0 38 -15t15 -38t-15 -38t-38 -15t-38 15t-15 38t15 38t38 15zM452 812q23 0 38 -15t15 -38t-15 -38t-38 -15t-38 15t-15 38t15 38t38 15zM230 39q17 -4 50 -8.5t61 -4.5q60 0 107.5 10t87 32t74.5 56t71 82l11 -9l-91 -201q-17 2 -35 3t-35 1h-376
q-29 0 -58 -1t-58 -3v12q36 3 56 11t30 25t12.5 44.5t2.5 69.5v334q0 42 -2.5 69.5t-12.5 44.5t-31 25t-57 11v12q34 -1 64.5 -1.5l63 -1t69 -1t82.5 -0.5q70 0 140 1t142 3q-2 -23 -2 -43v-40q0 -22 2 -44.5t4 -49.5l-13 -4q-13 48 -34.5 78.5t-50 47.5t-62.5 23t-72 6
q-70 0 -140 -6v-250q20 0 38.5 1t38.5 1q69 0 109.5 27.5t49.5 100.5h12q0 -36 -1 -72t-1 -71q0 -36 1 -72t1 -72h-12q-9 42 -21.5 68.5t-33 40.5t-49 19t-68.5 5h-64v-309z" />
    <glyph glyph-name="Egrave" unicode="&#xc8;" horiz-adv-x="685" 
d="M391 692l-140 96q-12 8 -20.5 20.5t-8.5 23.5q0 32 41 32q14 0 26.5 -11.5t29.5 -30.5l116 -130h-44zM230 39q17 -4 50 -8.5t61 -4.5q60 0 107.5 10t87 32t74.5 56t71 82l11 -9l-91 -201q-17 2 -35 3t-35 1h-376q-29 0 -58 -1t-58 -3v12q36 3 56 11t30 25t12.5 44.5
t2.5 69.5v334q0 42 -2.5 69.5t-12.5 44.5t-31 25t-57 11v12q34 -1 64.5 -1.5l63 -1t69 -1t82.5 -0.5q70 0 140 1t142 3q-2 -23 -2 -43v-40q0 -22 2 -44.5t4 -49.5l-13 -4q-13 48 -34.5 78.5t-50 47.5t-62.5 23t-72 6q-70 0 -140 -6v-250q20 0 38.5 1t38.5 1q69 0 109.5 27.5
t49.5 100.5h12q0 -36 -1 -72t-1 -71q0 -36 1 -72t1 -72h-12q-9 42 -21.5 68.5t-33 40.5t-49 19t-68.5 5h-64v-309z" />
    <glyph glyph-name="F" unicode="F" horiz-adv-x="630" 
d="M232 141q0 -40 4 -62.5t16.5 -35.5t36.5 -20t65 -15v-12q-43 2 -85 3t-85 1q-37 0 -73.5 -1t-73.5 -3v12q36 3 56.5 11t31.5 25t14 44.5t3 69.5v334q0 42 -3 69.5t-14 44.5t-31.5 25t-56.5 11v12q14 -1 37 -1.5l47.5 -1l47 -1t36.5 -0.5h217q25 0 47 0.5l42.5 1l40.5 1
t42 1.5q-2 -21 -3 -41.5t-1 -40.5q0 -26 1 -51.5t3 -51.5h-16q-16 57 -41.5 88.5t-60 46t-78 17.5t-96.5 3q-17 0 -34 -1t-36 -1v-248h80q60 0 93 25t53 82h12q-3 -68 -3 -136q0 -36 0.5 -66.5t2.5 -65.5h-12q-10 37 -21 61.5t-26.5 39.5t-37.5 22t-54 10q-18 2 -40 2h-47
v-207z" />
    <glyph glyph-name="G" unicode="G" horiz-adv-x="778" 
d="M644 440q-19 38 -40.5 74t-49.5 64t-64.5 45t-85.5 17q-57 0 -101.5 -28.5t-76 -73.5t-48 -101t-16.5 -111q0 -63 16.5 -119.5t48 -98.5t76 -67t101.5 -25q47 0 93.5 9.5t86.5 38.5v129q0 68 -103 71v12q19 -1 36 -1.5l34 -1l34.5 -1t37.5 -0.5q37 0 74 1t74 3v-12
q-21 -2 -39 -6t-30.5 -13t-20 -24t-7.5 -39v-140q-69 -23 -136.5 -42.5t-130.5 -19.5q-67 0 -131 22.5t-114.5 66.5t-81 108t-30.5 148q0 73 30.5 136.5t81 109.5t114.5 72.5t131 26.5q41 0 74 -3.5t60 -9t49 -11.5l42 -11q0 -17 3 -43l6.5 -54.5t7.5 -55t7 -42.5h-12z" />
    <glyph glyph-name="H" unicode="H" horiz-adv-x="833" 
d="M602 492q0 42 -2.5 69.5t-13 44.5t-31.5 25t-57 11v12q41 -2 81.5 -3t81.5 -1q33 0 66 1t65 3v-12q-35 -3 -55 -11t-30 -25t-12.5 -44.5t-2.5 -69.5v-334q0 -42 2.5 -69.5t13 -44.5t31.5 -25t58 -11v-12q-38 2 -76 3t-76 1q-37 0 -73 -1t-72 -3v12q36 3 56 11t30.5 25
t13 44.5t2.5 69.5v180h-371v-180q0 -42 2.5 -69.5t13 -44.5t31.5 -25t58 -11v-12q-38 2 -76 3t-76 1q-37 0 -73 -1t-72 -3v12q36 3 56 11t30.5 25t13 44.5t2.5 69.5v334q0 42 -2.5 69.5t-13 44.5t-31.5 25t-57 11v12q41 -2 81.5 -3t81.5 -1q33 0 66 1t65 3v-12
q-35 -3 -55 -11t-30 -25t-12.5 -44.5t-2.5 -69.5v-122h371v122z" />
    <glyph glyph-name="I" unicode="I" horiz-adv-x="389" 
d="M47 8q36 3 56 11t30.5 25t13 44.5t2.5 69.5v334q0 42 -2.5 69.5t-13 44.5t-31.5 25t-57 11v12q41 -2 81.5 -3t81.5 -1q33 0 66 1t65 3v-12q-35 -3 -55 -11t-30 -25t-12.5 -44.5t-2.5 -69.5v-334q0 -42 2.5 -69.5t13 -44.5t31.5 -25t58 -11v-12q-38 2 -76 3t-76 1
q-37 0 -73 -1t-72 -3v12z" />
    <glyph glyph-name="Iacute" unicode="&#xcd;" horiz-adv-x="389" 
d="M247 822q17 19 29.5 30.5t26.5 11.5q41 0 41 -32q0 -11 -8.5 -23.5t-20.5 -20.5l-140 -96h-44zM47 8q36 3 56 11t30.5 25t13 44.5t2.5 69.5v334q0 42 -2.5 69.5t-13 44.5t-31.5 25t-57 11v12q41 -2 81.5 -3t81.5 -1q33 0 66 1t65 3v-12q-35 -3 -55 -11t-30 -25
t-12.5 -44.5t-2.5 -69.5v-334q0 -42 2.5 -69.5t13 -44.5t31.5 -25t58 -11v-12q-38 2 -76 3t-76 1q-37 0 -73 -1t-72 -3v12z" />
    <glyph glyph-name="Icircumflex" unicode="&#xce;" horiz-adv-x="389" 
d="M160 864h69l113 -172h-41l-106 110l-107 -110h-39zM47 8q36 3 56 11t30.5 25t13 44.5t2.5 69.5v334q0 42 -2.5 69.5t-13 44.5t-31.5 25t-57 11v12q41 -2 81.5 -3t81.5 -1q33 0 66 1t65 3v-12q-35 -3 -55 -11t-30 -25t-12.5 -44.5t-2.5 -69.5v-334q0 -42 2.5 -69.5
t13 -44.5t31.5 -25t58 -11v-12q-38 2 -76 3t-76 1q-37 0 -73 -1t-72 -3v12z" />
    <glyph glyph-name="Idieresis" unicode="&#xcf;" horiz-adv-x="389" 
d="M102 812q23 0 38 -15t15 -38t-15 -38t-38 -15t-38 15t-15 38t15 38t38 15zM287 812q23 0 38 -15t15 -38t-15 -38t-38 -15t-38 15t-15 38t15 38t38 15zM47 8q36 3 56 11t30.5 25t13 44.5t2.5 69.5v334q0 42 -2.5 69.5t-13 44.5t-31.5 25t-57 11v12q41 -2 81.5 -3t81.5 -1
q33 0 66 1t65 3v-12q-35 -3 -55 -11t-30 -25t-12.5 -44.5t-2.5 -69.5v-334q0 -42 2.5 -69.5t13 -44.5t31.5 -25t58 -11v-12q-38 2 -76 3t-76 1q-37 0 -73 -1t-72 -3v12z" />
    <glyph glyph-name="Igrave" unicode="&#xcc;" horiz-adv-x="389" 
d="M226 692l-140 96q-12 8 -20.5 20.5t-8.5 23.5q0 32 41 32q14 0 26.5 -11.5t29.5 -30.5l116 -130h-44zM47 8q36 3 56 11t30.5 25t13 44.5t2.5 69.5v334q0 42 -2.5 69.5t-13 44.5t-31.5 25t-57 11v12q41 -2 81.5 -3t81.5 -1q33 0 66 1t65 3v-12q-35 -3 -55 -11t-30 -25
t-12.5 -44.5t-2.5 -69.5v-334q0 -42 2.5 -69.5t13 -44.5t31.5 -25t58 -11v-12q-38 2 -76 3t-76 1q-37 0 -73 -1t-72 -3v12z" />
    <glyph glyph-name="J" unicode="J" horiz-adv-x="630" 
d="M276 654q37 -2 72.5 -3t72.5 -1q42 0 82 1t82 3v-12q-26 -3 -43.5 -8.5t-28.5 -15t-16 -25.5t-5 -41v-380q0 -48 -22 -84t-58 -60t-82 -36t-94 -12q-25 0 -61 8t-69 26t-56 48t-23 74q0 27 16 51t51 24q24 0 42.5 -16.5t18.5 -34.5q0 -14 -3.5 -33t-13.5 -30
q4 -26 15 -42.5t26.5 -26t34 -13t37.5 -3.5q50 0 80 18t45.5 45.5t20.5 61t5 65.5v332q0 33 -7.5 52.5t-23 31t-39.5 16.5t-56 8v12z" />
    <glyph glyph-name="K" unicode="K" horiz-adv-x="741" 
d="M228 158q0 -42 2.5 -69.5t13 -44.5t31.5 -25t58 -11v-12q-38 2 -76 3t-76 1q-37 0 -73 -1t-72 -3v12q36 3 56 11t30.5 25t13 44.5t2.5 69.5v334q0 42 -2.5 69.5t-13 44.5t-31.5 25t-57 11v12q41 -2 81.5 -3t81.5 -1q33 0 66 1t65 3v-12q-35 -3 -55 -11t-30 -25
t-12.5 -44.5t-2.5 -69.5v-169l152 124q21 17 40 35.5t33.5 37.5t23 36t8.5 31q0 15 -6.5 25.5t-17 17t-23.5 9.5t-26 3v12q38 -2 74.5 -3t74.5 -1q40 0 79.5 1t79.5 3v-12q-26 -3 -48.5 -10t-46 -20.5t-50.5 -34t-61 -50.5l-124 -106l202 -297q15 -21 32.5 -41.5t38 -36.5
t43.5 -26.5t49 -11.5v-12q-43 2 -86 3t-86 1q-39 0 -77.5 -1t-77.5 -3v12q36 2 62.5 15t26.5 46q0 14 -11 30l-31 45l-151 222l-96 -75v-133z" />
    <glyph glyph-name="L" unicode="L" horiz-adv-x="648" 
d="M361 642q-48 -7 -75 -15.5t-39.5 -22.5t-15.5 -34.5t-3 -50.5v-480q27 -5 52.5 -9t51.5 -4q59 0 103 12t79 36t64.5 60.5t59.5 85.5h15l-77 -224q-36 2 -72.5 3t-72.5 1h-294q-25 0 -50 -1t-50 -3v12q33 3 52.5 10t30.5 17.5t14.5 25.5t3.5 35v396q0 42 -2.5 69.5
t-12.5 44.5t-30 25t-56 11v12q39 -2 77.5 -3t77.5 -1q42 0 84.5 1t84.5 3v-12z" />
    <glyph glyph-name="M" unicode="M" horiz-adv-x="963" 
d="M609 654q36 -2 72 -3t72 -1q32 0 63.5 1t63.5 3v-12q-21 -3 -38.5 -8.5t-30.5 -15.5t-20 -25.5t-7 -39.5q0 -17 3.5 -48.5t9.5 -71l13.5 -85l15.5 -90.5t16.5 -86l15.5 -72q4 -20 10 -35t17.5 -26.5t31.5 -19t53 -11.5v-12q-40 2 -79.5 3t-79.5 1q-38 0 -74.5 -1
t-74.5 -3v12q21 3 40 7.5t33.5 13.5t22.5 24.5t8 41.5q0 12 -1 32t-6 46l-69 403h-2q-28 -72 -59 -142.5l-61 -142l-58.5 -144t-51.5 -147.5h-2q-47 154 -108.5 298.5t-129.5 287.5h-2q-8 -55 -16 -122t-14.5 -130.5t-10.5 -116t-4 -78.5q0 -33 4.5 -57t17.5 -40t35.5 -24.5
t58.5 -9.5v-12q-42 2 -82 3t-82 1q-31 0 -61.5 -1t-61.5 -3v12q21 1 41.5 7.5t37 17t28.5 25.5t15 34q6 35 11 73.5l10 76.5l48 356q-21 17 -50 28t-58 16v12q43 -2 85.5 -3t85.5 -1q31 0 61.5 1t61.5 3v-12q-19 -5 -35 -16.5t-16 -36.5q0 -17 5.5 -33t12.5 -33l141 -346
q51 106 97 212.5t84 218.5q-11 13 -26 21t-31 13v12z" />
    <glyph glyph-name="N" unicode="N" horiz-adv-x="815" 
d="M16 654q35 -2 66.5 -3t73.5 -1q22 0 43 1t43 3q13 -18 43 -54.5l68.5 -83.5l82.5 -100.5l85 -103.5l75.5 -93.5t54.5 -71.5h2q0 30 0.5 59.5t0.5 59.5v116q0 64 -4.5 111.5t-18 79.5t-38 49t-64.5 20v12q35 -2 70.5 -3t70.5 -1q32 0 65 1t65 3v-12q-32 -5 -53 -13.5
t-33.5 -23t-18 -36t-5.5 -51.5v-530h-37q-55 86 -116.5 167.5t-122 154l-117 135l-101.5 111.5q-1 -26 -1.5 -51t-0.5 -51v-175q0 -89 3.5 -140.5t17 -79t40 -37t73.5 -14.5v-12q-50 2 -99 3t-99 1q-29 0 -57 -1t-57 -3v12q34 4 59.5 9t42 15.5t25 30t9.5 54.5l12 459
q-32 26 -70 41t-78 25v12z" />
    <glyph glyph-name="Ntilde" unicode="&#xd1;" horiz-adv-x="815" 
d="M569 830q-5 -21 -12.5 -41t-19 -36t-28.5 -26t-42 -10q-17 0 -34.5 7.5t-34.5 16.5l-32 16.5t-29 7.5q-20 0 -33 -16t-16 -33h-29q4 21 11 41t18.5 35t29 24t41.5 9q16 0 31.5 -7.5l32.5 -16.5q16 -9 32 -16.5t32 -7.5q14 0 23 7t14.5 16t8.5 18t5 12h31zM16 654
q35 -2 66.5 -3t73.5 -1q22 0 43 1t43 3q13 -18 43 -54.5l68.5 -83.5l82.5 -100.5l85 -103.5l75.5 -93.5t54.5 -71.5h2q0 30 0.5 59.5t0.5 59.5v116q0 64 -4.5 111.5t-18 79.5t-38 49t-64.5 20v12q35 -2 70.5 -3t70.5 -1q32 0 65 1t65 3v-12q-32 -5 -53 -13.5t-33.5 -23
t-18 -36t-5.5 -51.5v-530h-37q-55 86 -116.5 167.5t-122 154l-117 135l-101.5 111.5q-1 -26 -1.5 -51t-0.5 -51v-175q0 -89 3.5 -140.5t17 -79t40 -37t73.5 -14.5v-12q-50 2 -99 3t-99 1q-29 0 -57 -1t-57 -3v12q34 4 59.5 9t42 15.5t25 30t9.5 54.5l12 459q-32 26 -70 41
t-78 25v12z" />
    <glyph glyph-name="O" unicode="O" horiz-adv-x="833" 
d="M153 325q0 -61 18 -117t52 -98.5t83 -68t111 -25.5t111 25.5t83 68t52 98.5t18 117t-18 117t-52 98.5t-83 68t-111 25.5t-111 -25.5t-83 -68t-52 -98.5t-18 -117zM47 325q0 81 29.5 145t79.5 108.5t117.5 68t143.5 23.5t143.5 -23.5t117.5 -68t79.5 -108.5t29.5 -145
t-29.5 -145t-79.5 -108.5t-117.5 -68t-143.5 -23.5t-143.5 23.5t-117.5 68t-79.5 108.5t-29.5 145z" />
    <glyph glyph-name="OE" unicode="&#x152;" horiz-adv-x="1000" 
d="M520 502q0 41 -5.5 66.5t-17 39.5t-29 19t-40.5 5q-73 0 -125.5 -27t-86.5 -71.5t-50.5 -101.5t-16.5 -117q0 -66 16.5 -120.5t49.5 -93.5t82 -61t114 -22q40 0 62.5 7.5t33 24t12.5 43t1 65.5v344zM928 480q-17 51 -40.5 80.5t-55 44.5t-72 19t-89.5 4h-61v-254
q24 0 45.5 1.5t41.5 3.5q44 5 72 32.5t39 89.5h12q-2 -34 -2 -68v-68v-75t2 -75h-13q-8 35 -16.5 58.5t-20.5 38.5t-29 22.5t-41 9.5q-17 2 -42 3t-48 1v-312q23 -4 42 -5t38 -1q104 0 177 48.5t128 133.5l12 -7q-29 -55 -52.5 -108.5t-40.5 -100.5q-30 2 -60.5 3t-60.5 1
h-251q-38 0 -77 -2t-82 -2q-68 0 -129.5 18t-108.5 54.5t-74.5 93t-27.5 133.5q0 84 31.5 151.5t84.5 114.5t122 72t144 25q41 0 74.5 -4t75.5 -4h109q64 0 127 1t129 3v-88q0 -17 1.5 -38.5t1.5 -44.5z" />
    <glyph glyph-name="Oacute" unicode="&#xd3;" horiz-adv-x="833" 
d="M469 822q17 19 29.5 30.5t26.5 11.5q41 0 41 -32q0 -11 -8.5 -23.5t-20.5 -20.5l-140 -96h-44zM153 325q0 -61 18 -117t52 -98.5t83 -68t111 -25.5t111 25.5t83 68t52 98.5t18 117t-18 117t-52 98.5t-83 68t-111 25.5t-111 -25.5t-83 -68t-52 -98.5t-18 -117zM47 325
q0 81 29.5 145t79.5 108.5t117.5 68t143.5 23.5t143.5 -23.5t117.5 -68t79.5 -108.5t29.5 -145t-29.5 -145t-79.5 -108.5t-117.5 -68t-143.5 -23.5t-143.5 23.5t-117.5 68t-79.5 108.5t-29.5 145z" />
    <glyph glyph-name="Ocircumflex" unicode="&#xd4;" horiz-adv-x="833" 
d="M382 864h69l113 -172h-41l-106 110l-107 -110h-39zM153 325q0 -61 18 -117t52 -98.5t83 -68t111 -25.5t111 25.5t83 68t52 98.5t18 117t-18 117t-52 98.5t-83 68t-111 25.5t-111 -25.5t-83 -68t-52 -98.5t-18 -117zM47 325q0 81 29.5 145t79.5 108.5t117.5 68t143.5 23.5
t143.5 -23.5t117.5 -68t79.5 -108.5t29.5 -145t-29.5 -145t-79.5 -108.5t-117.5 -68t-143.5 -23.5t-143.5 23.5t-117.5 68t-79.5 108.5t-29.5 145z" />
    <glyph glyph-name="Odieresis" unicode="&#xd6;" horiz-adv-x="833" 
d="M509 812q23 0 38 -15t15 -38t-15 -38t-38 -15t-38 15t-15 38t15 38t38 15zM324 812q23 0 38 -15t15 -38t-15 -38t-38 -15t-38 15t-15 38t15 38t38 15zM153 325q0 -61 18 -117t52 -98.5t83 -68t111 -25.5t111 25.5t83 68t52 98.5t18 117t-18 117t-52 98.5t-83 68
t-111 25.5t-111 -25.5t-83 -68t-52 -98.5t-18 -117zM47 325q0 81 29.5 145t79.5 108.5t117.5 68t143.5 23.5t143.5 -23.5t117.5 -68t79.5 -108.5t29.5 -145t-29.5 -145t-79.5 -108.5t-117.5 -68t-143.5 -23.5t-143.5 23.5t-117.5 68t-79.5 108.5t-29.5 145z" />
    <glyph glyph-name="Ograve" unicode="&#xd2;" horiz-adv-x="833" 
d="M448 692l-140 96q-12 8 -20.5 20.5t-8.5 23.5q0 32 41 32q14 0 26.5 -11.5t29.5 -30.5l116 -130h-44zM153 325q0 -61 18 -117t52 -98.5t83 -68t111 -25.5t111 25.5t83 68t52 98.5t18 117t-18 117t-52 98.5t-83 68t-111 25.5t-111 -25.5t-83 -68t-52 -98.5t-18 -117z
M47 325q0 81 29.5 145t79.5 108.5t117.5 68t143.5 23.5t143.5 -23.5t117.5 -68t79.5 -108.5t29.5 -145t-29.5 -145t-79.5 -108.5t-117.5 -68t-143.5 -23.5t-143.5 23.5t-117.5 68t-79.5 108.5t-29.5 145z" />
    <glyph glyph-name="Oslash" unicode="&#xd8;" horiz-adv-x="833" 
d="M588 566q-33 32 -75.5 50t-95.5 18q-62 0 -111 -25.5t-83 -68t-52 -98.5t-18 -117q0 -60 17 -114.5t50 -97.5zM243 87q32 -33 76 -52t98 -19q62 0 111 25.5t83 68t52 98.5t18 117q0 62 -18 118t-52 98zM119 -65l-26 22l82 101q-59 44 -93.5 111t-34.5 156q0 81 29.5 145
t79.5 108.5t117.5 68t143.5 23.5q118 0 211 -55l76 94l26 -22l-74 -91q60 -45 95.5 -113t35.5 -158q0 -81 -29.5 -145t-79.5 -108.5t-117.5 -68t-143.5 -23.5q-122 0 -214 58z" />
    <glyph glyph-name="Otilde" unicode="&#xd5;" horiz-adv-x="833" 
d="M572 830q-5 -21 -12.5 -41t-19 -36t-28.5 -26t-42 -10q-17 0 -34.5 7.5t-34.5 16.5l-32 16.5t-29 7.5q-20 0 -33 -16t-16 -33h-29q4 21 11 41t18.5 35t29 24t41.5 9q16 0 31.5 -7.5l32.5 -16.5q16 -9 32 -16.5t32 -7.5q14 0 23 7t14.5 16t8.5 18t5 12h31zM153 325
q0 -61 18 -117t52 -98.5t83 -68t111 -25.5t111 25.5t83 68t52 98.5t18 117t-18 117t-52 98.5t-83 68t-111 25.5t-111 -25.5t-83 -68t-52 -98.5t-18 -117zM47 325q0 81 29.5 145t79.5 108.5t117.5 68t143.5 23.5t143.5 -23.5t117.5 -68t79.5 -108.5t29.5 -145t-29.5 -145
t-79.5 -108.5t-117.5 -68t-143.5 -23.5t-143.5 23.5t-117.5 68t-79.5 108.5t-29.5 145z" />
    <glyph glyph-name="P" unicode="P" horiz-adv-x="630" 
d="M233 344q24 -13 49.5 -17.5t51.5 -4.5q31 0 59.5 9.5t49.5 27t33.5 43.5t12.5 59q0 39 -12.5 71t-34.5 54t-52.5 34t-66.5 12q-18 0 -42.5 -2.5t-47.5 -12.5v-273zM337 -4q-38 2 -75.5 3t-75.5 1q-37 0 -73.5 -1t-75.5 -3v12q37 3 58.5 11t32 25t13 44.5t2.5 69.5v334
q0 42 -2.5 69.5t-13 44.5t-31.5 25t-57 11v12q33 -2 66 -3t66 -1q48 0 94.5 5t94.5 5q37 0 77.5 -13.5t74.5 -39t55.5 -62t21.5 -82.5q0 -48 -22 -81t-55.5 -53.5t-74.5 -29.5t-80 -9q-30 0 -62 3.5t-62 14.5v-150q0 -42 2.5 -69.5t13 -44.5t31.5 -25t57 -11v-12z" />
    <glyph glyph-name="Q" unicode="Q" horiz-adv-x="833" 
d="M856 -56l-51.5 -65t-50.5 -48.5t-61.5 -30t-83.5 -10.5q-56 0 -104.5 22.5t-95.5 49.5t-96 49.5t-105 22.5q-24 0 -47 -8t-44 -19l-14 16q35 22 68 31.5t74 9.5q55 0 110.5 -16.5t108.5 -36t102.5 -35.5t92.5 -16q32 0 57 6.5t46 19.5t39 31.5t38 42.5zM153 325
q0 -61 18 -117t52 -98.5t83 -68t111 -25.5t111 25.5t83 68t52 98.5t18 117t-18 117t-52 98.5t-83 68t-111 25.5t-111 -25.5t-83 -68t-52 -98.5t-18 -117zM47 325q0 81 29.5 145t79.5 108.5t117.5 68t143.5 23.5t143.5 -23.5t117.5 -68t79.5 -108.5t29.5 -145t-29.5 -145
t-79.5 -108.5t-117.5 -68t-143.5 -23.5t-143.5 23.5t-117.5 68t-79.5 108.5t-29.5 145z" />
    <glyph glyph-name="R" unicode="R" horiz-adv-x="722" 
d="M231 348q22 -8 46 -12.5t47 -4.5q78 0 121 36t43 117q0 33 -12.5 59.5t-34.5 46t-50.5 30t-59.5 10.5q-25 0 -49 -2t-47 -9q-2 -48 -3 -97t-1 -106v-68zM738 0h-180q-62 68 -116.5 141t-95.5 154q-10 0 -25.5 1.5t-32 4.5t-32 6.5t-25.5 6.5v-156q0 -42 2.5 -69.5
t13 -44.5t31.5 -25t58 -11v-12q-38 2 -76 3t-76 1q-37 0 -73 -1t-72 -3v12q36 3 56 11t30.5 25t13 44.5t2.5 69.5v334q0 42 -2.5 69.5t-13 44.5t-30.5 25t-56 11v12q32 -2 64 -3t64 -1q14 0 35 1.5t44.5 3.5t47.5 3.5t43 1.5q43 0 88 -11t81 -35t59 -61t23 -88
q0 -35 -12.5 -62t-33.5 -47t-49 -33t-60 -19q21 -36 53.5 -84t72 -92.5t85.5 -77.5t94 -38v-12z" />
    <glyph glyph-name="S" unicode="S" horiz-adv-x="593" 
d="M491 464q-13 32 -33.5 63.5t-47.5 56t-60.5 39.5t-71.5 15q-57 0 -93.5 -21t-36.5 -75q0 -43 29 -70.5t72 -49t93.5 -41t93.5 -46.5t72 -66.5t29 -100.5q0 -49 -18 -84.5t-48.5 -58.5t-71 -34t-86.5 -11q-25 0 -52 4.5t-52 10l-45.5 10t-32.5 4.5q-11 0 -21 -3.5
l-21 -7.5q-9 57 -21 112l-25 111l13 7q18 -35 43.5 -73t57.5 -69.5t70.5 -52.5t83.5 -21q29 0 56 6.5t47.5 20.5t32.5 36.5t12 55.5q0 48 -29 79t-72 54.5t-93.5 43.5t-93.5 45t-72 59t-29 86q0 39 15 71t40.5 54.5t59.5 34.5t71 12t66.5 -5t57.5 -11l57 -11.5t60 -5.5
q0 -44 1.5 -87t6.5 -86h-14z" />
    <glyph glyph-name="T" unicode="T" horiz-adv-x="648" 
d="M176 8q36 3 56 11t30.5 25t13 44.5t2.5 69.5v464q-52 0 -88 -4t-62.5 -20.5t-45.5 -50.5t-38 -93l-13 4l14 196q42 -2 83 -3t83 -1h235q40 0 79 1t79 3l14 -196l-13 -4q-19 59 -38.5 93t-45.5 50.5t-63 20.5t-90 4v-464q0 -42 2.5 -69.5t13 -44.5t31.5 -25t58 -11v-12
q-38 2 -76 3t-76 1q-37 0 -73 -1t-72 -3v12z" />
    <glyph glyph-name="U" unicode="U" horiz-adv-x="796" 
d="M128 553q0 28 -5.5 43.5t-16.5 24.5t-27 13t-37 8v12q42 -2 82.5 -3t82.5 -1q30 0 59.5 1t59.5 3v-12q-32 -3 -53 -9.5t-33 -20t-17 -34t-5 -50.5v-326q0 -47 15.5 -79.5t42.5 -53t62.5 -30t75.5 -9.5q64 0 105 19t65 46.5t33 59t9 55.5v280q0 40 -4 67.5t-14.5 45
t-29 26.5t-48.5 13v12q31 -2 61.5 -3t61.5 -1q26 0 51 1t51 3v-12q-21 -3 -38.5 -8t-29.5 -18t-18.5 -37.5t-6.5 -66.5v-299q0 -60 -21.5 -103.5t-58.5 -72.5t-86.5 -43t-105.5 -14q-51 0 -98 13.5t-83.5 41t-58.5 68.5t-22 95v355z" />
    <glyph glyph-name="Uacute" unicode="&#xda;" horiz-adv-x="796" 
d="M468 822q17 19 29.5 30.5t26.5 11.5q41 0 41 -32q0 -11 -8.5 -23.5t-20.5 -20.5l-140 -96h-44zM128 553q0 28 -5.5 43.5t-16.5 24.5t-27 13t-37 8v12q42 -2 82.5 -3t82.5 -1q30 0 59.5 1t59.5 3v-12q-32 -3 -53 -9.5t-33 -20t-17 -34t-5 -50.5v-326q0 -47 15.5 -79.5
t42.5 -53t62.5 -30t75.5 -9.5q64 0 105 19t65 46.5t33 59t9 55.5v280q0 40 -4 67.5t-14.5 45t-29 26.5t-48.5 13v12q31 -2 61.5 -3t61.5 -1q26 0 51 1t51 3v-12q-21 -3 -38.5 -8t-29.5 -18t-18.5 -37.5t-6.5 -66.5v-299q0 -60 -21.5 -103.5t-58.5 -72.5t-86.5 -43
t-105.5 -14q-51 0 -98 13.5t-83.5 41t-58.5 68.5t-22 95v355z" />
    <glyph glyph-name="Ucircumflex" unicode="&#xdb;" horiz-adv-x="796" 
d="M381 864h69l113 -172h-41l-106 110l-107 -110h-39zM128 553q0 28 -5.5 43.5t-16.5 24.5t-27 13t-37 8v12q42 -2 82.5 -3t82.5 -1q30 0 59.5 1t59.5 3v-12q-32 -3 -53 -9.5t-33 -20t-17 -34t-5 -50.5v-326q0 -47 15.5 -79.5t42.5 -53t62.5 -30t75.5 -9.5q64 0 105 19
t65 46.5t33 59t9 55.5v280q0 40 -4 67.5t-14.5 45t-29 26.5t-48.5 13v12q31 -2 61.5 -3t61.5 -1q26 0 51 1t51 3v-12q-21 -3 -38.5 -8t-29.5 -18t-18.5 -37.5t-6.5 -66.5v-299q0 -60 -21.5 -103.5t-58.5 -72.5t-86.5 -43t-105.5 -14q-51 0 -98 13.5t-83.5 41t-58.5 68.5
t-22 95v355z" />
    <glyph glyph-name="Udieresis" unicode="&#xdc;" horiz-adv-x="796" 
d="M323 812q23 0 38 -15t15 -38t-15 -38t-38 -15t-38 15t-15 38t15 38t38 15zM508 812q23 0 38 -15t15 -38t-15 -38t-38 -15t-38 15t-15 38t15 38t38 15zM128 553q0 28 -5.5 43.5t-16.5 24.5t-27 13t-37 8v12q42 -2 82.5 -3t82.5 -1q30 0 59.5 1t59.5 3v-12q-32 -3 -53 -9.5
t-33 -20t-17 -34t-5 -50.5v-326q0 -47 15.5 -79.5t42.5 -53t62.5 -30t75.5 -9.5q64 0 105 19t65 46.5t33 59t9 55.5v280q0 40 -4 67.5t-14.5 45t-29 26.5t-48.5 13v12q31 -2 61.5 -3t61.5 -1q26 0 51 1t51 3v-12q-21 -3 -38.5 -8t-29.5 -18t-18.5 -37.5t-6.5 -66.5v-299
q0 -60 -21.5 -103.5t-58.5 -72.5t-86.5 -43t-105.5 -14q-51 0 -98 13.5t-83.5 41t-58.5 68.5t-22 95v355z" />
    <glyph glyph-name="Ugrave" unicode="&#xd9;" horiz-adv-x="796" 
d="M447 692l-140 96q-12 8 -20.5 20.5t-8.5 23.5q0 32 41 32q14 0 26.5 -11.5t29.5 -30.5l116 -130h-44zM128 553q0 28 -5.5 43.5t-16.5 24.5t-27 13t-37 8v12q42 -2 82.5 -3t82.5 -1q30 0 59.5 1t59.5 3v-12q-32 -3 -53 -9.5t-33 -20t-17 -34t-5 -50.5v-326
q0 -47 15.5 -79.5t42.5 -53t62.5 -30t75.5 -9.5q64 0 105 19t65 46.5t33 59t9 55.5v280q0 40 -4 67.5t-14.5 45t-29 26.5t-48.5 13v12q31 -2 61.5 -3t61.5 -1q26 0 51 1t51 3v-12q-21 -3 -38.5 -8t-29.5 -18t-18.5 -37.5t-6.5 -66.5v-299q0 -60 -21.5 -103.5t-58.5 -72.5
t-86.5 -43t-105.5 -14q-51 0 -98 13.5t-83.5 41t-58.5 68.5t-22 95v355z" />
    <glyph glyph-name="V" unicode="V" horiz-adv-x="704" 
d="M-13 654q35 -2 69 -3t69 -1q41 0 81.5 1t80.5 3v-12q-14 -2 -30 -5t-30 -9.5t-23 -17.5t-9 -30q0 -20 29 -90l157 -380l130 307q25 60 37.5 102t12.5 63q0 16 -7 27t-19 17.5t-26.5 10t-29.5 5.5v12q34 -2 67.5 -3t66.5 -1q28 0 55 1t54 3v-12q-35 -4 -59 -23t-41 -46
t-29.5 -58l-24.5 -58l-208 -467h-22l-233 548q-18 43 -44.5 71.5t-73.5 32.5v12z" />
    <glyph glyph-name="W" unicode="W" horiz-adv-x="1000" 
d="M-11 654q36 -2 72 -3t71 -1q40 0 79 1t78 3v-12q-17 -2 -34 -5t-30.5 -10.5t-22 -20.5t-8.5 -34q0 -14 8 -34.5l19 -48.5l139 -367l124 307l-52 130q-31 78 -113 83v12q33 -2 66 -3t66 -1q42 0 83.5 1t83.5 3v-12q-13 -1 -29.5 -4.5t-31 -10t-24.5 -17.5t-10 -28
q0 -9 4.5 -24t14.5 -41l149 -395l152 383q4 10 7.5 21.5t6.5 22.5t4.5 20.5t1.5 15.5q0 15 -9.5 25.5t-23.5 17t-29.5 10t-27.5 4.5v12q33 -2 65.5 -3t64.5 -1q29 0 58 1t58 3v-12q-30 -3 -50.5 -15.5t-34.5 -29.5t-24 -36.5t-18 -38.5l-228 -532h-17l-146 397l-167 -397
h-18l-203 539q-15 39 -29.5 60.5t-30 32.5t-31.5 14l-33 6v12z" />
    <glyph glyph-name="X" unicode="X" horiz-adv-x="741" 
d="M2 8q29 2 50 10t38 21t32 30t31 37l178 220l-149 202q-38 53 -76 79.5t-87 34.5v12q36 -2 72.5 -3t72.5 -1q38 0 76.5 1t76.5 3v-12q-11 -1 -22.5 -4t-21 -9.5t-15.5 -15.5t-6 -22q0 -11 9.5 -27.5t28.5 -42.5l100 -137l92 125q19 26 30.5 48.5t11.5 43.5q0 11 -7 19
t-16.5 12.5t-20.5 7t-19 2.5v12q28 -2 55.5 -3t55.5 -1q32 0 64.5 1t64.5 3v-12q-37 -6 -64 -20t-49 -34.5t-41 -45l-40 -51.5l-101 -128l164 -220q13 -18 31.5 -40.5t41.5 -42.5t50 -35t59 -17v-12q-45 2 -88.5 3t-88.5 1q-40 0 -79 -1t-79 -3v12l32 6t29.5 9t22 17.5
t8.5 32.5q0 8 -14.5 31.5t-36.5 53.5l-110 148l-106 -142q-23 -30 -37.5 -56.5t-14.5 -38.5q0 -20 10.5 -31.5t26 -17.5t33 -8.5t32.5 -3.5v-12q-45 2 -90 3t-90 1q-28 0 -55 -1t-55 -3v12z" />
    <glyph glyph-name="Y" unicode="Y" horiz-adv-x="722" 
d="M-20 654q42 -2 82 -3t82 -1q39 0 78.5 1t78.5 3v-12q-12 -2 -26.5 -6t-27 -11.5t-20.5 -18t-8 -26.5q0 -11 10.5 -29.5t30.5 -44.5l142 -192l118 185q14 21 20 40.5t6 36.5q0 29 -24 46.5t-54 19.5v12q35 -2 70.5 -3t70.5 -1q32 0 63.5 1t63.5 3v-12q-36 -7 -64 -25.5
t-50.5 -42.5t-40 -49.5l-32.5 -46.5l-137 -200v-147q0 -36 6 -59t19.5 -36.5t36.5 -19t58 -8.5v-12q-45 2 -89 3t-89 1q-37 0 -74 -1t-74 -3v12q33 3 55 8.5t35.5 19t19.5 36.5t6 59v157l-181 232l-29 36.5t-33.5 35t-42.5 29.5t-56 21v12z" />
    <glyph glyph-name="Ydieresis" unicode="&#x178;" horiz-adv-x="722" 
d="M269 812q23 0 38 -15t15 -38t-15 -38t-38 -15t-38 15t-15 38t15 38t38 15zM454 812q23 0 38 -15t15 -38t-15 -38t-38 -15t-38 15t-15 38t15 38t38 15zM-20 654q42 -2 82 -3t82 -1q39 0 78.5 1t78.5 3v-12q-12 -2 -26.5 -6t-27 -11.5t-20.5 -18t-8 -26.5q0 -11 10.5 -29.5
t30.5 -44.5l142 -192l118 185q14 21 20 40.5t6 36.5q0 29 -24 46.5t-54 19.5v12q35 -2 70.5 -3t70.5 -1q32 0 63.5 1t63.5 3v-12q-36 -7 -64 -25.5t-50.5 -42.5t-40 -49.5l-32.5 -46.5l-137 -200v-147q0 -36 6 -59t19.5 -36.5t36.5 -19t58 -8.5v-12q-45 2 -89 3t-89 1
q-37 0 -74 -1t-74 -3v12q33 3 55 8.5t35.5 19t19.5 36.5t6 59v157l-181 232l-29 36.5t-33.5 35t-42.5 29.5t-56 21v12z" />
    <glyph glyph-name="Z" unicode="Z" horiz-adv-x="704" 
d="M659 642l-128.5 -154.5l-129 -160.5l-121.5 -155.5l-106 -139.5q15 -4 41.5 -5t70.5 -1q58 0 113 8t101.5 29.5t83 59.5t57.5 97h20l-76 -224q-88 2 -175.5 3t-175.5 1q-46 0 -91.5 -1t-91.5 -3l-8 12l487 616h-134q-44 0 -88 -7.5t-81 -26.5t-63 -51.5t-35 -82.5h-14
q-1 18 0.5 36t1.5 35q0 63 11 127q32 -1 66 -1.5l67.5 -1l64.5 -1t57 -0.5q68 0 134.5 1t134.5 3z" />
    <glyph glyph-name="a" unicode="a" horiz-adv-x="463" 
d="M271 170q-33 9 -67 9q-20 0 -39 -4.5t-34 -14.5t-24 -25.5t-9 -37.5q0 -34 23.5 -48.5t52.5 -14.5q32 0 58.5 13t38.5 22v101zM54 292q7 31 21.5 49.5t34 28t43.5 12t51 2.5q26 0 51.5 -5.5t46 -18.5t33 -34.5t12.5 -52.5v-185q0 -19 10 -33.5t31 -14.5q20 0 35.5 11.5
l29.5 22.5l10 -11q-11 -10 -24 -23.5t-27.5 -26t-30.5 -21t-31 -8.5q-11 0 -21.5 6.5t-21 15.5t-19.5 19t-16 17q-32 -22 -72 -40t-78 -18q-21 0 -40.5 7t-34.5 20t-24 31t-9 41q0 41 22.5 65.5t59.5 38t83.5 17.5t93.5 5v76q0 37 -23 57t-58 20q-26 0 -41 -26t-15 -59z" />
    <glyph glyph-name="aacute" unicode="&#xe1;" horiz-adv-x="463" 
d="M261 563q17 19 29.5 30.5t26.5 11.5q41 0 41 -32q0 -11 -8.5 -23.5t-20.5 -20.5l-140 -96h-44zM271 170q-33 9 -67 9q-20 0 -39 -4.5t-34 -14.5t-24 -25.5t-9 -37.5q0 -34 23.5 -48.5t52.5 -14.5q32 0 58.5 13t38.5 22v101zM54 292q7 31 21.5 49.5t34 28t43.5 12t51 2.5
q26 0 51.5 -5.5t46 -18.5t33 -34.5t12.5 -52.5v-185q0 -19 10 -33.5t31 -14.5q20 0 35.5 11.5l29.5 22.5l10 -11q-11 -10 -24 -23.5t-27.5 -26t-30.5 -21t-31 -8.5q-11 0 -21.5 6.5t-21 15.5t-19.5 19t-16 17q-32 -22 -72 -40t-78 -18q-21 0 -40.5 7t-34.5 20t-24 31t-9 41
q0 41 22.5 65.5t59.5 38t83.5 17.5t93.5 5v76q0 37 -23 57t-58 20q-26 0 -41 -26t-15 -59z" />
    <glyph glyph-name="acircumflex" unicode="&#xe2;" horiz-adv-x="463" 
d="M174 605h69l113 -172h-41l-106 110l-107 -110h-39zM271 170q-33 9 -67 9q-20 0 -39 -4.5t-34 -14.5t-24 -25.5t-9 -37.5q0 -34 23.5 -48.5t52.5 -14.5q32 0 58.5 13t38.5 22v101zM54 292q7 31 21.5 49.5t34 28t43.5 12t51 2.5q26 0 51.5 -5.5t46 -18.5t33 -34.5
t12.5 -52.5v-185q0 -19 10 -33.5t31 -14.5q20 0 35.5 11.5l29.5 22.5l10 -11q-11 -10 -24 -23.5t-27.5 -26t-30.5 -21t-31 -8.5q-11 0 -21.5 6.5t-21 15.5t-19.5 19t-16 17q-32 -22 -72 -40t-78 -18q-21 0 -40.5 7t-34.5 20t-24 31t-9 41q0 41 22.5 65.5t59.5 38t83.5 17.5
t93.5 5v76q0 37 -23 57t-58 20q-26 0 -41 -26t-15 -59z" />
    <glyph glyph-name="acute" unicode="&#xb4;" horiz-adv-x="259" 
d="M182 563q17 19 29.5 30.5t26.5 11.5q41 0 41 -32q0 -11 -8.5 -23.5t-20.5 -20.5l-140 -96h-44z" />
    <glyph glyph-name="adieresis" unicode="&#xe4;" horiz-adv-x="463" 
d="M301 553q23 0 38 -15t15 -38t-15 -38t-38 -15t-38 15t-15 38t15 38t38 15zM116 553q23 0 38 -15t15 -38t-15 -38t-38 -15t-38 15t-15 38t15 38t38 15zM271 170q-33 9 -67 9q-20 0 -39 -4.5t-34 -14.5t-24 -25.5t-9 -37.5q0 -34 23.5 -48.5t52.5 -14.5q32 0 58.5 13
t38.5 22v101zM54 292q7 31 21.5 49.5t34 28t43.5 12t51 2.5q26 0 51.5 -5.5t46 -18.5t33 -34.5t12.5 -52.5v-185q0 -19 10 -33.5t31 -14.5q20 0 35.5 11.5l29.5 22.5l10 -11q-11 -10 -24 -23.5t-27.5 -26t-30.5 -21t-31 -8.5q-11 0 -21.5 6.5t-21 15.5t-19.5 19t-16 17
q-32 -22 -72 -40t-78 -18q-21 0 -40.5 7t-34.5 20t-24 31t-9 41q0 41 22.5 65.5t59.5 38t83.5 17.5t93.5 5v76q0 37 -23 57t-58 20q-26 0 -41 -26t-15 -59z" />
    <glyph glyph-name="ae" unicode="&#xe6;" horiz-adv-x="685" 
d="M535 242q1 20 -4.5 40t-17.5 36t-29.5 26t-39.5 10q-21 0 -38.5 -10t-30 -26t-19 -36t-6.5 -40h185zM96 98q0 -32 21 -48t50 -16q33 0 62.5 14.5t55.5 33.5q-12 40 -12 84q-20 6 -38.5 8.5t-38.5 2.5q-19 0 -37 -4.5t-32 -14t-22.5 -24.5t-8.5 -36zM50 291
q12 46 44.5 69.5t79.5 23.5q25 0 46 -2.5t40 -8.5t37 -16t39 -25q25 24 51.5 38t61.5 14q38 0 69.5 -13t54.5 -36.5t37 -55t18 -67.5h-280q-3 -32 4.5 -64t24 -57.5t41.5 -41t58 -15.5q41 0 76.5 14.5t58.5 39.5l17 -15q-35 -38 -85.5 -63.5t-104.5 -25.5q-43 0 -82 17.5
t-62 55.5q-38 -27 -81.5 -50t-91.5 -23q-46 0 -77.5 27.5t-31.5 75.5q0 37 21.5 60.5t57.5 36t83 17.5t98 6v70q-1 39 -22 58t-60 19q-15 0 -26 -7t-18.5 -18.5t-10.5 -25t-3 -26.5z" />
    <glyph glyph-name="agrave" unicode="&#xe0;" horiz-adv-x="463" 
d="M240 433l-140 96q-12 8 -20.5 20.5t-8.5 23.5q0 32 41 32q14 0 26.5 -11.5t29.5 -30.5l116 -130h-44zM271 170q-33 9 -67 9q-20 0 -39 -4.5t-34 -14.5t-24 -25.5t-9 -37.5q0 -34 23.5 -48.5t52.5 -14.5q32 0 58.5 13t38.5 22v101zM54 292q7 31 21.5 49.5t34 28t43.5 12
t51 2.5q26 0 51.5 -5.5t46 -18.5t33 -34.5t12.5 -52.5v-185q0 -19 10 -33.5t31 -14.5q20 0 35.5 11.5l29.5 22.5l10 -11q-11 -10 -24 -23.5t-27.5 -26t-30.5 -21t-31 -8.5q-11 0 -21.5 6.5t-21 15.5t-19.5 19t-16 17q-32 -22 -72 -40t-78 -18q-21 0 -40.5 7t-34.5 20t-24 31
t-9 41q0 41 22.5 65.5t59.5 38t83.5 17.5t93.5 5v76q0 37 -23 57t-58 20q-26 0 -41 -26t-15 -59z" />
    <glyph glyph-name="ampersand" unicode="&#x26;" horiz-adv-x="741" 
d="M222 511q0 -29 14 -51.5t31.5 -38t32 -24t15.5 -8.5q9 6 22 13.5t24.5 18.5t19.5 28t8 43q0 23 -5.5 44.5t-17 37.5t-28.5 25.5t-39 9.5q-19 0 -33.5 -8.5t-24 -22.5t-14.5 -31.5t-5 -35.5zM149 183q0 -27 10 -53.5t29.5 -47t46.5 -33.5t62 -13q32 0 67 14t58 37
l-28 69.5t-29.5 69.5t-35 66t-44.5 61q-61 -17 -98.5 -60.5t-37.5 -109.5zM507 448q29 -2 59 -3t59 -1q26 0 52 1t52 3v-12q-27 0 -48.5 -10.5t-39 -29t-32 -43t-28.5 -52.5l-40 -83.5t-46 -82.5q31 -60 79.5 -88.5t113.5 -38.5v-12q-11 1 -26 1.5l-31 1t-30.5 1t-25.5 0.5
q-28 0 -55 -1t-55 -3l-32 68q-40 -36 -87 -60t-102 -24q-39 0 -72.5 14t-58 38.5t-38.5 58t-14 72.5q0 42 17.5 75.5t45.5 59.5t64 44t72 28l-40 27t-38 31t-28.5 37.5t-11.5 47.5q0 30 13.5 53t35 38.5t48 24t53.5 8.5q33 0 63.5 -6.5t53.5 -22.5t36.5 -41.5t13.5 -63.5
q0 -29 -10 -49.5t-26.5 -35t-38 -25.5t-45.5 -21q48 -45 80 -100.5l62 -112.5q10 16 24.5 45t27 61.5t21.5 64t9 52.5q0 25 -16 37t-40 19v10z" />
    <glyph glyph-name="aring" unicode="&#xe5;" horiz-adv-x="463" 
d="M147 536q0 -26 18 -44t44 -18t44 18t18 44t-18 44t-44 18t-44 -18t-18 -44zM271 170q-33 9 -67 9q-20 0 -39 -4.5t-34 -14.5t-24 -25.5t-9 -37.5q0 -34 23.5 -48.5t52.5 -14.5q32 0 58.5 13t38.5 22v101zM107 536q0 43 29.5 72.5t72.5 29.5t72.5 -29.5t29.5 -72.5
t-29.5 -72.5t-72.5 -29.5t-72.5 29.5t-29.5 72.5zM54 292q7 31 21.5 49.5t34 28t43.5 12t51 2.5q26 0 51.5 -5.5t46 -18.5t33 -34.5t12.5 -52.5v-185q0 -19 10 -33.5t31 -14.5q20 0 35.5 11.5l29.5 22.5l10 -11q-11 -10 -24 -23.5t-27.5 -26t-30.5 -21t-31 -8.5
q-11 0 -21.5 6.5t-21 15.5t-19.5 19t-16 17q-32 -22 -72 -40t-78 -18q-21 0 -40.5 7t-34.5 20t-24 31t-9 41q0 41 22.5 65.5t59.5 38t83.5 17.5t93.5 5v76q0 37 -23 57t-58 20q-26 0 -41 -26t-15 -59z" />
    <glyph glyph-name="asciicircum" unicode="^" 
d="M43 285l184 365h46l184 -365h-55l-152 301l-152 -301h-55z" />
    <glyph glyph-name="asciitilde" unicode="~" 
d="M481 211q-11 -16 -23.5 -31.5t-27 -27.5t-33 -19.5t-41.5 -7.5q-28 0 -52.5 9.5t-49.5 23.5q-24 14 -52 24.5t-63 10.5q-17 0 -29.5 -6.5t-23 -16.5t-18 -23t-13.5 -26l-36 36q8 16 19.5 31.5t26.5 27.5t34.5 19.5t44.5 7.5q26 0 54 -9.5t57 -22.5l55 -24t47 -12
q15 0 27.5 6.5t23 16.5t19.5 23l18 26z" />
    <glyph glyph-name="asterisk" unicode="*" 
d="M243 547q-6 20 -14 39.5t-11 39.5q-2 17 6.5 30.5t25.5 13.5t25.5 -13.5t6.5 -30.5q-3 -20 -11 -39.5t-14 -39.5h-14zM297 451q18 -9 37 -17.5t36 -20.5q14 -10 17.5 -25.5t-8.5 -28.5q-13 -12 -28.5 -8.5t-25.5 17.5q-12 17 -20.5 36t-17.5 37zM213 441
q-9 -18 -17.5 -37t-20.5 -36q-10 -14 -25.5 -17.5t-28.5 8.5q-12 13 -8.5 28.5t17.5 25.5q17 12 36 20.5t37 17.5zM287 535q9 18 17.5 37t20.5 36q10 14 25.5 17.5t28.5 -8.5q12 -13 8.5 -28.5t-17.5 -25.5q-17 -12 -36 -20.5t-37 -17.5zM203 525q-18 9 -37 17.5t-36 20.5
q-14 10 -17.5 25.5t8.5 28.5q13 12 28.5 8.5t25.5 -17.5q12 -17 20.5 -36t17.5 -37zM257 429l14.5 -39.5t10.5 -39.5q2 -17 -6.5 -30.5t-25.5 -13.5t-25.5 13.5t-6.5 30.5q3 20 10.5 39.5l14.5 39.5h14zM191 481l-39.5 -14.5t-39.5 -10.5q-17 -2 -30.5 6.5t-13.5 25.5
t13.5 25.5t30.5 6.5q20 -3 39.5 -10.5l39.5 -14.5v-14zM309 495l39.5 14.5t39.5 10.5q17 2 30.5 -6.5t13.5 -25.5t-13.5 -25.5t-30.5 -6.5q-20 3 -39.5 10.5l-39.5 14.5v14z" />
    <glyph glyph-name="at" unicode="@" horiz-adv-x="800" 
d="M511 396q0 64 -44 64q-18 0 -42.5 -13.5t-46.5 -39t-37.5 -62t-15.5 -83.5q0 -46 19.5 -65t47.5 -19q15 0 34 14t36 41.5t30.5 68t18.5 94.5zM537 489h67l-65 -258q-2 -5 -3 -15t2 -20.5t11.5 -18.5t26.5 -8q33 0 58 20t42.5 50t26.5 66.5t9 69.5q0 43 -19.5 90.5t-57 87
t-92.5 65.5t-125 26q-60 0 -112.5 -22.5t-91.5 -66.5t-61 -108.5t-22 -147.5q0 -54 20.5 -105t59 -91t93.5 -64.5t123 -24.5q33 0 60.5 4t50.5 10.5t44.5 15t42.5 18.5l14 -26q-49 -21 -100.5 -38.5t-110.5 -17.5q-98 0 -169 32.5t-116.5 82t-67.5 107t-22 108.5
q0 81 29 147t79 113.5t116.5 73.5t140.5 26q69 0 129 -22.5t104 -61.5t69.5 -93t25.5 -117q0 -38 -12 -80.5t-36 -77.5t-58.5 -58t-79.5 -23q-25 0 -42 9.5t-27.5 21.5t-15 23.5t-4.5 16.5h-2q-4 -6 -14.5 -17t-25.5 -22t-34 -20t-41 -11q-10 0 -26.5 3t-32 15.5t-27 37
t-11.5 68.5q0 26 12 66.5t36.5 79t61.5 66t88 27.5q17 0 28.5 -4.5t19.5 -12t13 -17l10 -18.5z" />
    <glyph glyph-name="atilde" unicode="&#xe3;" horiz-adv-x="463" 
d="M364 571q-5 -21 -12.5 -41t-19 -36t-28.5 -26t-42 -10q-17 0 -34.5 7.5t-34.5 16.5l-32 16.5t-29 7.5q-20 0 -33 -16t-16 -33h-29q4 21 11 41t18.5 35t29 24t41.5 9q16 0 31.5 -7.5l32.5 -16.5q16 -9 32 -16.5t32 -7.5q14 0 23 7t14.5 16t8.5 18t5 12h31zM271 170
q-33 9 -67 9q-20 0 -39 -4.5t-34 -14.5t-24 -25.5t-9 -37.5q0 -34 23.5 -48.5t52.5 -14.5q32 0 58.5 13t38.5 22v101zM54 292q7 31 21.5 49.5t34 28t43.5 12t51 2.5q26 0 51.5 -5.5t46 -18.5t33 -34.5t12.5 -52.5v-185q0 -19 10 -33.5t31 -14.5q20 0 35.5 11.5l29.5 22.5
l10 -11q-11 -10 -24 -23.5t-27.5 -26t-30.5 -21t-31 -8.5q-11 0 -21.5 6.5t-21 15.5t-19.5 19t-16 17q-32 -22 -72 -40t-78 -18q-21 0 -40.5 7t-34.5 20t-24 31t-9 41q0 41 22.5 65.5t59.5 38t83.5 17.5t93.5 5v76q0 37 -23 57t-58 20q-26 0 -41 -26t-15 -59z" />
    <glyph glyph-name="b" unicode="b" horiz-adv-x="537" 
d="M398 184q0 37 -9 68t-25.5 53.5t-40 35.5t-52.5 13q-32 -1 -55.5 -9.5t-39 -28t-23.5 -51.5t-9 -81q1 -49 9 -81.5t23.5 -52t39 -27.5t55.5 -9q29 0 52.5 13t40 35.5t25.5 53.5t9 68zM-1 693l156 19q-2 -94 -2.5 -186t-2.5 -186q27 20 59.5 32t71.5 12q44 0 81.5 -14
t65 -38.5t43 -59t15.5 -75.5q0 -52 -17 -92t-46 -67t-69 -40.5t-85 -13.5q-33 0 -65 7.5t-59 18t-45.5 21t-24.5 16.5v573q0 35 -19 48t-57 13v12z" />
    <glyph glyph-name="backslash" unicode="\" horiz-adv-x="278" 
d="M-10 670l348 -690h-50l-348 690h50z" />
    <glyph glyph-name="bar" unicode="|" horiz-adv-x="222" 
d="M86 712h50v-712h-50v712z" />
    <glyph glyph-name="braceleft" unicode="{" horiz-adv-x="389" 
d="M301 -200q-28 0 -53 5t-43.5 20.5t-29.5 44t-11 74.5v183q0 50 -12 76.5t-49 40.5q37 14 49 40.5t12 76.5v183q0 46 11 74.5t29.5 44t43.5 20.5t53 5v-12q-53 -22 -53 -126v-173q0 -27 -2.5 -48.5t-10.5 -38t-22 -27.5t-37 -18v-2q23 -7 37 -18t22 -27.5t10.5 -38
t2.5 -48.5v-173q0 -104 53 -126v-12z" />
    <glyph glyph-name="braceright" unicode="}" horiz-adv-x="387" 
d="M71 688q28 0 52.5 -5t43.5 -20.5t30 -44t11 -74.5v-183q0 -50 12 -76.5t49 -40.5q-37 -14 -49 -40.5t-12 -76.5v-183q0 -46 -11 -74.5t-30 -44t-43.5 -20.5t-52.5 -5v12q53 22 53 126v173q0 27 2.5 48.5t10.5 38t22 27.5t37 18v2q-23 7 -37 18t-22 27.5t-10.5 38
t-2.5 48.5v173q0 104 -53 126v12z" />
    <glyph glyph-name="bracketleft" unicode="[" horiz-adv-x="389" 
d="M104 670h262v-34h-178v-786h178v-34h-262v854z" />
    <glyph glyph-name="bracketright" unicode="]" horiz-adv-x="389" 
d="M269 -184h-262v34h178v786h-178v34h262v-854z" />
    <glyph glyph-name="breve" unicode="&#x2d8;" horiz-adv-x="259" 
d="M32 581q5 -42 32 -64t65 -22t65 22t32 64h32q-2 -29 -9 -56t-22 -47.5t-39 -32.5t-58 -12t-58 12t-39.5 32.5t-23.5 47.5t-9 56h32z" />
    <glyph glyph-name="bullet" unicode="&#x2022;" 
d="M251 487q34 0 63.5 -12.5t51.5 -34.5t34.5 -51.5t12.5 -63.5t-12.5 -64t-34.5 -52t-51.5 -34.5t-63.5 -12.5t-64 12.5t-52 34.5t-34.5 52t-12.5 64t12.5 63.5t34.5 51.5t52 34.5t64 12.5z" />
    <glyph glyph-name="c" unicode="c" horiz-adv-x="444" 
d="M368 216q-11 25 -23.5 50.5t-29.5 45.5t-40.5 33t-54.5 13t-53 -15t-35.5 -38.5t-20 -53t-6.5 -58.5q0 -33 11 -63t31 -53.5t48.5 -37t63.5 -13.5q37 0 70 13.5t63 34.5l14 -16q-45 -37 -88.5 -55.5t-97.5 -18.5q-39 0 -74.5 16t-62 43t-42.5 63.5t-16 77.5t16 77.5
t42.5 63.5t62 43t74.5 16q42 0 77 -4.5t70 -11.5l13 -152h-12z" />
    <glyph glyph-name="caron" unicode="&#x2c7;" horiz-adv-x="259" 
d="M164 433h-69l-111 172h39l107 -114l106 114h41z" />
    <glyph glyph-name="ccedilla" unicode="&#xe7;" horiz-adv-x="444" 
d="M132 -169q27 -15 61 -15q10 0 20.5 1.5t19.5 6t14.5 12t5.5 19.5q0 20 -10 33t-30 13q-9 0 -19 -1.5t-18 -6.5l-13 6l36 86q-36 4 -67.5 21t-55 44t-37.5 61t-14 73q0 41 16 77.5t42.5 63.5t62 43t74.5 16q42 0 77 -4.5t70 -11.5l13 -152h-12q-11 25 -23.5 50.5
t-29.5 45.5t-40.5 33t-54.5 13t-53 -15t-35.5 -38.5t-20 -53t-6.5 -58.5q0 -33 11 -63t31 -53.5t48.5 -37t63.5 -13.5q37 0 70 13.5t63 34.5l14 -16q-42 -35 -82.5 -53.5t-90.5 -20.5l-20 -51q8 2 16 3t16 1q32 0 57 -16.5t25 -52.5q0 -26 -11 -42.5t-28 -27t-39 -14.5
t-43 -4q-46 0 -88 18z" />
    <glyph glyph-name="cedilla" unicode="&#xb8;" horiz-adv-x="259" 
d="M27 -169q27 -15 61 -15q10 0 20.5 1.5t19.5 6t14.5 12t5.5 19.5q0 20 -10 33t-30 13q-9 0 -19 -1.5t-18 -6.5l-13 6l43 101h34l-27 -67q8 2 16 3t16 1q32 0 57 -16.5t25 -52.5q0 -26 -11 -42.5t-28 -27t-39 -14.5t-43 -4q-46 0 -88 18z" />
    <glyph glyph-name="cent" unicode="&#xa2;" 
d="M236 354q-28 -3 -48 -17t-33.5 -34.5t-20 -46t-6.5 -50.5q0 -27 6.5 -52.5t20 -47t34 -38t47.5 -23.5v309zM429 69q-35 -28 -77 -47t-88 -22v-116h-28v116q-44 0 -78.5 15t-58.5 40.5t-36.5 59.5t-12.5 72q0 41 14.5 75t39.5 59t59 40t73 19v108h28v-108q12 0 27 -2
l29.5 -4t27 -4t19.5 -2q17 0 27 2l11 -154h-11q-9 22 -20 45t-27 42.5t-36 33.5t-47 17v-312q41 0 79.5 10.5t69.5 35.5z" />
    <glyph glyph-name="circumflex" unicode="&#x2c6;" horiz-adv-x="259" 
d="M95 605h69l113 -172h-41l-106 110l-107 -110h-39z" />
    <glyph glyph-name="colon" unicode=":" horiz-adv-x="250" 
d="M112 380q23 0 39.5 -16t16.5 -40t-16.5 -40t-39.5 -16t-39.5 16t-16.5 40t16.5 40t39.5 16zM112 106q23 0 39.5 -16t16.5 -40t-16.5 -40t-39.5 -16t-39.5 16t-16.5 40t16.5 40t39.5 16z" />
    <glyph glyph-name="comma" unicode="," horiz-adv-x="250" 
d="M14 -107q10 7 21.5 18.5t20.5 25t15 28t6 27.5q0 14 -3 25l-6 21t-6 19t-3 19q0 22 15 35t35 13q26 0 37 -17t11 -49t-11.5 -57.5t-30.5 -46.5t-42.5 -38.5t-47.5 -33.5z" />
    <glyph glyph-name="copyright" unicode="&#xa9;" horiz-adv-x="800" 
d="M567 241l-15 -69q-1 -9 -8 -12.5t-19 -7.5q-14 -5 -42 -11t-63 -6q-43 0 -81 11.5t-66.5 35.5t-45 61.5t-16.5 90.5q0 31 12.5 64.5t38.5 62t67 47t98 18.5q38 0 60.5 -5.5t42.5 -12.5q22 -7 22 -21v-70h-18q-2 16 -8 31.5t-19 28.5t-33.5 21t-49.5 8q-35 0 -61.5 -12.5
t-44 -35t-26.5 -53.5t-9 -68q0 -39 8.5 -72.5t26.5 -57.5t46 -38t66 -14q49 0 78 25.5t43 60.5h16zM400 22q58 0 110 24.5t90 66.5t60.5 96.5t22.5 114.5q0 61 -22 116t-60.5 97t-90 66.5t-110.5 24.5t-110.5 -25t-89.5 -67t-60.5 -97t-22.5 -115t22.5 -114.5t61 -96.5
t90 -66.5t109.5 -24.5zM400 -20q-71 0 -132 27t-107 73.5t-72 109t-26 134.5t26 135t72 110t107 74t132 27t132.5 -27t107 -74t71.5 -110t26 -135t-26 -134.5t-71.5 -109t-107 -73.5t-132.5 -27z" />
    <glyph glyph-name="currency" unicode="&#xa4;" 
d="M250 523q-40 0 -75 -15.5t-61.5 -42.5t-42 -63t-15.5 -77t15.5 -77t42 -63t61.5 -42.5t75 -15.5t75 15.5t61.5 42.5t42 63t15.5 77t-15.5 77t-42 63t-61.5 42.5t-75 15.5zM56 172q-54 67 -54 152q0 42 12.5 82t43.5 72l-56 57l38 38l56 -55q33 28 74 41.5t83 13.5
q81 0 155 -51l52 51l38 -38l-54 -54q29 -33 41.5 -73t12.5 -82t-12.5 -81t-40.5 -74l53 -56l-38 -38l-53 58q-34 -30 -73.5 -44t-81.5 -14q-44 0 -84 13.5t-75 44.5l-53 -58l-38 38z" />
    <glyph glyph-name="d" unicode="d" horiz-adv-x="537" 
d="M354 276q-3 14 -14.5 28t-28.5 25.5t-38 19t-44 7.5q-34 0 -57.5 -15t-38.5 -39.5t-22 -55t-7 -60.5t7 -60.5t22 -55t38.5 -39.5t57.5 -15q23 0 44 7t38 17.5t28.5 22.5t14.5 21v192zM432 101q0 -26 3 -43t12 -27.5t25.5 -14.5t43.5 -4v-12q-40 0 -80 -1t-81 -3v37
q-23 -20 -64.5 -34.5t-89.5 -14.5q-41 0 -74.5 15.5t-57 42t-36.5 61.5t-13 73q0 45 16 83t44.5 66t67 43.5t83.5 15.5q33 0 64 -12t59 -29v259q0 24 -3.5 39t-13.5 24t-26.5 13t-41.5 6v12l163 16v-611z" />
    <glyph glyph-name="dagger" unicode="&#x2020;" 
d="M240 -156q0 46 -0.5 101.5t-4.5 110.5t-12.5 105.5t-23.5 86.5q26 31 33.5 82t7.5 105h-29q-14 0 -28 -6t-27.5 -13.5t-28 -13.5t-29.5 -6q-21 0 -32.5 13.5t-11.5 30.5q0 20 11.5 34.5t32.5 14.5q15 0 29.5 -5.5t28 -11.5t27.5 -11.5t28 -5.5h29v26q0 30 -5.5 51
t-12.5 36l-12.5 27t-5.5 26q0 49 49 49q43 0 43 -49q0 -14 -5.5 -26l-12.5 -27t-12.5 -36t-5.5 -51v-26h29q14 0 28 5.5t27.5 11.5t28 11.5t29.5 5.5q21 0 32.5 -14.5t11.5 -34.5q0 -17 -11.5 -30.5t-32.5 -13.5q-15 0 -29.5 6t-28 13.5t-27.5 13.5t-28 6h-29
q0 -54 7.5 -105t33.5 -82q-15 -36 -23.5 -86.5t-12.5 -105.5t-4.5 -110.5t-0.5 -101.5h-20z" />
    <glyph glyph-name="daggerdbl" unicode="&#x2021;" 
d="M260 65v-26q0 -30 5.5 -51t12.5 -36l12.5 -27.5t5.5 -25.5q0 -49 -43 -49q-49 0 -49 49q0 13 5.5 25.5l12.5 27.5t12.5 36t5.5 51v26h-29q-14 0 -28 -5.5t-27.5 -11.5t-28 -11.5t-29.5 -5.5q-21 0 -32.5 14.5t-11.5 34.5q0 17 11.5 30.5t32.5 13.5q15 0 29.5 -6t28 -13.5
t27.5 -13.5t28 -6h29q0 18 -1.5 40t-5 45t-10.5 45.5t-18 42.5q11 12 18 31t10.5 42.5t5 50t1.5 53.5h-29q-14 0 -28 -6t-27.5 -13.5t-28 -13.5t-29.5 -6q-21 0 -32.5 13.5t-11.5 30.5q0 20 11.5 34.5t32.5 14.5q15 0 29.5 -5.5t28 -11.5t27.5 -11.5t28 -5.5h29v26
q0 30 -5.5 51t-12.5 36l-12.5 27t-5.5 26q0 49 49 49q43 0 43 -49q0 -14 -5.5 -26l-12.5 -27t-12.5 -36t-5.5 -51v-26h29q14 0 28 5.5t27.5 11.5t28 11.5t29.5 5.5q21 0 32.5 -14.5t11.5 -34.5q0 -17 -11.5 -30.5t-32.5 -13.5q-15 0 -29.5 6t-28 13.5t-27.5 13.5t-28 6h-29
q0 -27 1.5 -53.5t5 -50t10.5 -42.5t18 -31q-11 -20 -18 -42.5t-10.5 -45.5t-5 -45t-1.5 -40h29q14 0 28 6t27.5 13.5t28 13.5t29.5 6q21 0 32.5 -13.5t11.5 -30.5q0 -20 -11.5 -34.5t-32.5 -14.5q-15 0 -29.5 5.5t-28 11.5t-27.5 11.5t-28 5.5h-29z" />
    <glyph glyph-name="degree" unicode="&#xb0;" horiz-adv-x="400" 
d="M200 424q20 0 37 8t29.5 21.5t19.5 31.5t7 38t-7 38t-19.5 31.5t-29.5 21.5t-37 8t-37 -8t-29.5 -21.5t-19.5 -31.5t-7 -38t7 -38t19.5 -31.5t29.5 -21.5t37 -8zM200 380q-30 0 -56 11t-45.5 30.5t-30.5 45.5t-11 56t11 56t30.5 45.5t45.5 30.5t56 11t56 -11t45.5 -30.5
t30.5 -45.5t11 -56t-11 -56t-30.5 -45.5t-45.5 -30.5t-56 -11z" />
    <glyph glyph-name="dieresis" unicode="&#xa8;" horiz-adv-x="259" 
d="M222 553q23 0 38 -15t15 -38t-15 -38t-38 -15t-38 15t-15 38t15 38t38 15zM37 553q23 0 38 -15t15 -38t-15 -38t-38 -15t-38 15t-15 38t15 38t38 15z" />
    <glyph glyph-name="divide" unicode="&#xf7;" 
d="M202 337q0 19 14.5 33t33.5 14q18 0 32.5 -14t14.5 -33t-14.5 -33.5t-32.5 -14.5q-19 0 -33.5 14.5t-14.5 33.5zM202 32q0 19 14.5 33t33.5 14q18 0 32.5 -14t14.5 -33t-14.5 -33.5t-32.5 -14.5q-19 0 -33.5 14.5t-14.5 33.5zM433 159h-366v50h366v-50z" />
    <glyph glyph-name="dollar" unicode="$" 
d="M218 620q-42 0 -72 -27t-30 -72q0 -26 9 -44.5t23 -33.5t32.5 -26.5l37.5 -22.5v226zM252 30q50 4 79 39.5t29 84.5q0 26 -9 47.5t-24 38.5t-34.5 30.5t-40.5 24.5v-265zM218 742h34v-92q12 0 28.5 -4t34 -9l32.5 -9t24 -4q7 0 14 1t12 5l19 -143l-11 -3q-9 24 -23.5 47
t-34 41.5t-44 31t-51.5 16.5v-242q88 -42 134 -85t46 -99q0 -84 -49 -132t-131 -62v-92h-34v92q-32 0 -62 8t-62 8q-16 0 -33 -10l-38 184l14 4q10 -30 27.5 -59.5t40.5 -52.5t51.5 -37.5t61.5 -14.5v278l-61 34t-56 38t-41 50t-16 70q0 36 15 63.5t40 47t56 29.5t63 10v92z
" />
    <glyph glyph-name="dotaccent" unicode="&#x2d9;" horiz-adv-x="259" 
d="M129 553q23 0 38 -15t15 -38t-15 -38t-38 -15t-38 15t-15 38t15 38t38 15z" />
    <glyph glyph-name="dotlessi" unicode="&#x131;" horiz-adv-x="259" 
d="M81 249q0 24 -1.5 42.5t-9 31t-22.5 20.5t-41 11v14l152 10v-294q0 -24 4 -39t13.5 -23t24.5 -10.5t37 -3.5v-12q-35 2 -70.5 3t-70.5 1q-23 0 -45 -1t-45 -3v12q20 1 34 3.5t23 10.5t13 23t4 39v165z" />
    <glyph glyph-name="e" unicode="e" horiz-adv-x="444" 
d="M299 240q-3 27 -8 48.5t-16 36t-29 22t-46 7.5q-21 0 -38.5 -10.5t-30 -27t-19 -36.5t-6.5 -40h193zM104 210q0 -52 13.5 -86t34 -54t44 -28t43.5 -8q42 0 76 13.5t63 42.5l17 -16q-41 -44 -84 -67t-103 -23q-43 0 -77 17t-58 45t-36.5 64t-12.5 74t12.5 74t36.5 64
t58 45t77 17q79 0 127 -43.5t59 -130.5h-290z" />
    <glyph glyph-name="eacute" unicode="&#xe9;" horiz-adv-x="444" 
d="M275 563q17 19 29.5 30.5t26.5 11.5q41 0 41 -32q0 -11 -8.5 -23.5t-20.5 -20.5l-140 -96h-44zM299 240q-3 27 -8 48.5t-16 36t-29 22t-46 7.5q-21 0 -38.5 -10.5t-30 -27t-19 -36.5t-6.5 -40h193zM104 210q0 -52 13.5 -86t34 -54t44 -28t43.5 -8q42 0 76 13.5t63 42.5
l17 -16q-41 -44 -84 -67t-103 -23q-43 0 -77 17t-58 45t-36.5 64t-12.5 74t12.5 74t36.5 64t58 45t77 17q79 0 127 -43.5t59 -130.5h-290z" />
    <glyph glyph-name="ecircumflex" unicode="&#xea;" horiz-adv-x="444" 
d="M299 240q-3 27 -8 48.5t-16 36t-29 22t-46 7.5q-21 0 -38.5 -10.5t-30 -27t-19 -36.5t-6.5 -40h193zM188 605h69l113 -172h-41l-106 110l-107 -110h-39zM104 210q0 -52 13.5 -86t34 -54t44 -28t43.5 -8q42 0 76 13.5t63 42.5l17 -16q-41 -44 -84 -67t-103 -23
q-43 0 -77 17t-58 45t-36.5 64t-12.5 74t12.5 74t36.5 64t58 45t77 17q79 0 127 -43.5t59 -130.5h-290z" />
    <glyph glyph-name="edieresis" unicode="&#xeb;" horiz-adv-x="444" 
d="M315 553q23 0 38 -15t15 -38t-15 -38t-38 -15t-38 15t-15 38t15 38t38 15zM130 553q23 0 38 -15t15 -38t-15 -38t-38 -15t-38 15t-15 38t15 38t38 15zM299 240q-3 27 -8 48.5t-16 36t-29 22t-46 7.5q-21 0 -38.5 -10.5t-30 -27t-19 -36.5t-6.5 -40h193zM104 210
q0 -52 13.5 -86t34 -54t44 -28t43.5 -8q42 0 76 13.5t63 42.5l17 -16q-41 -44 -84 -67t-103 -23q-43 0 -77 17t-58 45t-36.5 64t-12.5 74t12.5 74t36.5 64t58 45t77 17q79 0 127 -43.5t59 -130.5h-290z" />
    <glyph glyph-name="egrave" unicode="&#xe8;" horiz-adv-x="444" 
d="M254 433l-140 96q-12 8 -20.5 20.5t-8.5 23.5q0 32 41 32q14 0 26.5 -11.5t29.5 -30.5l116 -130h-44zM299 240q-3 27 -8 48.5t-16 36t-29 22t-46 7.5q-21 0 -38.5 -10.5t-30 -27t-19 -36.5t-6.5 -40h193zM104 210q0 -52 13.5 -86t34 -54t44 -28t43.5 -8q42 0 76 13.5
t63 42.5l17 -16q-41 -44 -84 -67t-103 -23q-43 0 -77 17t-58 45t-36.5 64t-12.5 74t12.5 74t36.5 64t58 45t77 17q79 0 127 -43.5t59 -130.5h-290z" />
    <glyph glyph-name="eight" unicode="8" 
d="M354 506q0 58 -34.5 94t-92.5 36q-45 0 -74 -28.5t-29 -73.5q0 -27 17 -50t42 -42.5t52.5 -36.5l48.5 -31q38 25 54 56t16 76zM380 133q0 39 -20.5 68.5t-50 53.5t-62.5 44.5t-59 41.5q-45 -20 -70 -59.5t-25 -87.5q0 -37 10.5 -69.5t30 -57t47.5 -39t64 -14.5
q28 0 52.5 7.5t43 22t29 37t10.5 52.5zM452 172q0 -48 -18 -83t-49 -58.5t-71 -35t-83 -11.5q-41 0 -80 12.5t-69 36t-48.5 58t-18.5 78.5q0 35 12 63.5t32.5 51t47.5 40t57 31.5q-19 12 -39.5 28t-38 35t-29 41.5t-11.5 47.5q0 40 17 70t44 49.5t61.5 29.5t70.5 10
q34 0 67.5 -10t60 -29t43 -48t16.5 -66q0 -29 -9.5 -52.5t-25.5 -42.5t-37.5 -33.5t-46.5 -24.5l48.5 -36.5t47 -42.5t35.5 -50t14 -59z" />
    <glyph glyph-name="ellipsis" unicode="&#x2026;" horiz-adv-x="1000" 
d="M500 106q23 0 39.5 -16t16.5 -40t-16.5 -40t-39.5 -16t-39.5 16t-16.5 40t16.5 40t39.5 16zM833 106q23 0 39.5 -16t16.5 -40t-16.5 -40t-39.5 -16t-39.5 16t-16.5 40t16.5 40t39.5 16zM167 106q23 0 39.5 -16t16.5 -40t-16.5 -40t-39.5 -16t-39.5 16t-16.5 40t16.5 40
t39.5 16z" />
    <glyph glyph-name="emdash" unicode="&#x2014;" horiz-adv-x="1000" 
d="M217 159q-31 0 -46.5 -11.5t-29.5 -37.5h-13l19.5 51.5t15.5 51.5q15 -2 30.5 -3t30.5 -1h559q31 0 46.5 11.5t29.5 37.5h13l-19.5 -51.5t-15.5 -51.5q-15 2 -30.5 3t-30.5 1h-559z" />
    <glyph glyph-name="endash" unicode="&#x2013;" 
d="M-11 159l16 50h500l-16 -50h-500z" />
    <glyph glyph-name="equal" unicode="=" 
d="M433 89h-366v50h366v-50zM433 230h-366v50h366v-50z" />
    <glyph glyph-name="exclam" unicode="!" horiz-adv-x="389" 
d="M196 106q23 0 39.5 -16t16.5 -40t-16.5 -40t-39.5 -16t-39.5 16t-16.5 40t16.5 40t39.5 16zM189 154q-1 7 -3 16t-4 20q-10 50 -16 99.5t-6 100.5q0 23 3 47t3 47q0 61 -10.5 94.5t-37.5 53.5v8l115 20q2 -18 5.5 -36t3.5 -36q0 -47 -6 -92t-13 -85l-13 -74t-6 -60
q0 -31 -1 -61.5t-1 -61.5h-13z" />
    <glyph glyph-name="exclamdown" unicode="&#xa1;" horiz-adv-x="389" 
d="M193 314q-23 0 -39.5 16t-16.5 40t16.5 40t39.5 16t39.5 -16t16.5 -40t-16.5 -40t-39.5 -16zM200 266q2 -6 3.5 -15l3.5 -20q10 -51 16 -100.5t6 -100.5q0 -23 -3 -47t-3 -47q0 -31 2.5 -54t8 -40.5t14.5 -30.5t23 -23v-8l-115 -20q-2 18 -5.5 36t-3.5 36q0 47 6 92
t13 85l13 74t6 60q0 31 1 61.5t1 61.5h13z" />
    <glyph glyph-name="f" unicode="f" horiz-adv-x="315" 
d="M7 8q26 1 40.5 8t22 20t9 31t1.5 41v225h-49l6 30h43v107q0 34 9.5 76t30.5 79t55 62t83 25q48 0 81.5 -25t33.5 -67q0 -24 -8 -33t-31 -9q-15 0 -21 9t-6 41q0 7 -3.5 18t-11 21.5t-19.5 17.5t-30 7q-26 0 -42 -15t-26 -36.5t-13.5 -45.5t-3.5 -41v-191h127v-30h-127
v-225q0 -23 2.5 -41t13.5 -31t33.5 -20t63.5 -8v-12q-35 2 -69 3t-69 1q-32 0 -63 -1t-63 -3v12z" />
    <glyph glyph-name="fi" unicode="&#xfb01;" horiz-adv-x="556" 
d="M532 -4q-35 2 -70.5 3t-70.5 1q-23 0 -45 -1t-45 -3v12q20 1 34 3.5t23 10.5t13 23t4 39v165q0 20 -1.5 38t-9 31t-22.5 21t-41 9v12l152 20v-296q0 -24 4 -39t13.5 -23t24.5 -10.5t37 -3.5v-12zM356 556q0 27 -4 51t-14 42t-27 28.5t-42 10.5q-29 0 -51 -15.5t-36 -41.5
t-21 -59t-7 -69v-140h126v-30h-126v-225q0 -23 2.5 -41t13.5 -31t34 -20t64 -8v-12q-35 2 -69 3t-69 1q-33 0 -64.5 -1t-63.5 -3v12q26 1 40.5 8t22 20t9.5 31t2 41v225h-51l6 30h45v103q0 34 12.5 77t38 80.5t64 63t90.5 25.5q72 0 111.5 -31t43.5 -91z" />
    <glyph glyph-name="five" unicode="5" 
d="M64 259l102 391h73q6 -6 16.5 -10.5t22.5 -7.5t24 -4.5t21 -1.5q27 0 53 8.5t49 23.5l14 -16q-48 -33 -93 -55.5t-105 -22.5q-13 0 -26.5 2.5t-26.5 5.5l-63 -210q23 11 51 20.5t62 9.5q43 0 80.5 -11.5t65.5 -35t43.5 -60t15.5 -87.5q0 -52 -19 -92t-51.5 -67t-76 -41
t-92.5 -14q-27 0 -57.5 8.5t-56.5 25t-43.5 40.5t-17.5 55q0 28 10.5 45t36.5 17q21 0 36 -14.5t15 -40.5q0 -20 -4 -29t-4 -23q0 -13 11 -23t27 -17t33.5 -10.5t30.5 -3.5q24 0 47.5 10.5t43 32t31.5 53.5t12 76q0 34 -8 64.5t-25.5 53.5t-43.5 36.5t-62 13.5
q-51 0 -82.5 -28t-47.5 -73z" />
    <glyph glyph-name="fl" unicode="&#xfb02;" horiz-adv-x="574" 
d="M468 705v-595q0 -29 2 -48t10.5 -30t24 -16.5t42.5 -7.5v-12q-29 2 -59.5 3t-60.5 1q-29 0 -56.5 -1t-55.5 -3v12q25 2 40 7.5t23 16.5t10 30t2 48v486l-43 -21q-2 19 -7.5 39t-16.5 36.5t-27.5 27t-38.5 10.5q-25 0 -42.5 -12.5t-28.5 -32.5t-17.5 -45.5t-9.5 -51
t-3.5 -49t-0.5 -39.5v-95h148v-30h-148v-225q0 -23 2.5 -41t13.5 -31t34 -20t64 -8v-12q-35 2 -69 3t-69 1q-32 0 -63 -1t-63 -3v12q25 1 39.5 8t21.5 20t9 31t2 41v225h-52l7 30h45v77q0 48 11.5 96.5t36 87.5t62.5 63.5t91 24.5q35 0 64 -14t53 -30z" />
    <glyph glyph-name="florin" unicode="&#x192;" 
d="M130 344l7 30h99q4 24 8.5 58.5t12 72t19.5 74.5t29.5 66.5t42 48t58.5 18.5q86 0 86 -88q0 -20 -7 -29t-34 -9q-14 0 -23.5 4t-9.5 12q0 11 3 23.5t3 35.5q0 27 -28 27q-14 0 -25.5 -14t-19.5 -37t-14 -53t-10 -62l-17 -148h118l-4 -30h-117l-19 -146q-2 -20 -6.5 -59.5
t-12.5 -86.5t-21.5 -97t-33 -90.5t-47.5 -66.5t-65 -26q-41 0 -67.5 23t-26.5 62q0 20 8 33.5t28 13.5q17 0 27.5 -12.5t10.5 -23.5t-1.5 -18.5t-1.5 -15.5q0 -16 6.5 -27t24.5 -11q15 0 26.5 12.5t20.5 32.5t15 44t10 47.5t6.5 43t3.5 30.5l39 338h-101z" />
    <glyph glyph-name="four" unicode="4" 
d="M-11 201l-4 17l207 228.5t205 243.5h52v-12l-380 -413h243v217l65 64h7v-546h-72v201h-323z" />
    <glyph glyph-name="fraction" unicode="&#x2044;" horiz-adv-x="167" 
d="M-119 -16h-48l449 682h52z" />
    <glyph glyph-name="fraction" unicode="&#x2215;" horiz-adv-x="167" 
d="M-119 -16h-48l449 682h52z" />
    <glyph glyph-name="g" unicode="g" 
d="M135 252q0 -21 4.5 -40t14.5 -34t25 -24t35 -9t35 9t24.5 24t14.5 34t5 40t-5 40t-14.5 33.5t-24.5 23.5t-35 9t-35 -9t-25 -23.5t-14.5 -33.5t-4.5 -40zM219 -188q21 0 50.5 3.5t56 13.5t45.5 28t19 47q0 43 -34 59.5t-100 16.5q-37 0 -64.5 -0.5t-49.5 -1t-38.5 -1
t-30.5 -0.5q-8 -13 -11.5 -30.5t-3.5 -34.5q0 -29 16.5 -48t41 -30.5t52.5 -16.5t51 -5zM416 287q2 8 3 16.5t1 16.5q0 11 -10 16.5t-24 5.5q-8 0 -19 -5t-17 -8q8 -21 12.5 -40t4.5 -42q0 -27 -10 -50t-29 -40.5t-48 -27.5t-66 -10q-50 0 -92 24q-17 -10 -32.5 -23.5
t-15.5 -36.5t17 -31t61 -8q10 0 24.5 1t30.5 2l32 2t30 1q34 0 63 -5.5t49 -19.5t31.5 -39t11.5 -64q0 -47 -21.5 -79.5t-55 -53t-74.5 -30t-81 -9.5q-32 0 -65 7t-60 22.5t-44 41.5t-17 64q0 29 12.5 54t33.5 45q-16 12 -23 28.5t-7 36.5q0 40 21.5 67.5t56.5 42.5
q-20 14 -29.5 38t-9.5 53q0 28 10.5 52.5t29.5 42.5t45.5 28.5t58.5 10.5q35 0 67 -7.5t60 -29.5l46.5 22t49.5 11q18 0 31 -12t13 -22v-24q0 -11 -2 -16z" />
    <glyph glyph-name="germandbls" unicode="&#xdf;" horiz-adv-x="556" 
d="M254 118h16q5 -17 16 -34.5t26.5 -32t33.5 -24t36 -9.5q32 0 49.5 22t17.5 54q0 29 -12.5 53t-31.5 45t-40.5 40.5t-40.5 39t-31.5 40t-12.5 44.5q0 29 11.5 53t25.5 49t25 53t11 63q0 21 -5.5 40.5t-16.5 34.5t-28.5 24t-41.5 9q-32 0 -52.5 -18.5t-32.5 -45.5
t-16.5 -58.5t-4.5 -58.5v-355q0 -42 2 -68.5t10.5 -41t24 -20.5t42.5 -8v-12q-29 2 -59.5 3t-60.5 1q-29 0 -56.5 -1t-55.5 -3v12q25 2 40 7.5t23 16.5t10 30t2 48v223h-40l6 30h34v114q0 39 14.5 80.5t41.5 76t65.5 56.5t85.5 22q26 0 51.5 -6t46 -19.5t33 -34.5t12.5 -50
q0 -26 -14.5 -50.5t-31.5 -47.5l-31 -43t-14 -46q0 -23 13 -44.5t33 -43t42.5 -43t42.5 -46t33 -51.5t13 -59t-12.5 -57.5t-33.5 -44t-49 -28.5t-59 -10q-24 0 -50.5 6.5t-46.5 19.5z" />
    <glyph glyph-name="grave" unicode="`" horiz-adv-x="259" 
d="M161 433l-140 96q-12 8 -20.5 20.5t-8.5 23.5q0 32 41 32q14 0 26.5 -11.5t29.5 -30.5l116 -130h-44z" />
    <glyph glyph-name="greater" unicode="&#x3e;" 
d="M67 43l320 135l-320 146v50l366 -171v-50l-366 -159v49z" />
    <glyph glyph-name="guillemotleft" unicode="&#xab;" horiz-adv-x="444" 
d="M348 45l-142 114q-15 12 -15 23t18 28l130 113l11 -10l-94 -126l103 -131zM211 45l-142 114q-15 12 -15 23t18 28l130 113l11 -10l-94 -126l103 -131z" />
    <glyph glyph-name="guillemotright" unicode="&#xbb;" horiz-adv-x="444" 
d="M85 56l103 131l-94 126l11 10l130 -113q18 -17 18 -28t-15 -23l-142 -114zM222 56l103 131l-94 126l11 10l130 -113q18 -17 18 -28t-15 -23l-142 -114z" />
    <glyph glyph-name="guilsinglleft" unicode="&#x2039;" horiz-adv-x="296" 
d="M209 45l-142 114q-15 12 -15 23t18 28l130 113l11 -10l-94 -126l103 -131z" />
    <glyph glyph-name="guilsinglright" unicode="&#x203a;" horiz-adv-x="296" 
d="M76 56l103 131l-94 126l11 10l130 -113q18 -17 18 -28t-15 -23l-142 -114z" />
    <glyph glyph-name="h" unicode="h" horiz-adv-x="537" 
d="M502 -4q-29 2 -62 3t-67 1q-23 0 -44.5 -1t-41.5 -3v12q32 6 49.5 16.5t17.5 43.5v161q0 51 -22 79t-69 28q-17 0 -35 -5t-33 -13.5t-25 -18.5t-10 -19v-212q0 -33 19 -43.5t57 -16.5v-12q-34 2 -67.5 3t-67.5 1q-23 0 -44.5 -1t-44.5 -3v12q34 6 52 16.5t18 43.5v510
q0 36 -3.5 56.5t-12 31t-23 13.5t-36.5 4v12l153 17v-387q27 21 62 40t67 19q28 0 53.5 -7t45.5 -23t32 -43t12 -67v-176q0 -33 18 -43.5t52 -16.5v-12z" />
    <glyph glyph-name="hungarumlaut" unicode="&#x2dd;" horiz-adv-x="259" 
d="M108 433l114 130q17 19 29.5 30.5t26.5 11.5q41 0 41 -32q0 -17 -8.5 -26.5t-20.5 -17.5l-140 -96h-42zM-46 433l109 130l25 27t32 15q20 0 31.5 -10.5t11.5 -27.5q0 -12 -10 -23t-20 -19l-125 -92h-54z" />
    <glyph glyph-name="hyphen" unicode="-" horiz-adv-x="333" 
d="M37 219q30 8 59 8q28 0 55 -4t55 -4q17 0 32.5 2.5t31.5 7.5l-11 -74q-26 -6 -52 -6q-24 0 -47.5 4t-40.5 4q-23 0 -45 -2t-44 -8z" />
    <glyph glyph-name="hyphen" unicode="&#xad;" horiz-adv-x="333" 
d="M37 219q30 8 59 8q28 0 55 -4t55 -4q17 0 32.5 2.5t31.5 7.5l-11 -74q-26 -6 -52 -6q-24 0 -47.5 4t-40.5 4q-23 0 -45 -2t-44 -8z" />
    <glyph glyph-name="i" unicode="i" horiz-adv-x="259" 
d="M110 672q22 0 37.5 -16.5t15.5 -38.5t-15.5 -38.5t-37.5 -16.5t-37.5 16.5t-15.5 38.5t15.5 38.5t37.5 16.5zM81 249q0 24 -1.5 42.5t-9 31t-22.5 20.5t-41 11v14l152 10v-294q0 -24 4 -39t13.5 -23t24.5 -10.5t37 -3.5v-12q-35 2 -70.5 3t-70.5 1q-23 0 -45 -1t-45 -3
v12q20 1 34 3.5t23 10.5t13 23t4 39v165z" />
    <glyph glyph-name="iacute" unicode="&#xed;" horiz-adv-x="259" 
d="M165 563q17 19 29.5 30.5t26.5 11.5q41 0 41 -32q0 -11 -8.5 -23.5t-20.5 -20.5l-140 -96h-44zM81 249q0 24 -1.5 42.5t-9 31t-22.5 20.5t-41 11v14l152 10v-294q0 -24 4 -39t13.5 -23t24.5 -10.5t37 -3.5v-12q-35 2 -70.5 3t-70.5 1q-23 0 -45 -1t-45 -3v12q20 1 34 3.5
t23 10.5t13 23t4 39v165z" />
    <glyph glyph-name="icircumflex" unicode="&#xee;" horiz-adv-x="259" 
d="M78 605h69l113 -172h-41l-106 110l-107 -110h-39zM81 249q0 24 -1.5 42.5t-9 31t-22.5 20.5t-41 11v14l152 10v-294q0 -24 4 -39t13.5 -23t24.5 -10.5t37 -3.5v-12q-35 2 -70.5 3t-70.5 1q-23 0 -45 -1t-45 -3v12q20 1 34 3.5t23 10.5t13 23t4 39v165z" />
    <glyph glyph-name="idieresis" unicode="&#xef;" horiz-adv-x="259" 
d="M20 553q23 0 38 -15t15 -38t-15 -38t-38 -15t-38 15t-15 38t15 38t38 15zM205 553q23 0 38 -15t15 -38t-15 -38t-38 -15t-38 15t-15 38t15 38t38 15zM81 249q0 24 -1.5 42.5t-9 31t-22.5 20.5t-41 11v14l152 10v-294q0 -24 4 -39t13.5 -23t24.5 -10.5t37 -3.5v-12
q-35 2 -70.5 3t-70.5 1q-23 0 -45 -1t-45 -3v12q20 1 34 3.5t23 10.5t13 23t4 39v165z" />
    <glyph glyph-name="igrave" unicode="&#xec;" horiz-adv-x="259" 
d="M144 433l-140 96q-12 8 -20.5 20.5t-8.5 23.5q0 32 41 32q14 0 26.5 -11.5t29.5 -30.5l116 -130h-44zM81 249q0 24 -1.5 42.5t-9 31t-22.5 20.5t-41 11v14l152 10v-294q0 -24 4 -39t13.5 -23t24.5 -10.5t37 -3.5v-12q-35 2 -70.5 3t-70.5 1q-23 0 -45 -1t-45 -3v12
q20 1 34 3.5t23 10.5t13 23t4 39v165z" />
    <glyph glyph-name="j" unicode="j" horiz-adv-x="259" 
d="M117 674q22 0 37.5 -16.5t15.5 -38.5t-15.5 -38.5t-37.5 -16.5t-37.5 16.5t-15.5 38.5t15.5 38.5t37.5 16.5zM14 368l152 10v-344q0 -48 -17 -88t-45 -74.5t-64 -64.5t-73 -57l-12 14q40 35 66 66.5t41 65t20.5 73.5t5.5 93v196q0 47 -16 71.5t-58 24.5v14z" />
    <glyph glyph-name="k" unicode="k" horiz-adv-x="537" 
d="M5 8q27 3 41.5 10t21 20t8 33.5t1.5 50.5v464q0 29 -4.5 47.5t-13.5 29t-23.5 14.5t-33.5 5v12l153 18v-537q11 10 35.5 28.5t49.5 40t44 43.5t19 38t-7.5 22.5t-22.5 8.5v12h195v-12q-30 -5 -56 -17.5t-50 -29t-46.5 -35.5l-44.5 -37q23 -27 49 -64t56 -72t64.5 -61.5
t73.5 -31.5v-12q-30 2 -60.5 3t-61.5 1q-32 0 -63 -1t-63 -3v12q17 -1 35 7t18 29q0 13 -12.5 33.5t-29 42.5t-33.5 42t-25 32l-64 -48v-74q0 -32 14 -45.5t56 -18.5v-12q-33 2 -65.5 3t-65.5 1q-23 0 -44.5 -1t-44.5 -3v12z" />
    <glyph glyph-name="l" unicode="l" horiz-adv-x="259" 
d="M-1 8q25 2 40 7.5t23 16.5t10 30t2 48v502q0 39 -12 54.5t-57 15.5v12l147 18v-602q0 -29 2 -48t10.5 -30t24 -16.5t42.5 -7.5v-12q-29 2 -59.5 3t-60.5 1q-29 0 -56.5 -1t-55.5 -3v12z" />
    <glyph glyph-name="less" unicode="&#x3c;" 
d="M433 -6l-366 159v50l366 171v-50l-320 -146l320 -135v-49z" />
    <glyph glyph-name="logicalnot" unicode="&#xac;" 
d="M383 230h-316v50h366v-201h-50v151z" />
    <glyph glyph-name="m" unicode="m" horiz-adv-x="778" 
d="M158 68q0 -33 18 -43.5t51 -16.5v-12q-29 2 -61.5 3t-66.5 1q-23 0 -45 -1t-47 -3v12q36 6 54.5 16.5t18.5 43.5v204q0 24 -3.5 38t-11.5 22t-21 10.5t-32 3.5v12l146 20v-50q32 23 64 39.5t73 16.5q35 0 61.5 -14t48.5 -41q13 9 29 18.5t33 17.5t35 13.5t35 5.5
q62 0 98.5 -34.5t36.5 -103.5v-178q0 -33 18.5 -43.5t54.5 -16.5v-12q-32 2 -65 3t-67 1q-23 0 -44 -1t-39 -3v12q29 6 46.5 16.5t17.5 43.5v168q0 49 -24.5 73.5t-56.5 24.5q-62 0 -98 -32v-234q0 -33 18 -43.5t51 -16.5v-12q-29 2 -61.5 3t-66.5 1q-23 0 -44 -1t-39 -3v12
q29 6 46.5 16.5t17.5 43.5v168q0 49 -15 76.5t-66 27.5q-15 0 -26.5 -2.5t-22.5 -8.5t-22.5 -15.5t-26.5 -23.5v-222z" />
    <glyph glyph-name="macron" unicode="&#xaf;" horiz-adv-x="259" 
d="M-12 472v56h284v-56h-284z" />
    <glyph glyph-name="macron" unicode="&#x2c9;" horiz-adv-x="259" 
d="M-12 472v56h284v-56h-284z" />
    <glyph glyph-name="mu" unicode="&#xb5;" horiz-adv-x="537" 
d="M156 -243q-38 -2 -76 -3.5t-76 -3.5v12q25 4 40 9t22.5 15.5t9.5 28.5t2 49v437q0 30 -17 41t-58 16v13l153 7v-256q0 -41 22 -64.5t63 -23.5q32 0 63.5 15.5t46.5 32.5v211q0 13 -2 24t-10 19.5t-24 15t-43 10.5v11l157 5v-301q0 -38 19.5 -50.5t54.5 -14.5v-10
q-38 -2 -76.5 -3t-75.5 -3v52q-35 -26 -73.5 -45t-83.5 -19q-20 0 -38 5v-232z" />
    <glyph glyph-name="mu" unicode="&#x3bc;" horiz-adv-x="537" 
d="M156 -243q-38 -2 -76 -3.5t-76 -3.5v12q25 4 40 9t22.5 15.5t9.5 28.5t2 49v437q0 30 -17 41t-58 16v13l153 7v-256q0 -41 22 -64.5t63 -23.5q32 0 63.5 15.5t46.5 32.5v211q0 13 -2 24t-10 19.5t-24 15t-43 10.5v11l157 5v-301q0 -38 19.5 -50.5t54.5 -14.5v-10
q-38 -2 -76.5 -3t-75.5 -3v52q-35 -26 -73.5 -45t-83.5 -19q-20 0 -38 5v-232z" />
    <glyph glyph-name="n" unicode="n" horiz-adv-x="537" 
d="M14 356l146 22v-53q27 21 62 40t67 19q28 0 53.5 -7t45.5 -23t32 -43t12 -67v-176q0 -33 18 -43.5t52 -16.5v-12q-29 2 -62 3t-67 1q-23 0 -44.5 -1t-41.5 -3v12q32 6 49.5 16.5t17.5 43.5v161q0 51 -22 79t-69 28q-17 0 -35 -5t-33 -13.5t-25 -18.5t-10 -19v-212
q0 -33 19 -43.5t57 -16.5v-12q-34 2 -67.5 3t-67.5 1q-23 0 -44.5 -1t-44.5 -3v12q34 6 52 16.5t18 43.5v232q0 30 -20.5 37t-47.5 7v12z" />
    <glyph glyph-name="nine" unicode="9" 
d="M221 636q-31 0 -51.5 -14.5t-32.5 -36.5t-17 -49t-5 -52q0 -27 8 -59.5t24.5 -60t40.5 -46t57 -18.5q30 0 51 10t34 28t18.5 42t5.5 52q0 30 -7 65.5t-22.5 66t-41 51.5t-62.5 21zM25 8q80 0 140 21t101 60.5t63 95.5t26 126q-28 -19 -59.5 -30t-65.5 -11
q-94 0 -148.5 54t-54.5 148q0 44 15.5 79.5t43 61t64.5 39.5t80 14q60 0 100.5 -23t65.5 -61t35.5 -86.5t10.5 -100.5q0 -94 -22 -170t-71.5 -129.5t-129 -82.5t-194.5 -29v24z" />
    <glyph glyph-name="ntilde" unicode="&#xf1;" horiz-adv-x="537" 
d="M418 571q-5 -21 -12.5 -41t-19 -36t-28.5 -26t-42 -10q-17 0 -34.5 7.5t-34.5 16.5l-32 16.5t-29 7.5q-20 0 -33 -16t-16 -33h-29q4 21 11 41t18.5 35t29 24t41.5 9q16 0 31.5 -7.5l32.5 -16.5q16 -9 32 -16.5t32 -7.5q14 0 23 7t14.5 16t8.5 18t5 12h31zM14 356l146 22
v-53q27 21 62 40t67 19q28 0 53.5 -7t45.5 -23t32 -43t12 -67v-176q0 -33 18 -43.5t52 -16.5v-12q-29 2 -62 3t-67 1q-23 0 -44.5 -1t-41.5 -3v12q32 6 49.5 16.5t17.5 43.5v161q0 51 -22 79t-69 28q-17 0 -35 -5t-33 -13.5t-25 -18.5t-10 -19v-212q0 -33 19 -43.5t57 -16.5
v-12q-34 2 -67.5 3t-67.5 1q-23 0 -44.5 -1t-44.5 -3v12q34 6 52 16.5t18 43.5v232q0 30 -20.5 37t-47.5 7v12z" />
    <glyph glyph-name="numbersign" unicode="#" 
d="M199 396l-21 -142h131l21 142h-131zM335 440l30 210h50l-29 -210h94l3 -44h-103l-20 -142h94l3 -44h-103l-30 -210h-50l30 210h-131l-30 -210h-50l29 210h-102l-3 44h111l20 142h-102l-3 44h111l30 210h50l-30 -210h131z" />
    <glyph glyph-name="o" unicode="o" 
d="M221 354q-28 0 -48.5 -14t-34 -36.5t-20 -51t-6.5 -56.5q0 -32 8.5 -64t26.5 -58.5t45.5 -43t64.5 -16.5q28 0 48.5 14t34 36.5t20 50.5t6.5 57q0 31 -9 63.5t-27 59t-45 43t-64 16.5zM239 384q48 0 87.5 -14.5t68 -40.5t44 -63t15.5 -82t-15.5 -82t-44 -63t-68 -40.5
t-87.5 -14.5t-87.5 14.5t-68 40.5t-44 63t-15.5 82t15.5 82t44 63t68 40.5t87.5 14.5z" />
    <glyph glyph-name="oacute" unicode="&#xf3;" 
d="M297 563q17 19 29.5 30.5t26.5 11.5q41 0 41 -32q0 -11 -8.5 -23.5t-20.5 -20.5l-140 -96h-44zM221 354q-28 0 -48.5 -14t-34 -36.5t-20 -51t-6.5 -56.5q0 -32 8.5 -64t26.5 -58.5t45.5 -43t64.5 -16.5q28 0 48.5 14t34 36.5t20 50.5t6.5 57q0 31 -9 63.5t-27 59t-45 43
t-64 16.5zM239 384q48 0 87.5 -14.5t68 -40.5t44 -63t15.5 -82t-15.5 -82t-44 -63t-68 -40.5t-87.5 -14.5t-87.5 14.5t-68 40.5t-44 63t-15.5 82t15.5 82t44 63t68 40.5t87.5 14.5z" />
    <glyph glyph-name="ocircumflex" unicode="&#xf4;" 
d="M210 605h69l113 -172h-41l-106 110l-107 -110h-39zM221 354q-28 0 -48.5 -14t-34 -36.5t-20 -51t-6.5 -56.5q0 -32 8.5 -64t26.5 -58.5t45.5 -43t64.5 -16.5q28 0 48.5 14t34 36.5t20 50.5t6.5 57q0 31 -9 63.5t-27 59t-45 43t-64 16.5zM239 384q48 0 87.5 -14.5
t68 -40.5t44 -63t15.5 -82t-15.5 -82t-44 -63t-68 -40.5t-87.5 -14.5t-87.5 14.5t-68 40.5t-44 63t-15.5 82t15.5 82t44 63t68 40.5t87.5 14.5z" />
    <glyph glyph-name="odieresis" unicode="&#xf6;" 
d="M337 553q23 0 38 -15t15 -38t-15 -38t-38 -15t-38 15t-15 38t15 38t38 15zM152 553q23 0 38 -15t15 -38t-15 -38t-38 -15t-38 15t-15 38t15 38t38 15zM221 354q-28 0 -48.5 -14t-34 -36.5t-20 -51t-6.5 -56.5q0 -32 8.5 -64t26.5 -58.5t45.5 -43t64.5 -16.5q28 0 48.5 14
t34 36.5t20 50.5t6.5 57q0 31 -9 63.5t-27 59t-45 43t-64 16.5zM239 384q48 0 87.5 -14.5t68 -40.5t44 -63t15.5 -82t-15.5 -82t-44 -63t-68 -40.5t-87.5 -14.5t-87.5 14.5t-68 40.5t-44 63t-15.5 82t15.5 82t44 63t68 40.5t87.5 14.5z" />
    <glyph glyph-name="oe" unicode="&#x153;" horiz-adv-x="759" 
d="M618 242q0 20 -6 40t-18 36t-29.5 26t-40.5 10t-40.5 -10t-29.5 -26t-18 -36t-6 -40h188zM219 354q-28 0 -49 -12.5t-34.5 -32.5t-20 -45t-6.5 -50q0 -30 7 -65t22.5 -65t40 -50t60.5 -20q32 0 54.5 14t36.5 37.5t20 54t6 63.5q0 29 -9.5 59.5t-27 55t-43 40.5t-57.5 16z
M430 212q0 -51 12.5 -85t32 -54.5t44.5 -29.5t51 -9q38 0 70 18.5t56 41.5l16 -16q-42 -45 -85.5 -69.5t-106.5 -24.5q-40 0 -75 20t-57 53q-64 -73 -166 -73q-42 0 -78.5 14.5t-63.5 40.5t-43 63t-16 82t16 82t43 63t63.5 40.5t78.5 14.5q27 0 49 -3.5t41.5 -11t38.5 -20
t39 -31.5q29 29 61.5 47.5t74.5 18.5q79 0 127.5 -47t56.5 -125h-280z" />
    <glyph glyph-name="ogonek" unicode="&#x2db;" horiz-adv-x="259" 
d="M258 10q-17 -6 -42.5 -17.5t-50.5 -27t-42.5 -35t-17.5 -42.5t14.5 -37.5t37.5 -14.5q29 0 54.5 12.5t48.5 28.5l17 -32q-35 -23 -72 -40t-79 -17q-19 0 -36.5 6t-30.5 17.5t-20.5 27t-7.5 35.5q0 36 26 61.5t62.5 42.5t75 26.5t63.5 14.5v-9z" />
    <glyph glyph-name="ograve" unicode="&#xf2;" 
d="M276 433l-140 96q-12 8 -20.5 20.5t-8.5 23.5q0 32 41 32q14 0 26.5 -11.5t29.5 -30.5l116 -130h-44zM221 354q-28 0 -48.5 -14t-34 -36.5t-20 -51t-6.5 -56.5q0 -32 8.5 -64t26.5 -58.5t45.5 -43t64.5 -16.5q28 0 48.5 14t34 36.5t20 50.5t6.5 57q0 31 -9 63.5t-27 59
t-45 43t-64 16.5zM239 384q48 0 87.5 -14.5t68 -40.5t44 -63t15.5 -82t-15.5 -82t-44 -63t-68 -40.5t-87.5 -14.5t-87.5 14.5t-68 40.5t-44 63t-15.5 82t15.5 82t44 63t68 40.5t87.5 14.5z" />
    <glyph glyph-name="one" unicode="1" 
d="M97 8q29 3 49.5 8t34 16.5t19.5 31.5t6 54v377q0 38 -3.5 60.5t-14 34.5t-31.5 15.5t-55 4.5v16q39 2 82.5 11t78.5 29h23v-594q0 -17 5 -27.5t17 -17.5t32.5 -11t50.5 -8v-12q-39 2 -78 3t-78 1q-35 0 -69 -1t-69 -3v12z" />
    <glyph glyph-name="ordfeminine" unicode="&#xaa;" horiz-adv-x="278" 
d="M162 535q-9 3 -18.5 3.5t-20.5 0.5q-23 0 -43 -9.5t-20 -34.5q0 -19 13.5 -27t31.5 -8q19 0 35 7.5t22 12.5v55zM23 611q12 37 38.5 46t62.5 9q17 0 33.5 -3.5t30 -11.5t22 -22.5t8.5 -35.5v-104q0 -11 5.5 -20t19.5 -9q13 0 23 6.5t19 13.5l7 -6q-7 -6 -15.5 -14.5
t-18 -16t-19.5 -12.5t-20 -5q-14 0 -28 13.5l-23 21.5q-20 -13 -46.5 -24t-51.5 -11q-28 0 -50 16.5t-22 43.5q0 25 15 39.5t39 22.5t53 10.5t57 2.5v46q0 22 -11 29.5t-31 7.5t-31 -11t-10 -31z" />
    <glyph glyph-name="ordmasculine" unicode="&#xba;" horiz-adv-x="300" 
d="M138 644q-20 0 -32.5 -8.5t-20.5 -22t-11 -29.5t-3 -30q0 -18 5.5 -37t16 -34.5t27 -25t39.5 -9.5q19 0 32.5 9t21.5 22.5t11.5 29.5t3.5 30q0 18 -5.5 37t-17 34t-28.5 24.5t-39 9.5zM149 666q64 0 102.5 -33t38.5 -87t-38.5 -87t-102.5 -33q-63 0 -101.5 33t-38.5 87
t38.5 87t101.5 33z" />
    <glyph glyph-name="oslash" unicode="&#xf8;" 
d="M304 323q-17 14 -37 22.5t-46 8.5q-28 0 -48.5 -14t-34 -36.5t-20 -51t-6.5 -56.5q0 -32 9 -64t27 -59zM168 50q17 -17 39 -26.5t50 -9.5t48.5 14t34 36.5t20 50.5t6.5 57q0 35 -10.5 69t-30.5 60zM416 446l-57 -91q45 -26 70 -69.5t25 -101.5q0 -45 -15.5 -82t-44 -63
t-68 -40.5t-87.5 -14.5q-57 0 -100 20l-60 -96l-25 15l59 94q-42 26 -65.5 68.5t-23.5 98.5q0 45 15.5 82t44 63t68 40.5t87.5 14.5q50 0 93 -16l58 93z" />
    <glyph glyph-name="otilde" unicode="&#xf5;" 
d="M400 571q-5 -21 -12.5 -41t-19 -36t-28.5 -26t-42 -10q-17 0 -34.5 7.5t-34.5 16.5l-32 16.5t-29 7.5q-20 0 -33 -16t-16 -33h-29q4 21 11 41t18.5 35t29 24t41.5 9q16 0 31.5 -7.5l32.5 -16.5q16 -9 32 -16.5t32 -7.5q14 0 23 7t14.5 16t8.5 18t5 12h31zM221 354
q-28 0 -48.5 -14t-34 -36.5t-20 -51t-6.5 -56.5q0 -32 8.5 -64t26.5 -58.5t45.5 -43t64.5 -16.5q28 0 48.5 14t34 36.5t20 50.5t6.5 57q0 31 -9 63.5t-27 59t-45 43t-64 16.5zM239 384q48 0 87.5 -14.5t68 -40.5t44 -63t15.5 -82t-15.5 -82t-44 -63t-68 -40.5t-87.5 -14.5
t-87.5 14.5t-68 40.5t-44 63t-15.5 82t15.5 82t44 63t68 40.5t87.5 14.5z" />
    <glyph glyph-name="p" unicode="p" horiz-adv-x="537" 
d="M152 89q11 -30 45.5 -52.5t78.5 -22.5q62 0 92 47t30 119q0 30 -7.5 60t-22.5 54t-38 39t-54 15q-44 0 -78.5 -17t-45.5 -44v-198zM152 -151q0 -24 3 -39t15.5 -24t37 -13t67.5 -5v-12q-37 2 -74 3t-74 1q-34 0 -67.5 -1t-67.5 -3v12q21 2 36 5.5t25.5 11t15.5 21t5 36.5
v436q0 21 -4 34.5t-13 21.5t-23 12t-35 6v11l153 15v-42q36 26 67.5 37t75.5 11t79.5 -15t60 -42t38 -64t13.5 -81q0 -46 -17.5 -82.5t-47 -62t-69 -39.5t-82.5 -14q-31 0 -61 7.5t-57 24.5v-167z" />
    <glyph glyph-name="paragraph" unicode="&#xb6;" horiz-adv-x="600" 
d="M404 -212v832h-59v-832h-50v451q-54 0 -93 15.5t-63.5 43.5t-36.5 67.5t-12 86.5q0 52 11.5 89.5t36.5 61.5t65 35.5t96 11.5h240v-22q-23 0 -39 -3t-26.5 -12t-15 -26.5t-4.5 -46.5v-752h-50z" />
    <glyph glyph-name="parenleft" unicode="(" horiz-adv-x="389" 
d="M369 678q-49 -50 -85.5 -100t-60.5 -102.5t-36 -109.5t-12 -122q0 -68 14.5 -128.5t40.5 -114.5t62 -101.5t80 -89.5l-13 -10q-53 44 -102 91.5t-86.5 101.5t-60.5 116t-23 135q0 69 23 132.5t61 119.5t87 104.5t102 87.5z" />
    <glyph glyph-name="parenright" unicode=")" horiz-adv-x="389" 
d="M3 -190q49 50 85.5 100t60.5 102.5t36 109.5t12 122q0 68 -14.5 128.5t-40.5 114.5t-62.5 101.5t-79.5 89.5l13 10q52 -44 101.5 -91.5t87 -101.5t60.5 -116t23 -135q0 -69 -23 -132.5t-61 -119.5t-87.5 -104.5t-101.5 -87.5z" />
    <glyph glyph-name="percent" unicode="%" horiz-adv-x="833" 
d="M605 656l-369 -662h-38l368 662h39zM101 459q0 -50 6.5 -84t17.5 -55t25.5 -30.5t30.5 -9.5t30.5 9.5t25 30.5t16.5 55t6 84t-6 83.5t-16.5 54t-25 29t-30.5 8.5t-30.5 -8.5t-25.5 -29t-17.5 -54t-6.5 -83.5zM543 195q0 -50 6.5 -84t17.5 -55t25.5 -30.5t30.5 -9.5
t30.5 9.5t25 30.5t16.5 55t6 84t-6 83.5t-16.5 54t-25 29t-30.5 8.5t-30.5 -8.5t-25.5 -29t-17.5 -54t-6.5 -83.5zM35 457q0 52 14 89.5t35.5 62t47 36t48.5 11.5t48.5 -11.5t47 -36t35.5 -62t14 -89.5t-14 -89.5t-35.5 -62t-47 -36t-48.5 -11.5t-48.5 11.5t-47 36t-35.5 62
t-14 89.5zM477 193q0 52 14 89.5t35.5 62t47 36t48.5 11.5t48.5 -11.5t47 -36t35.5 -62t14 -89.5t-14 -89.5t-35.5 -62t-47 -36t-48.5 -11.5t-48.5 11.5t-47 36t-35.5 62t-14 89.5z" />
    <glyph glyph-name="period" unicode="." horiz-adv-x="250" 
d="M112 106q23 0 39.5 -16t16.5 -40t-16.5 -40t-39.5 -16t-39.5 16t-16.5 40t16.5 40t39.5 16z" />
    <glyph glyph-name="periodcentered" unicode="&#xb7;" horiz-adv-x="250" 
d="M125 240q23 0 39.5 -16t16.5 -40t-16.5 -40t-39.5 -16t-39.5 16t-16.5 40t16.5 40t39.5 16z" />
    <glyph glyph-name="periodcentered" unicode="&#x2219;" horiz-adv-x="250" 
d="M125 240q23 0 39.5 -16t16.5 -40t-16.5 -40t-39.5 -16t-39.5 16t-16.5 40t16.5 40t39.5 16z" />
    <glyph glyph-name="perthousand" unicode="&#x2030;" horiz-adv-x="1000" 
d="M126 -6l373 662h40l-371 -662h-42zM782 195q0 -50 6.5 -84t17.5 -55t25.5 -30.5t30.5 -9.5t30.5 9.5t25 30.5t16.5 55t6 84t-6 83.5t-16.5 54t-25 29t-30.5 8.5t-30.5 -8.5t-25.5 -29t-17.5 -54t-6.5 -83.5zM441 195q0 -50 6.5 -84t17.5 -55t25.5 -30.5t30.5 -9.5
t30.5 9.5t25 30.5t16.5 55t6 84t-6 83.5t-16.5 54t-25 29t-30.5 8.5t-30.5 -8.5t-25.5 -29t-17.5 -54t-6.5 -83.5zM68 459q0 -50 6.5 -84t17.5 -55t25.5 -30.5t30.5 -9.5t30.5 9.5t25 30.5t16.5 55t6 84t-6 83.5t-16.5 54t-25 29t-30.5 8.5t-30.5 -8.5t-25.5 -29t-17.5 -54
t-6.5 -83.5zM375 193q0 52 14 89.5t35.5 62t47 36t48.5 11.5t48.5 -11.5t47 -36t35.5 -62t14 -89.5t-14 -89.5t-35.5 -62t-47 -36t-48.5 -11.5t-48.5 11.5t-47 36t-35.5 62t-14 89.5zM2 457q0 52 14 89.5t35.5 62t47 36t48.5 11.5t48.5 -11.5t47 -36t35.5 -62t14 -89.5
t-14 -89.5t-35.5 -62t-47 -36t-48.5 -11.5t-48.5 11.5t-47 36t-35.5 62t-14 89.5zM716 193q0 52 14 89.5t35.5 62t47 36t48.5 11.5t48.5 -11.5t47 -36t35.5 -62t14 -89.5t-14 -89.5t-35.5 -62t-47 -36t-48.5 -11.5t-48.5 11.5t-47 36t-35.5 62t-14 89.5z" />
    <glyph glyph-name="plus" unicode="+" 
d="M225 368h50v-159h158v-50h-158v-159h-50v159h-158v50h158v159z" />
    <glyph glyph-name="plusminus" unicode="&#xb1;" 
d="M67 50h366v-50h-366v50zM225 368h50v-111h158v-50h-158v-112h-50v112h-158v50h158v111z" />
    <glyph glyph-name="q" unicode="q" horiz-adv-x="537" 
d="M360 255q-3 18 -14 36.5t-29.5 33t-42.5 24t-52 9.5q-32 0 -53.5 -14t-35 -35.5t-19.5 -48t-6 -51.5q0 -86 40.5 -137.5t111.5 -51.5q73 0 100 41v194zM375 374h87q-18 -24 -21 -44.5t-3 -49.5v-439q0 -21 5 -34.5t15.5 -21.5t27 -11.5t39.5 -5.5v-12q-32 2 -64 3t-64 1
q-40 0 -79.5 -1t-79.5 -3v12q39 1 62.5 4t37 9.5t18 18.5t4.5 32v191q-26 -17 -60 -28t-66 -11q-50 0 -90 16t-67.5 43.5t-42 63.5t-14.5 76q0 48 17.5 85.5t47.5 63t68.5 39t80.5 13.5q68 0 129 -32z" />
    <glyph glyph-name="question" unicode="?" 
d="M228 104q23 0 39.5 -16t16.5 -40t-16.5 -40t-39.5 -16t-39.5 16t-16.5 40t16.5 40t39.5 16zM213 156q-2 18 -4.5 35.5t-2.5 34.5q0 55 16 93.5t35 73t35 70t16 85.5q0 18 -4 36t-13 32t-24 23t-36 9q-44 0 -61.5 -29.5t-17.5 -68.5q0 -11 2 -23.5l4 -24.5l-71 -19
q-4 10 -5.5 21.5t-1.5 22.5q0 36 13 63t35.5 44.5t52.5 26.5t63 9q31 0 58.5 -10.5t48.5 -29t33 -45t12 -58.5q0 -45 -18.5 -78t-43.5 -62.5l-51 -61t-42 -73.5q-17 -45 -15 -96h-13z" />
    <glyph glyph-name="questiondown" unicode="&#xbf;" 
d="M272 314q-23 0 -39.5 16t-16.5 40t16.5 40t39.5 16t39.5 -16t16.5 -40t-16.5 -40t-39.5 -16zM287 264q2 -18 4.5 -35.5t2.5 -34.5q0 -36 -7.5 -65t-19 -54t-24.5 -47.5t-24.5 -46t-19 -50t-7.5 -59.5q0 -18 4 -36t13 -32t24 -23t36 -9q44 0 61.5 29.5t17.5 68.5
q0 11 -2 23.5l-4 24.5l71 19q4 -10 5.5 -21.5t1.5 -22.5q0 -36 -13.5 -63t-36 -44.5t-52 -26.5t-62.5 -9q-31 0 -58.5 10.5t-48.5 29t-33 45t-12 58.5q0 45 18.5 78t43.5 62.5l51 61t42 73.5q17 45 15 96h13z" />
    <glyph glyph-name="quotedbl" unicode="&#x22;" horiz-adv-x="333" 
d="M113 385q0 -3 -0.5 -8t-2 -10.5t-4 -9t-8.5 -3.5t-8.5 3.5t-4 9t-2 10.5t-0.5 8l-16 204q-1 5 -1 11v14q0 33 8.5 44.5t23.5 11.5t23.5 -11.5t8.5 -44.5v-14q0 -6 -1 -11zM250 385q0 -3 -0.5 -8t-2 -10.5t-4 -9t-8.5 -3.5t-8.5 3.5t-4 9t-2 10.5t-0.5 8l-16 204
q-1 5 -1 11v14q0 33 8.5 44.5t23.5 11.5t23.5 -11.5t8.5 -44.5v-14q0 -6 -1 -11z" />
    <glyph glyph-name="quotedblbase" unicode="&#x201e;" horiz-adv-x="389" 
d="M221 -95q22 18 37.5 39t15.5 51q0 17 -5.5 37t-5.5 43q0 17 11 31t28 14q28 0 38.5 -19t10.5 -44q0 -27 -11 -51t-28 -45t-38.5 -38t-43.5 -29zM54 -95q22 18 37.5 39t15.5 51q0 17 -5.5 37t-5.5 43q0 17 11 31t28 14q28 0 38.5 -19t10.5 -44q0 -27 -11 -51t-28 -45
t-38.5 -38t-43.5 -29z" />
    <glyph glyph-name="quotedblleft" unicode="&#x201c;" horiz-adv-x="389" 
d="M168 695q-22 -18 -37.5 -39t-15.5 -51q0 -17 5.5 -37t5.5 -43q0 -17 -11 -31t-28 -14q-28 0 -38.5 19t-10.5 44q0 27 10.5 51t28 45t39 38t43.5 29zM335 695q-22 -18 -37.5 -39t-15.5 -51q0 -17 5.5 -37t5.5 -43q0 -17 -11 -31t-28 -14q-28 0 -38.5 19t-10.5 44
q0 27 10.5 51t28 45t39 38t43.5 29z" />
    <glyph glyph-name="quotedblright" unicode="&#x201d;" horiz-adv-x="389" 
d="M221 481q22 18 37.5 39t15.5 51q0 17 -5.5 37t-5.5 43q0 17 11 31t28 14q28 0 38.5 -19t10.5 -44q0 -27 -11 -51t-28 -45t-38.5 -38t-43.5 -29zM54 481q22 18 37.5 39t15.5 51q0 17 -5.5 37t-5.5 43q0 17 11 31t28 14q28 0 38.5 -19t10.5 -44q0 -27 -11 -51t-28 -45
t-38.5 -38t-43.5 -29z" />
    <glyph glyph-name="quoteleft" unicode="&#x2018;" horiz-adv-x="222" 
d="M168 695q-22 -18 -37.5 -39t-15.5 -51q0 -17 5.5 -37t5.5 -43q0 -17 -11 -31t-28 -14q-28 0 -38.5 19t-10.5 44q0 27 10.5 51t28 45t39 38t43.5 29z" />
    <glyph glyph-name="quoteright" unicode="&#x2019;" horiz-adv-x="222" 
d="M54 481q22 18 37.5 39t15.5 51q0 17 -5.5 37t-5.5 43q0 17 11 31t28 14q28 0 38.5 -19t10.5 -44q0 -27 -11 -51t-28 -45t-38.5 -38t-43.5 -29z" />
    <glyph glyph-name="quotesinglbase" unicode="&#x201a;" horiz-adv-x="222" 
d="M54 -95q22 18 37.5 39t15.5 51q0 17 -5.5 37t-5.5 43q0 17 11 31t28 14q28 0 38.5 -19t10.5 -44q0 -27 -11 -51t-28 -45t-38.5 -38t-43.5 -29z" />
    <glyph glyph-name="quotesingle" unicode="'" horiz-adv-x="222" 
d="M126 385q0 -3 -0.5 -8t-2 -10.5t-4 -9t-8.5 -3.5t-8.5 3.5t-4 9t-2 10.5t-0.5 8l-16 204q-1 5 -1 11v14q0 33 8.5 44.5t23.5 11.5t23.5 -11.5t8.5 -44.5v-14q0 -6 -1 -11z" />
    <glyph glyph-name="r" unicode="r" horiz-adv-x="389" 
d="M9 8q34 6 52 16.5t18 43.5v232q0 30 -20.5 37t-47.5 7v12l146 22v-57q12 8 27.5 21t32.5 25.5t35.5 21.5t35.5 9q39 0 58.5 -21.5t21.5 -59.5l-80 -42l4 14.5t2 19.5q0 14 -10 26.5t-27 12.5q-14 0 -28 -7.5t-27 -18t-24.5 -22l-20.5 -20.5v-212q0 -33 19 -43.5t57 -16.5
v-12q-34 2 -67.5 3t-67.5 1q-23 0 -44.5 -1t-44.5 -3v12z" />
    <glyph glyph-name="registered" unicode="&#xae;" horiz-adv-x="800" 
d="M352 328h43q37 0 53 25t16 65q0 44 -21 60.5t-50 16.5h-41v-167zM239 515h177q22 0 43 -5.5t37 -17t26 -28.5t10 -41q0 -38 -23 -65.5t-58 -39.5l58 -79q20 -27 41 -50.5t35 -34.5v-8h-64q-12 0 -23.5 12t-25 33.5l-31 51.5t-41.5 65h-48v-97q0 -17 0.5 -26t5 -13.5
t14.5 -6t29 -3.5v-16h-162v16q18 2 28 3.5t14.5 6t5.5 13.5t1 26v239q0 17 -1 26t-5.5 13.5t-14.5 5.5t-28 3v17zM400 22q58 0 110 24.5t90 66.5t60.5 96.5t22.5 114.5q0 61 -22 116t-60.5 97t-90 66.5t-110.5 24.5t-110.5 -25t-89.5 -67t-60.5 -97t-22.5 -115t22.5 -114.5
t61 -96.5t90 -66.5t109.5 -24.5zM400 -20q-71 0 -132 27t-107 73.5t-72 109t-26 134.5t26 135t72 110t107 74t132 27t132.5 -27t107 -74t71.5 -110t26 -135t-26 -134.5t-71.5 -109t-107 -73.5t-132.5 -27z" />
    <glyph glyph-name="ring" unicode="&#x2da;" horiz-adv-x="259" 
d="M68 536q0 -26 18 -44t44 -18t44 18t18 44t-18 44t-44 18t-44 -18t-18 -44zM28 536q0 43 29.5 72.5t72.5 29.5t72.5 -29.5t29.5 -72.5t-29.5 -72.5t-72.5 -29.5t-72.5 29.5t-29.5 72.5z" />
    <glyph glyph-name="s" unicode="s" horiz-adv-x="389" 
d="M29 127h14q14 -21 31.5 -41t38.5 -36t45 -26t51 -10q13 0 26.5 2.5t24.5 8.5t18 16t7 25q0 25 -18.5 41t-45.5 28t-59.5 22.5t-59.5 25t-45.5 35.5t-18.5 54q0 54 33.5 83t84.5 29q38 0 73.5 -10t73.5 -12l6 -106h-13q-11 19 -25.5 36.5t-33 31t-39.5 22t-43 8.5
q-25 0 -45 -11t-20 -40q0 -21 18.5 -34.5t45.5 -25t59.5 -22.5t59.5 -26.5t45.5 -38t18.5 -55.5q0 -35 -11.5 -57.5t-31.5 -35.5t-46.5 -18.5t-56.5 -5.5q-47 0 -87.5 12t-66.5 15z" />
    <glyph glyph-name="section" unicode="&#xa7;" 
d="M307 140q29 0 49 17t20 47q0 25 -20 54.5t-48.5 55.5t-61.5 43.5t-58 17.5q-30 0 -47 -20.5t-17 -48.5q0 -25 19.5 -54t48 -54t60 -41.5t55.5 -16.5zM70 277q0 58 37.5 90t93.5 32v2q-17 13 -33.5 28t-29.5 33t-21.5 38t-8.5 43q0 34 12 58t33 39.5t48.5 22.5t58.5 7
q22 0 44 -7.5t39.5 -21.5t28 -33.5t10.5 -43.5q0 -23 -15.5 -35.5t-37.5 -12.5q-25 0 -37 13.5t-12 30.5q0 15 5.5 24t12.5 15l12.5 10.5t5.5 9.5q0 7 -19 17t-51 10q-14 1 -28.5 -3t-26 -14t-18.5 -25t-7 -37t19.5 -44t49 -45.5l63.5 -49.5t63.5 -55.5t49 -63t19.5 -72.5
q0 -54 -33 -87.5t-101 -33.5v-3q18 -13 34.5 -27.5t29.5 -32t20.5 -38t7.5 -44.5q0 -29 -11 -53t-30 -41t-44.5 -26.5t-53.5 -9.5q-27 0 -53.5 8.5t-47 23t-33 33.5t-12.5 40q0 29 14.5 42.5t34.5 13.5q26 0 39.5 -15t13.5 -32q0 -12 -4 -20t-8.5 -14.5l-8 -12t-3.5 -11.5
q0 -10 8 -16t18.5 -9.5t21.5 -5t17 -1.5q38 0 61 20.5t23 58.5q0 26 -19.5 50t-48 47.5t-62.5 48t-62.5 53t-48 61.5t-19.5 73z" />
    <glyph glyph-name="semicolon" unicode=";" horiz-adv-x="250" 
d="M112 380q23 0 39.5 -16t16.5 -40t-16.5 -40t-39.5 -16t-39.5 16t-16.5 40t16.5 40t39.5 16zM14 -107q10 7 21.5 18.5t20.5 25t15 28t6 27.5q0 14 -3 25l-6 21t-6 19t-3 19q0 22 15 35t35 13q26 0 37 -17t11 -49t-11.5 -57.5t-30.5 -46.5t-42.5 -38.5t-47.5 -33.5z" />
    <glyph glyph-name="seven" unicode="7" 
d="M56 491l40 163q37 -2 73.5 -3t73.5 -1h130q10 0 25 0.5l31 1l31 1t25 1.5l7 -16q-54 -64 -115 -146.5t-115 -169.5t-93.5 -171t-51.5 -151h-85q15 52 42 106.5t60.5 108t71 104.5l73.5 97l68.5 85l55.5 69v6h-251q-18 0 -30.5 -8.5t-22 -21.5t-16.5 -28t-15 -28z" />
    <glyph glyph-name="six" unicode="6" 
d="M119 209q0 -58 14 -96t33.5 -60.5t41.5 -31.5t37 -9q31 0 53 14t35.5 35.5t19.5 49t6 54.5q0 33 -6.5 65t-22 58t-41 42t-62.5 16q-27 0 -47.5 -12.5t-34 -32.5t-20 -44t-6.5 -48zM31 240q0 82 32.5 159t87 136.5t127 95t153.5 35.5q12 0 24.5 -6.5t12.5 -18.5
q0 -15 -10 -24t-22 -9q-9 0 -17 2l-16 4t-17 4t-22 2q-50 0 -94 -27.5t-77 -70t-53.5 -95t-23.5 -101.5q12 9 27.5 19t32.5 17.5t34.5 12.5t32.5 5q39 0 76 -10t65.5 -33.5t45.5 -62t17 -96.5q0 -35 -12.5 -69.5t-37.5 -62t-62 -45t-86 -17.5q-58 0 -99.5 20.5t-67.5 55
t-38.5 81t-12.5 99.5z" />
    <glyph glyph-name="slash" unicode="/" horiz-adv-x="278" 
d="M-18 -20l263 690h51l-263 -690h-51z" />
    <glyph glyph-name="Aacute" unicode="&#xc1;" horiz-adv-x="704" 
d="M405 822q17 19 29.5 30.5t26.5 11.5q41 0 41 -32q0 -11 -8.5 -23.5t-20.5 -20.5l-140 -96h-44zM326 573l-98 -254h188zM218 289l-66 -181q-3 -8 -5.5 -14t-2.5 -13q0 -18 10.5 -31t25.5 -21.5t31 -13.5t27 -7v-12q-30 2 -60 3t-61 1q-30 0 -58.5 -1t-60.5 -3v12
q31 7 51.5 21.5t34.5 34.5t24 44l21 50l173 425l5.5 13t2.5 11t-3.5 15t-8.5 18q26 5 45 13l42 17l208 -572q14 -39 39 -61.5t74 -28.5v-12q-40 2 -79 3t-80 1q-27 0 -47 -0.5t-36 -1t-30.5 -1t-31.5 -1.5v12q42 5 70.5 21.5t28.5 44.5q0 8 -3.5 16t-5.5 15l-65 184h-209z
" />
    <glyph glyph-name="sterling" unicode="&#xa3;" 
d="M326 341v-28h-132q0 -29 -2.5 -64t-10.5 -69t-23.5 -64t-42.5 -49l1 -7h175q32 0 52 1.5t35.5 8.5t29.5 22t33 41l10 -7l-64 -130q-45 2 -88 3t-88 1q-52 0 -103 -1t-103 -3v20q23 4 44 15t36.5 36t25 69.5t9.5 116.5q0 14 -1.5 28.5t-2.5 31.5h-77l12 28h65v89
q0 40 13 81.5t36.5 76t56.5 56.5t74 22q24 0 50 -5t47 -17t34.5 -32t13.5 -50q0 -56 -49 -56q-32 0 -32 15q0 9 3.5 18.5t3.5 19.5q0 37 -21 58t-57 21q-48 0 -73.5 -46t-25.5 -131q0 -31 1 -61l2 -59h133z" />
    <glyph glyph-name="t" unicode="t" horiz-adv-x="315" 
d="M-5 337v16q32 1 55 16t40 38t28.5 51t20.5 54h14v-145h137v-30h-137v-233q0 -13 1 -25.5t5.5 -22.5t13.5 -16t24 -6q30 0 50 13t40 33l9 -10l-33 -30.5t-33.5 -28t-38 -20t-44.5 -7.5q-42 0 -57 25.5t-15 60.5v267h-80z" />
    <glyph glyph-name="three" unicode="3" 
d="M461 640l-241 -260l2 -2q25 6 56 6t60 -11.5t50.5 -35.5t34.5 -59.5t13 -83.5q0 -42 -15.5 -80t-45 -67t-73 -46t-99.5 -17q-30 0 -62 7.5t-58.5 23.5t-43.5 41t-17 60q0 24 11.5 41.5t37.5 17.5q29 0 38.5 -18.5t9.5 -43.5q0 -9 -2.5 -18t-2.5 -18q0 -17 10.5 -29
t26 -19.5t33 -11t30.5 -3.5q40 0 66 17t41 44t21 61t6 68q0 23 -6.5 48.5t-20 46.5t-33.5 35t-47 14q-32 0 -50.5 -11t-41.5 -34l-19 15l221 262h-181q-19 0 -31.5 -8.5t-21.5 -21.5t-16 -28.5t-14 -29.5l-14 2l35 160q42 -2 82 -3t82 -1q17 0 41.5 0.5l50.5 1l50.5 1
t41.5 1.5z" />
    <glyph glyph-name="tilde" unicode="&#x2dc;" horiz-adv-x="259" 
d="M285 571q-5 -21 -12.5 -41t-19 -36t-28.5 -26t-42 -10q-17 0 -34.5 7.5t-34.5 16.5l-32 16.5t-29 7.5q-20 0 -33 -16t-16 -33h-29q4 21 11 41t18.5 35t29 24t41.5 9q16 0 31.5 -7.5l32.5 -16.5q16 -9 32 -16.5t32 -7.5q14 0 23 7t14.5 16t8.5 18t5 12h31z" />
    <glyph glyph-name="trademark" unicode="&#x2122;" horiz-adv-x="990" 
d="M231 322q0 -19 0.5 -29.5t5 -15.5t14.5 -7t30 -4v-20h-164v20q19 2 29.5 4t15 7t5 15.5t0.5 29.5v308h-52q-32 0 -46.5 -20t-21.5 -48h-18v88h340v-88h-18q-7 28 -22 48t-46 20h-52v-308zM510 554h-2v-224q0 -32 10 -46t42 -18v-20h-130v20q33 4 42.5 18t9.5 46v250
q-8 23 -27.5 36.5t-40.5 13.5v20h115l157 -315l164 315h98v-20q-32 -2 -44 -16.5t-12 -40.5v-251q0 -19 0.5 -29.5t4.5 -15.5t14 -7t30 -4v-20h-163v20q19 2 29.5 4t15 7t5 15.5t0.5 29.5v235h-2l-155 -314h-9z" />
    <glyph glyph-name="two" unicode="2" 
d="M14 12l151 155q31 33 61 69t53 76.5t37 84t14 91.5q0 24 -6 50.5t-19.5 48t-34 35.5t-49.5 14q-21 0 -41 -4.5t-35.5 -14.5t-25 -27t-9.5 -42q0 -12 5.5 -21.5t12.5 -18.5t12.5 -20t5.5 -27q0 -21 -14 -32t-34 -11q-16 0 -27.5 7.5t-18.5 19t-10.5 25.5t-3.5 28
q0 37 14 67.5t38 53t56 35t68 12.5q97 0 150.5 -52t53.5 -148q0 -38 -16 -75.5t-42.5 -73t-59.5 -70t-67.5 -66l-66.5 -60t-56 -53.5h180q30 0 49 2.5t33.5 11t27.5 23.5t31 40l12 -10l-69 -139q-38 2 -76 3t-76 1q-51 0 -101 -1t-101 -3z" />
    <glyph glyph-name="u" unicode="u" horiz-adv-x="537" 
d="M156 122q0 -41 22 -64.5t63 -23.5q32 0 63.5 15.5t46.5 32.5v211q0 13 -2 24t-10 19.5t-24 15t-43 10.5v11l157 11v-307q0 -38 19.5 -50.5t54.5 -14.5v-10q-38 -2 -76.5 -3t-75.5 -3v52q-35 -26 -73.5 -45t-83.5 -19q-48 0 -82 27t-34 83v207q0 30 -17 41t-58 16v13
l153 13v-262z" />
    <glyph glyph-name="uacute" unicode="&#xfa;" horiz-adv-x="537" 
d="M309 563q17 19 29.5 30.5t26.5 11.5q41 0 41 -32q0 -11 -8.5 -23.5t-20.5 -20.5l-140 -96h-44zM156 122q0 -41 22 -64.5t63 -23.5q32 0 63.5 15.5t46.5 32.5v211q0 13 -2 24t-10 19.5t-24 15t-43 10.5v11l157 11v-307q0 -38 19.5 -50.5t54.5 -14.5v-10q-38 -2 -76.5 -3
t-75.5 -3v52q-35 -26 -73.5 -45t-83.5 -19q-48 0 -82 27t-34 83v207q0 30 -17 41t-58 16v13l153 13v-262z" />
    <glyph glyph-name="ucircumflex" unicode="&#xfb;" horiz-adv-x="537" 
d="M222 605h69l113 -172h-41l-106 110l-107 -110h-39zM156 122q0 -41 22 -64.5t63 -23.5q32 0 63.5 15.5t46.5 32.5v211q0 13 -2 24t-10 19.5t-24 15t-43 10.5v11l157 11v-307q0 -38 19.5 -50.5t54.5 -14.5v-10q-38 -2 -76.5 -3t-75.5 -3v52q-35 -26 -73.5 -45t-83.5 -19
q-48 0 -82 27t-34 83v207q0 30 -17 41t-58 16v13l153 13v-262z" />
    <glyph glyph-name="udieresis" unicode="&#xfc;" horiz-adv-x="537" 
d="M164 553q23 0 38 -15t15 -38t-15 -38t-38 -15t-38 15t-15 38t15 38t38 15zM349 553q23 0 38 -15t15 -38t-15 -38t-38 -15t-38 15t-15 38t15 38t38 15zM156 122q0 -41 22 -64.5t63 -23.5q32 0 63.5 15.5t46.5 32.5v211q0 13 -2 24t-10 19.5t-24 15t-43 10.5v11l157 11
v-307q0 -38 19.5 -50.5t54.5 -14.5v-10q-38 -2 -76.5 -3t-75.5 -3v52q-35 -26 -73.5 -45t-83.5 -19q-48 0 -82 27t-34 83v207q0 30 -17 41t-58 16v13l153 13v-262z" />
    <glyph glyph-name="ugrave" unicode="&#xf9;" horiz-adv-x="537" 
d="M288 433l-140 96q-12 8 -20.5 20.5t-8.5 23.5q0 32 41 32q14 0 26.5 -11.5t29.5 -30.5l116 -130h-44zM156 122q0 -41 22 -64.5t63 -23.5q32 0 63.5 15.5t46.5 32.5v211q0 13 -2 24t-10 19.5t-24 15t-43 10.5v11l157 11v-307q0 -38 19.5 -50.5t54.5 -14.5v-10
q-38 -2 -76.5 -3t-75.5 -3v52q-35 -26 -73.5 -45t-83.5 -19q-48 0 -82 27t-34 83v207q0 30 -17 41t-58 16v13l153 13v-262z" />
    <glyph glyph-name="underscore" unicode="_" 
d="M0 -125v50h500v-50h-500z" />
    <glyph glyph-name="v" unicode="v" 
d="M-18 372q31 -2 44 -2.5t20 -0.5h16q9 0 32 -1q31 1 45 1h22q9 0 19 0.5t33 2.5v-12q-21 -3 -41 -14t-20 -35q0 -11 6.5 -30.5t16 -43.5t21.5 -49l23.5 -48l21 -41l14.5 -27l29 52l37.5 70t32 68t13.5 48q0 29 -16.5 38t-40.5 12v12q19 -2 47 -3t49 -1q22 0 43.5 1t43.5 3
v-12q-13 -1 -25.5 -6.5t-26 -18t-28.5 -33.5t-31 -53l-69.5 -129t-64.5 -132h-36q-32 72 -69.5 147.5t-67.5 144.5q-13 29 -36 52t-57 28v12z" />
    <glyph glyph-name="w" unicode="w" horiz-adv-x="741" 
d="M-27 372q19 -1 33.5 -1.5t27.5 -1l26.5 -1t30.5 -0.5q27 0 54 1t54 3v-13q-21 -1 -38.5 -14.5t-17.5 -36.5q0 -18 12 -48.5t28 -64.5l31.5 -65t23.5 -50l101 198q-9 26 -30.5 52t-56.5 30v12q10 -1 19.5 -1.5t20.5 -1t25.5 -1t34.5 -0.5q32 0 63 1t62 3v-12
q-26 -1 -44.5 -14.5t-18.5 -39.5q0 -14 12.5 -45.5t29 -67l32 -68.5t21.5 -49l24.5 47t32.5 67t28 66t12 45q0 30 -13 42.5t-42 16.5v12q23 -2 45 -3t45 -1q22 0 44 1t44 3v-12q-24 -3 -42 -18.5t-32.5 -37t-26 -47t-22.5 -47.5l-108 -222h-22l-121 263l-129 -263h-25
l-30.5 71l-33.5 73.5l-33.5 71l-30.5 63.5q-17 35 -43 61t-57 32v12z" />
    <glyph glyph-name="x" unicode="x" horiz-adv-x="519" 
d="M-13 8q35 10 64.5 30.5t56 45.5t51.5 51.5t52 49.5q-23 25 -45 53.5t-46.5 54t-54 44t-66.5 23.5v12q32 -3 64 -3.5t64 -0.5q28 0 55.5 0.5t55.5 3.5v-13q-11 -2 -26 -10t-15 -22q0 -8 7.5 -22.5t18 -30t21.5 -29t18 -19.5l22 21t22.5 23t18 25.5t7.5 28.5t-13.5 23
t-26.5 12v13q26 -3 52.5 -3.5t52.5 -0.5q23 0 47 0.5t47 3.5v-12q-34 -6 -62 -23.5t-53 -40t-49 -46.5t-49 -45q19 -23 41.5 -54.5t49.5 -61t60 -52.5t73 -29v-12q-32 2 -63.5 3t-63.5 1q-33 0 -66 -1t-66 -3v12q7 0 17 2t19 6.5t15.5 11t6.5 15.5q0 14 -9 30.5t-21 33
t-24.5 32t-19.5 27.5l-26.5 -24.5t-32.5 -33t-27.5 -35.5t-11.5 -33q0 -9 5.5 -15.5t13 -10t16.5 -5t17 -1.5v-12q-24 2 -47.5 3t-47.5 1q-25 0 -49.5 -1t-49.5 -3v12z" />
    <glyph glyph-name="y" unicode="y" 
d="M-25 372q30 -3 55.5 -3.5t56.5 -0.5q30 0 61 0.5t61 3.5v-12q-22 -3 -42 -13.5t-20 -35.5q0 -20 13 -53.5t30.5 -72l36 -78.5t29.5 -74l16 33l24 52l27 61.5t25 60.5t18.5 49t7.5 28q0 12 -5.5 19t-13.5 11.5t-19 7t-21 5.5v12q23 -3 46 -3.5t47 -0.5q23 0 45 0.5t45 3.5
v-12q-27 -4 -54 -34.5t-49.5 -69.5t-39.5 -76.5t-26 -55.5q-63 -132 -107.5 -207t-79 -112t-63.5 -46t-61 -9q-18 0 -35.5 5t-31 15.5t-22 26.5t-8.5 38q0 20 14.5 36t34.5 16q23 0 37 -11.5t14 -35.5q0 -17 -8 -28.5t-8 -16.5q0 -6 14.5 -7.5t28.5 -1.5q30 0 59 24.5
t51.5 56t36.5 60t14 36.5q0 3 -7.5 21l-19 45l-26.5 60.5l-30.5 67.5l-30 65l-25.5 54l-18 36t-16.5 23t-23 14t-37.5 11v12z" />
    <glyph glyph-name="ydieresis" unicode="&#xff;" 
d="M158 553q23 0 38 -15t15 -38t-15 -38t-38 -15t-38 15t-15 38t15 38t38 15zM343 553q23 0 38 -15t15 -38t-15 -38t-38 -15t-38 15t-15 38t15 38t38 15zM-25 372q30 -3 55.5 -3.5t56.5 -0.5q30 0 61 0.5t61 3.5v-12q-22 -3 -42 -13.5t-20 -35.5q0 -20 13 -53.5t30.5 -72
l36 -78.5t29.5 -74l16 33l24 52l27 61.5t25 60.5t18.5 49t7.5 28q0 12 -5.5 19t-13.5 11.5t-19 7t-21 5.5v12q23 -3 46 -3.5t47 -0.5q23 0 45 0.5t45 3.5v-12q-27 -4 -54 -34.5t-49.5 -69.5t-39.5 -76.5t-26 -55.5q-63 -132 -107.5 -207t-79 -112t-63.5 -46t-61 -9
q-18 0 -35.5 5t-31 15.5t-22 26.5t-8.5 38q0 20 14.5 36t34.5 16q23 0 37 -11.5t14 -35.5q0 -17 -8 -28.5t-8 -16.5q0 -6 14.5 -7.5t28.5 -1.5q30 0 59 24.5t51.5 56t36.5 60t14 36.5q0 3 -7.5 21l-19 45l-26.5 60.5l-30.5 67.5l-30 65l-25.5 54l-18 36t-16.5 23t-23 14
t-37.5 11v12z" />
    <glyph glyph-name="yen" unicode="&#xa5;" 
d="M226 219h-134v28h134v41l-25 47h-109v28h94l-83 157l-19 36.5t-22.5 35t-29 29.5t-37.5 21v12q28 -2 55 -3t55 -1q27 0 54 1t53 3v-12q-9 -2 -18.5 -6t-18 -11.5t-14 -18t-5.5 -26.5q0 -20 28 -74l96 -192l79 185q9 21 13 40.5t4 36.5q0 29 -16 46.5t-37 19.5v12
q25 -2 49 -3t48 -1q21 0 42 1t43 3v-12q-24 -7 -43 -25.5t-34 -42t-27 -49.5l-22 -47l-52 -115h95v-28h-109l-25 -57v-31h134v-28h-134v-88q0 -36 3.5 -59t12.5 -36.5t24.5 -19t39.5 -8.5v-12q-30 2 -60.5 3t-59.5 1q-26 0 -50.5 -1t-50.5 -3v12q22 3 37 8.5t24.5 19
t13.5 36.5t4 59v88z" />
    <glyph glyph-name="z" unicode="z" horiz-adv-x="444" 
d="M16 14l270 328h-71q-58 0 -98 -19.5t-66 -73.5l-14 4l14 119q42 -2 82 -3t82 -1q41 0 81.5 1t81.5 3l11 -16l-272 -330h64q35 0 65.5 2.5t55 13t44 31.5t31.5 57l15 -5l-22 -129q-45 2 -90 3t-90 1q-42 0 -82.5 -1t-82.5 -3z" />
    <glyph glyph-name="zero" unicode="0" 
d="M250 636q-30 0 -52 -21.5t-36.5 -62t-21.5 -98t-7 -128.5t7 -129t21.5 -98.5t36.5 -62.5t52 -22t51.5 22t36 62.5t21.5 98.5t7 129t-7 128.5t-21.5 98t-36 62t-51.5 21.5zM249 666q37 0 74 -18t66 -58.5t47 -105.5t18 -159t-18 -159t-47 -105.5t-66 -58.5t-74 -18
q-38 0 -74.5 18t-65 58.5t-46.5 105.5t-18 159t18 159t46.5 105.5t65 58.5t74.5 18z" />
    <glyph glyph-name="A" unicode="A" horiz-adv-x="704" 
d="M326 573l-98 -254h188zM218 289l-66 -181q-3 -8 -5.5 -14t-2.5 -13q0 -18 10.5 -31t25.5 -21.5t31 -13.5t27 -7v-12q-30 2 -60 3t-61 1q-30 0 -58.5 -1t-60.5 -3v12q31 7 51.5 21.5t34.5 34.5t24 44l21 50l173 425l5.5 13t2.5 11t-3.5 15t-8.5 18q26 5 45 13l42 17
l208 -572q14 -39 39 -61.5t74 -28.5v-12q-40 2 -79 3t-80 1q-27 0 -47 -0.5t-36 -1t-30.5 -1t-31.5 -1.5v12q42 5 70.5 21.5t28.5 44.5q0 8 -3.5 16t-5.5 15l-65 184h-209z" />
    <glyph glyph-name="AE" unicode="&#xc6;" horiz-adv-x="963" 
d="M421 354v266h-4l-152 -266h156zM866 480q-14 43 -33.5 71t-46.5 44.5t-61 22.5t-77 6h-137v-250h41t41 2q33 2 58.5 8t44.5 19.5t30.5 35t15.5 55.5h12q-2 -34 -3 -65t-1 -62q0 -41 1 -80.5t3 -76.5h-12q-7 36 -18 62.5t-29 43t-45.5 24.5t-66.5 8h-72v-311
q23 -6 48 -8.5t51 -2.5q56 0 105 8t91 28t78 52.5t67 82.5l13 -6l-87 -195q-30 2 -59.5 3t-59.5 1h-326q-28 0 -55.5 -1t-54.5 -3v12q35 1 55 10.5t29.5 25.5t12 39t2.5 52v197h-168l-94 -186q-11 -23 -17 -42t-6 -31q0 -18 9 -30t23 -19.5t30 -11t31 -4.5v-12
q-42 2 -82.5 3t-82.5 1q-26 0 -51 -1t-51 -3v12q31 3 56.5 20t46.5 41.5t37.5 53l30.5 52.5l164 291l27 49.5t14 53.5q0 21 -11.5 34t-28.5 20.5t-36 11.5t-35 7v12q51 -2 92 -3t85 -1h344q34 0 67.5 1.5t59.5 3.5q-1 -19 -1.5 -38t-0.5 -38q0 -25 1.5 -49.5t5.5 -49.5h-14z
" />
    <glyph glyph-name="Eth" unicode="&#xd0;" horiz-adv-x="833" 
d="M432 370v-32h-204v-262q32 -30 73.5 -42t83.5 -12q154 0 224.5 79t70.5 229q0 65 -23.5 121.5t-65 98.5t-99 66t-125.5 24q-36 0 -68.5 -7t-64.5 -21q-4 -52 -5 -104t-1 -105v-33h204zM138 370v176q0 22 -2.5 38.5t-12.5 28.5t-30 19t-54 10v12q26 -2 52 -3t52 -1
q35 0 67 2t63 5t61 5t62 2q81 0 152 -25t124.5 -71.5t84.5 -112.5t31 -148q0 -83 -30 -141.5t-80 -96t-114.5 -54.5t-134.5 -17q-53 0 -92 0.5t-68 0.5t-52 0.5t-44 0.5q-34 0 -67 -1t-67 -3v12q33 3 52.5 10.5t30 18t13.5 23t3 24.5v254h-98v32h98z" />
    <glyph glyph-name="Lslash" unicode="&#x141;" horiz-adv-x="648" 
d="M371 364l-143 -39v-286q27 -5 52.5 -9t51.5 -4q59 0 103 12t79 36t64.5 60.5t59.5 85.5h15l-77 -224q-36 2 -72.5 3t-72.5 1h-294q-25 0 -50 -1t-50 -3v12q33 3 52.5 10t30.5 17.5t14.5 25.5t3.5 35v205l-101 -27v32l101 27v159q0 42 -2.5 69.5t-12.5 44.5t-30 25t-56 11
v12q39 -2 77.5 -3t77.5 -1q42 0 84.5 1t84.5 3v-12q-48 -7 -75 -15.5t-39.5 -22.5t-15.5 -34.5t-3 -50.5v-162l143 39v-32z" />
    <glyph glyph-name="Scaron" unicode="&#x160;" horiz-adv-x="593" 
d="M331 692h-69l-111 172h39l107 -114l106 114h41zM491 464q-13 32 -33.5 63.5t-47.5 56t-60.5 39.5t-71.5 15q-57 0 -93.5 -21t-36.5 -75q0 -43 29 -70.5t72 -49t93.5 -41t93.5 -46.5t72 -66.5t29 -100.5q0 -49 -18 -84.5t-48.5 -58.5t-71 -34t-86.5 -11q-25 0 -52 4.5
t-52 10l-45.5 10t-32.5 4.5q-11 0 -21 -3.5l-21 -7.5q-9 57 -21 112l-25 111l13 7q18 -35 43.5 -73t57.5 -69.5t70.5 -52.5t83.5 -21q29 0 56 6.5t47.5 20.5t32.5 36.5t12 55.5q0 48 -29 79t-72 54.5t-93.5 43.5t-93.5 45t-72 59t-29 86q0 39 15 71t40.5 54.5t59.5 34.5
t71 12t66.5 -5t57.5 -11l57 -11.5t60 -5.5q0 -44 1.5 -87t6.5 -86h-14z" />
    <glyph glyph-name="Thorn" unicode="&#xde;" horiz-adv-x="630" 
d="M238 226q23 -12 47.5 -16t48.5 -4q31 0 59.5 9.5t49.5 27t33.5 43.5t12.5 59q0 39 -12.5 71t-34.5 54t-52.5 34t-66.5 12q-17 0 -39.5 -2.5t-45.5 -10.5v-277zM343 -4q-38 2 -76 3t-76 1q-37 0 -73 -1t-72 -3v12q36 3 56 11t30.5 25t13 44.5t2.5 69.5v334q0 42 -2.5 69.5
t-13 44.5t-31.5 25t-57 11v12q41 -2 81.5 -3t81.5 -1q33 0 66 1t65 3v-12q-29 -3 -48.5 -9t-31 -18t-16 -31t-4.5 -47l58 4.5t64 2.5q37 0 77.5 -13.5t74.5 -39t55.5 -62t21.5 -82.5q0 -48 -22 -81t-55.5 -53.5t-74.5 -29.5t-80 -9q-24 0 -51.5 2.5t-67.5 13.5v-32
q0 -42 2.5 -69.5t13 -44.5t31.5 -25t58 -11v-12z" />
    <glyph glyph-name="Yacute" unicode="&#xdd;" horiz-adv-x="722" 
d="M414 822q17 19 29.5 30.5t26.5 11.5q41 0 41 -32q0 -11 -8.5 -23.5t-20.5 -20.5l-140 -96h-44zM-20 654q42 -2 82 -3t82 -1q39 0 78.5 1t78.5 3v-12q-12 -2 -26.5 -6t-27 -11.5t-20.5 -18t-8 -26.5q0 -11 10.5 -29.5t30.5 -44.5l142 -192l118 185q14 21 20 40.5t6 36.5
q0 29 -24 46.5t-54 19.5v12q35 -2 70.5 -3t70.5 -1q32 0 63.5 1t63.5 3v-12q-36 -7 -64 -25.5t-50.5 -42.5t-40 -49.5l-32.5 -46.5l-137 -200v-147q0 -36 6 -59t19.5 -36.5t36.5 -19t58 -8.5v-12q-45 2 -89 3t-89 1q-37 0 -74 -1t-74 -3v12q33 3 55 8.5t35.5 19t19.5 36.5
t6 59v157l-181 232l-29 36.5t-33.5 35t-42.5 29.5t-56 21v12z" />
    <glyph glyph-name="Zcaron" unicode="&#x17d;" horiz-adv-x="704" 
d="M387 692h-69l-111 172h39l107 -114l106 114h41zM659 642l-128.5 -154.5l-129 -160.5l-121.5 -155.5l-106 -139.5q15 -4 41.5 -5t70.5 -1q58 0 113 8t101.5 29.5t83 59.5t57.5 97h20l-76 -224q-88 2 -175.5 3t-175.5 1q-46 0 -91.5 -1t-91.5 -3l-8 12l487 616h-134
q-44 0 -88 -7.5t-81 -26.5t-63 -51.5t-35 -82.5h-14q-1 18 0.5 36t1.5 35q0 63 11 127q32 -1 66 -1.5l67.5 -1l64.5 -1t57 -0.5q68 0 134.5 1t134.5 3z" />
    <glyph glyph-name="brokenbar" unicode="&#xa6;" horiz-adv-x="222" 
d="M86 712h50v-275h-50v275zM86 275h50v-275h-50v275z" />
    <glyph glyph-name="eth" unicode="&#xf0;" 
d="M221 354q-28 0 -48.5 -14t-34 -36.5t-20 -51t-6.5 -56.5q0 -32 8.5 -64t26.5 -58.5t45.5 -43t64.5 -16.5q28 0 48.5 14t34 36.5t20 50.5t6.5 57q0 31 -9 63.5t-27 59t-45 43t-64 16.5zM112 712l69 -56t75 -69l123 61l16 -29l-115 -57q35 -36 66.5 -77.5t55.5 -87t38 -95
t14 -102.5q0 -51 -15.5 -91t-44 -68t-68 -42.5t-87.5 -14.5t-87.5 14.5t-68 40.5t-44 63t-15.5 82t15.5 82t44 63t68 40.5t87.5 14.5q14 0 30.5 -2t46.5 -10q-8 38 -30 81.5t-52 85.5l-112 -56l-16 28l109 55q-30 41 -59.5 71.5t-61.5 58.5z" />
    <glyph glyph-name="lslash" unicode="&#x142;" horiz-adv-x="259" 
d="M-1 8q25 2 40 7.5t23 16.5t10 30t2 48v237l-86 -30v33l86 30v232q0 39 -12 54.5t-57 15.5v12l147 18v-305l86 29v-33l-86 -29v-264q0 -29 2 -48t10.5 -30t24 -16.5t42.5 -7.5v-12q-29 2 -59.5 3t-60.5 1q-29 0 -56.5 -1t-55.5 -3v12z" />
    <glyph glyph-name="minus" unicode="&#x2212;" 
d="M67 159v50h366v-50h-366z" />
    <glyph glyph-name="multiply" unicode="&#xd7;" 
d="M397 368l36 -35l-149 -149l149 -149l-35 -35l-149 149l-147 -149l-35 36l146 148l-146 148l35 36l147 -149z" />
    <glyph glyph-name="onehalf" unicode="&#xbd;" horiz-adv-x="750" 
d="M44 280q37 4 51.5 13.5t14.5 39.5v226q0 19 -1 31.5t-7 19.5t-19 10.5t-36 5.5v16q26 1 54 6.5t51 17.5h20v-333q0 -15 2.5 -24t9.5 -14.5t19 -8.5t32 -6v-16q-26 1 -50.5 1.5t-50.5 0.5q-23 0 -45 -0.5t-45 -1.5v16zM175 -16h-48l449 682h52zM452 7l98 93q21 19 40.5 41
t34.5 45.5t24 48t9 49.5q0 15 -4 30.5t-12.5 28.5t-21 21.5t-30.5 8.5q-26 0 -46.5 -11.5t-20.5 -41.5q0 -6 3.5 -10.5t7 -10t7 -12t3.5 -15.5q0 -13 -9 -20t-22 -9q-23 0 -32.5 15.5t-9.5 32.5q0 24 9 43.5t25 33.5t37.5 21.5t45.5 7.5q63 2 98.5 -29t35.5 -88
q0 -35 -22.5 -68t-54.5 -63t-66 -57t-56 -48h108q19 0 31.5 1t22 5.5t18 13t19.5 23.5l12 -6l-45 -83q-25 1 -49.5 1.5t-49.5 0.5q-32 0 -65 -0.5t-66 -1.5z" />
    <glyph glyph-name="onequarter" unicode="&#xbc;" horiz-adv-x="750" 
d="M74 280q37 4 51.5 13.5t14.5 39.5v226q0 19 -1 31.5t-7 19.5t-19 10.5t-36 5.5v16q26 1 54 6.5t51 17.5h20v-333q0 -15 2.5 -24t9.5 -14.5t19 -8.5t32 -6v-16q-26 1 -50.5 1.5t-50.5 0.5q-23 0 -45 -0.5t-45 -1.5v16zM205 -16h-48l449 682h52zM459 159h141v106l56 51
v-316h-56v115h-217v16l268 283h51z" />
    <glyph glyph-name="onesuperior" unicode="&#xb9;" horiz-adv-x="300" 
d="M54 280q37 4 51.5 13.5t14.5 39.5v226q0 19 -1 31.5t-7 19.5t-19 10.5t-36 5.5v16q26 1 54 6.5t51 17.5h20v-333q0 -15 2.5 -24t9.5 -14.5t19 -8.5t32 -6v-16q-26 1 -50.5 1.5t-50.5 0.5q-23 0 -45 -0.5t-45 -1.5v16z" />
    <glyph glyph-name="scaron" unicode="&#x161;" horiz-adv-x="389" 
d="M229 433h-69l-111 172h39l107 -114l106 114h41zM29 127h14q14 -21 31.5 -41t38.5 -36t45 -26t51 -10q13 0 26.5 2.5t24.5 8.5t18 16t7 25q0 25 -18.5 41t-45.5 28t-59.5 22.5t-59.5 25t-45.5 35.5t-18.5 54q0 54 33.5 83t84.5 29q38 0 73.5 -10t73.5 -12l6 -106h-13
q-11 19 -25.5 36.5t-33 31t-39.5 22t-43 8.5q-25 0 -45 -11t-20 -40q0 -21 18.5 -34.5t45.5 -25t59.5 -22.5t59.5 -26.5t45.5 -38t18.5 -55.5q0 -35 -11.5 -57.5t-31.5 -35.5t-46.5 -18.5t-56.5 -5.5q-47 0 -87.5 12t-66.5 15z" />
    <glyph glyph-name="thorn" unicode="&#xfe;" horiz-adv-x="537" 
d="M152 89q11 -30 45.5 -52.5t78.5 -22.5q62 0 92 47t30 119q0 30 -7.5 60t-22.5 54t-38 39t-54 15q-44 0 -78.5 -17t-45.5 -44v-198zM152 -151q0 -24 3 -39t15.5 -24t37 -13t67.5 -5v-12q-37 2 -74 3t-74 1q-34 0 -67.5 -1t-67.5 -3v12q21 2 36 5.5t25.5 11t15.5 21t5 36.5
v770q0 39 -12 54.5t-57 15.5v12l147 18v-376q36 26 67.5 37t75.5 11t79.5 -15t60 -42t38 -64t13.5 -81q0 -46 -17.5 -82.5t-47 -62t-69 -39.5t-82.5 -14q-31 0 -61 7.5t-57 24.5v-167z" />
    <glyph glyph-name="threequarters" unicode="&#xbe;" horiz-adv-x="750" 
d="M205 -16h-48l449 682h52zM459 159h141v106l56 51v-316h-56v115h-217v16l268 283h51zM144 615q-12 0 -20.5 -4.5t-14.5 -11.5t-10.5 -15.5l-8.5 -16.5h-22l35 96q27 -1 53.5 -1.5t53.5 -0.5h27t33 0.5l32.5 1t26.5 0.5l7 -8l-156 -155l2 -2q7 2 16 3.5t19 1.5
q20 0 38.5 -7.5t33 -22t23 -36t8.5 -50.5q0 -25 -10 -48t-30 -40t-49 -27.5t-66 -10.5q-20 0 -42 4.5t-40 14t-29.5 25t-11.5 36.5q0 14 9 24.5t28 10.5q21 0 27.5 -11t6.5 -26q0 -5 -1.5 -11t-1.5 -11q0 -9 7 -14.5t17 -8.5t21 -4t20 -1q24 0 39.5 8.5t24 23t12 33.5
t3.5 39q0 14 -4 28.5t-12 26.5t-20 19.5t-28 7.5q-21 0 -33 -5.5t-27 -16.5l-22 13l146 149h-110z" />
    <glyph glyph-name="threesuperior" unicode="&#xb3;" horiz-adv-x="300" 
d="M108 611q-12 0 -20.5 -4.5t-14.5 -11.5t-10.5 -15.5l-8.5 -16.5h-22l35 96q27 -1 53.5 -1.5t53.5 -0.5h27t33 0.5l32.5 1t26.5 0.5l7 -8l-156 -155l2 -2q7 2 16 3.5t19 1.5q20 0 38.5 -7.5t33 -22t23 -36t8.5 -50.5q0 -25 -10 -48t-30 -40t-49 -27.5t-66 -10.5
q-20 0 -42 4.5t-40 14t-29.5 25t-11.5 36.5q0 14 9 24.5t28 10.5q21 0 27.5 -11t6.5 -26q0 -5 -1.5 -11t-1.5 -11q0 -9 7 -14.5t17 -8.5t21 -4t20 -1q24 0 39.5 8.5t24 23t12 33.5t3.5 39q0 14 -4 28.5t-12 26.5t-20 19.5t-28 7.5q-21 0 -33 -5.5t-27 -16.5l-22 13l146 149
h-110z" />
    <glyph glyph-name="twosuperior" unicode="&#xb2;" horiz-adv-x="300" 
d="M6 273l98 93q21 19 40.5 41t34.5 45.5t24 48t9 49.5q0 15 -4 30.5t-12.5 28.5t-21 21.5t-30.5 8.5q-26 0 -46.5 -11.5t-20.5 -41.5q0 -6 3.5 -10.5t7 -10t7 -12t3.5 -15.5q0 -13 -9 -20t-22 -9q-23 0 -32.5 15.5t-9.5 32.5q0 24 9 43.5t25 33.5t37.5 21.5t45.5 7.5
q63 2 98.5 -29t35.5 -88q0 -35 -22.5 -68t-54.5 -63t-66 -57t-56 -48h108q19 0 31.5 1t22 5.5t18 13t19.5 23.5l12 -6l-45 -83q-25 1 -49.5 1.5t-49.5 0.5q-32 0 -65 -0.5t-66 -1.5z" />
    <glyph glyph-name="yacute" unicode="&#xfd;" 
d="M303 563q17 19 29.5 30.5t26.5 11.5q41 0 41 -32q0 -11 -8.5 -23.5t-20.5 -20.5l-140 -96h-44zM-25 372q30 -3 55.5 -3.5t56.5 -0.5q30 0 61 0.5t61 3.5v-12q-22 -3 -42 -13.5t-20 -35.5q0 -20 13 -53.5t30.5 -72l36 -78.5t29.5 -74l16 33l24 52l27 61.5t25 60.5t18.5 49
t7.5 28q0 12 -5.5 19t-13.5 11.5t-19 7t-21 5.5v12q23 -3 46 -3.5t47 -0.5q23 0 45 0.5t45 3.5v-12q-27 -4 -54 -34.5t-49.5 -69.5t-39.5 -76.5t-26 -55.5q-63 -132 -107.5 -207t-79 -112t-63.5 -46t-61 -9q-18 0 -35.5 5t-31 15.5t-22 26.5t-8.5 38q0 20 14.5 36t34.5 16
q23 0 37 -11.5t14 -35.5q0 -17 -8 -28.5t-8 -16.5q0 -6 14.5 -7.5t28.5 -1.5q30 0 59 24.5t51.5 56t36.5 60t14 36.5q0 3 -7.5 21l-19 45l-26.5 60.5l-30.5 67.5l-30 65l-25.5 54l-18 36t-16.5 23t-23 14t-37.5 11v12z" />
    <glyph glyph-name="zcaron" unicode="&#x17e;" horiz-adv-x="444" 
d="M257 433h-69l-111 172h39l107 -114l106 114h41zM16 14l270 328h-71q-58 0 -98 -19.5t-66 -73.5l-14 4l14 119q42 -2 82 -3t82 -1q41 0 81.5 1t81.5 3l11 -16l-272 -330h64q35 0 65.5 2.5t55 13t44 31.5t31.5 57l15 -5l-22 -129q-45 2 -90 3t-90 1q-42 0 -82.5 -1
t-82.5 -3z" />
    <glyph glyph-name="nonbreakingspace" horiz-adv-x="250" 
 />
    <glyph glyph-name="Euro" unicode="&#x20ac;" 
d="M380 360h-222v-20q0 -32 3 -68h202l-5 -28h-194q5 -38 15.5 -76t30 -68t48 -49t69.5 -19q26 0 48.5 9.5t41.5 25.5t33.5 36.5t25.5 43.5l24 -10q-15 -32 -33.5 -60.5t-42.5 -50t-54.5 -34t-67.5 -12.5q-55 0 -94.5 23t-66.5 60.5t-42.5 85t-22.5 95.5h-56l5 28h48
q-2 13 -2 25v25v18q0 10 1 20h-52l5 28h50q6 50 22 100t44 89.5t70 64t99 24.5q36 0 75.5 -10.5t72.5 -15.5q0 -17 1 -38.5t3 -45.5t4.5 -48l4.5 -45h-16q-9 28 -20.5 58t-28 54t-40 39.5t-57.5 15.5q-43 0 -71 -23.5t-45 -59.5t-24.5 -78.5t-9.5 -80.5h226z" />
    </font>
</defs>
</svg>
